<?xml version="1.0" encoding="utf-8"?>
<!-- Generator: Adobe Illustrator 24.0.1, SVG Export Plug-In . SVG Version: 6.00 Build 0)  -->
<svg version="1.1" xmlns="http://www.w3.org/2000/svg" xmlns:xlink="http://www.w3.org/1999/xlink" x="0px" y="0px"
	 viewBox="0 0 48 48" style="enable-background:new 0 0 48 48;" xml:space="preserve">
<style type="text/css">
	.st0{display:none;}
	.st1{display:inline;}
</style>
<g id="Layer_1" class="st0">
	<path class="st1" d="M3.94,21.73c-0.47,0.22-0.84,0.62-1.03,1.1c0.1-0.15,0.22-0.3,0.35-0.43L3.94,21.73z"/>
	<path class="st1" d="M44.63,22.84c-0.19-0.49-0.56-0.88-1.03-1.1l0.67,0.67C44.41,22.54,44.53,22.69,44.63,22.84z"/>
	<path class="st1" d="M44.63,22.84c-0.1-0.15-0.22-0.3-0.35-0.43l-0.67-0.67L25.89,4.02c-1.17-1.17-3.07-1.17-4.24,0L3.94,21.73
		l-0.67,0.67c-0.13,0.13-0.25,0.28-0.35,0.43c-0.09,0.23-0.14,0.48-0.14,0.74v2.4v16.51c0,1.13,0.92,2.04,2.04,2.04h11.91
		c1.13,0,2.04-0.92,2.04-2.04v-0.33V32.15c0-0.89,0.72-1.62,1.62-1.62h6.77c0.89,0,1.62,0.72,1.62,1.62v10.01v0.33
		c0,1.13,0.92,2.04,2.04,2.04h11.91c1.13,0,2.04-0.92,2.04-2.04V25.97v-2.4C44.77,23.32,44.72,23.07,44.63,22.84z"/>
</g>
<g id="Layer_2">
	<path d="M44.14,41.31L33.8,30.96c2.43-3,3.89-6.82,3.89-10.99c0-9.66-7.84-17.5-17.5-17.5s-17.5,7.84-17.5,17.5
		s7.84,17.5,17.5,17.5c4.03,0,7.74-1.38,10.7-3.67l10.38,10.38c0.73,0.73,1.9,0.73,2.63,0l0.25-0.25
		C44.86,43.21,44.86,42.03,44.14,41.31z M6.68,19.98c0-7.46,6.04-13.5,13.5-13.5s13.5,6.04,13.5,13.5c0,7.46-6.04,13.5-13.5,13.5
		S6.68,27.43,6.68,19.98z"/>
</g>
<g id="Layer_3" class="st0">
	<g class="st1">
		<path d="M44.77,7.69h-42c-1.1,0-2-0.9-2-2v0c0-1.1,0.9-2,2-2h42c1.1,0,2,0.9,2,2v0C46.77,6.8,45.88,7.69,44.77,7.69z"/>
		<path d="M44.77,25.69h-42c-1.1,0-2-0.9-2-2v0c0-1.1,0.9-2,2-2h42c1.1,0,2,0.9,2,2v0C46.77,24.8,45.88,25.69,44.77,25.69z"/>
		<path d="M44.77,43.69h-42c-1.1,0-2-0.9-2-2v0c0-1.1,0.9-2,2-2h42c1.1,0,2,0.9,2,2v0C46.77,42.8,45.88,43.69,44.77,43.69z"/>
	</g>
</g>
<g id="Layer_4" class="st0">
	<path class="st1" d="M17.7,23.69L34.18,7.17c0.79-0.79,0.79-2.07,0-2.86l-0.03-0.03c-0.79-0.79-2.07-0.79-2.85,0L13.4,22.22
		c0,0-0.01,0.01-0.01,0.01c0,0,0,0-0.01,0l-0.02,0.02c-0.79,0.79-0.79,2.07,0,2.86L31.3,43.1c0.79,0.79,2.07,0.79,2.86,0l0.02-0.02
		c0.79-0.79,0.79-2.07,0-2.86L17.7,23.69z"/>
</g>
<g id="Layer_5" class="st0">
	<g class="st1">
		<path d="M40.37,43.11L4.36,7.09c-0.78-0.78-0.78-2.04,0-2.82l0,0c0.78-0.78,2.04-0.78,2.82,0l36.01,36.01
			c0.78,0.78,0.78,2.04,0,2.82l0,0C42.41,43.89,41.15,43.89,40.37,43.11z"/>
		<path d="M40.37,4.28L4.36,40.29c-0.78,0.78-0.78,2.04,0,2.82l0,0c0.78,0.78,2.04,0.78,2.82,0L43.19,7.09
			c0.78-0.78,0.78-2.04,0-2.82l0,0C42.41,3.5,41.15,3.5,40.37,4.28z"/>
	</g>
</g>
<g id="Layer_6" class="st0">
	<path class="st1" d="M38.27,5.19h-4v-2.5c0-0.83-0.67-1.5-1.5-1.5c-0.83,0-1.5,0.67-1.5,1.5v2.5h-15v-2.5c0-0.83-0.67-1.5-1.5-1.5
		s-1.5,0.67-1.5,1.5v2.5h-4c-3.31,0-6,2.69-6,6v29c0,3.31,2.69,6,6,6h29c3.31,0,6-2.69,6-6v-29C44.27,7.88,41.59,5.19,38.27,5.19z
		 M28.24,26.08L22.9,36h-2.96l5.32-9.64h-5.59V24.1h8.57V26.08z M41.27,15.19h-35v-4c0-1.66,1.34-3,3-3h4v1.5
		c0,0.83,0.67,1.5,1.5,1.5s1.5-0.67,1.5-1.5v-1.5h15v1.5c0,0.83,0.67,1.5,1.5,1.5c0.83,0,1.5-0.67,1.5-1.5v-1.5h4c1.66,0,3,1.34,3,3
		V15.19z"/>
</g>
<g id="Layer_7" class="st0">
	<path class="st1" d="M43.64,2.19c-0.26,0-0.55,0.07-0.86,0.22l-12,5.73c-0.17,0.08-0.34,0.19-0.5,0.31
		c-0.16-0.12-0.33-0.23-0.5-0.31L18.63,2.82l-0.86-0.41c-0.17-0.08-0.34-0.14-0.5-0.17c-0.16,0.04-0.33,0.09-0.5,0.17l-0.86,0.41
		L4.77,8.14c-1.1,0.53-2,1.85-2,2.95v32.85c0,0.79,0.46,1.25,1.14,1.25c0.26,0,0.55-0.07,0.86-0.22l12-5.73
		c0.17-0.08,0.34-0.19,0.5-0.31c0.16,0.12,0.33,0.23,0.5,0.31l11.14,5.32l0.86,0.41c0.17,0.08,0.34,0.14,0.5,0.17
		c0.16-0.04,0.33-0.09,0.5-0.17l0.86-0.41l11.14-5.32c1.1-0.53,2-1.85,2-2.95V3.44C44.77,2.65,44.31,2.19,43.64,2.19z M15.48,36.53
		l-9.71,4.64V11.2c0.06-0.12,0.2-0.3,0.29-0.35l9.71-4.64v29.97C15.72,36.31,15.57,36.49,15.48,36.53z M18.77,36.18V6.21l9.7,4.63
		c0.09,0.05,0.24,0.23,0.3,0.36v29.97l-9.7-4.63C18.98,36.49,18.83,36.31,18.77,36.18z M41.77,36.18c-0.06,0.12-0.2,0.3-0.29,0.35
		l-9.71,4.64V11.2c0.06-0.12,0.2-0.3,0.29-0.35l9.71-4.64V36.18z"/>
</g>
<g id="Layer_8" class="st0">
	<path class="st1" d="M43.64,2.19c-0.26,0-0.55,0.07-0.86,0.22l-12,5.73c-0.17,0.08-0.34,0.19-0.5,0.31
		c-0.16-0.12-0.33-0.23-0.5-0.31L18.63,2.82l-0.86-0.41c-0.17-0.08-0.34-0.14-0.5-0.17c-0.16,0.04-0.33,0.09-0.5,0.17l-0.86,0.41
		L4.77,8.14c-1.1,0.53-2,1.85-2,2.95v32.85c0,0.79,0.46,1.25,1.14,1.25c0.26,0,0.55-0.07,0.86-0.22l12-5.73
		c0.17-0.08,0.34-0.19,0.5-0.31c0.16,0.12,0.33,0.23,0.5,0.31l11.14,5.32l0.86,0.41c0.17,0.08,0.34,0.14,0.5,0.17
		c0.16-0.04,0.33-0.09,0.5-0.17l0.86-0.41l11.14-5.32c1.1-0.53,2-1.85,2-2.95V3.44C44.77,2.65,44.31,2.19,43.64,2.19z M28.77,41.17
		l-9.7-4.63c-0.09-0.05-0.24-0.23-0.3-0.36V6.21l9.7,4.63c0.09,0.05,0.24,0.23,0.3,0.36V41.17z"/>
</g>
</svg>
