<?xml version="1.0" encoding="utf-8"?>
<!-- Generator: Adobe Illustrator 24.0.1, SVG Export Plug-In . SVG Version: 6.00 Build 0)  -->
<svg version="1.1" xmlns="http://www.w3.org/2000/svg" xmlns:xlink="http://www.w3.org/1999/xlink" x="0px" y="0px"
	 viewBox="0 0 48 48" style="enable-background:new 0 0 48 48;" xml:space="preserve">
<style type="text/css">
	.st0{display:none;}
	.st1{display:inline;}
	.st2{display:inline;fill-rule:evenodd;clip-rule:evenodd;}
	.st3{display:inline;fill:#FFFFFF;}
	.st4{fill:#FFFFFF;}
	.st5{display:inline;fill-rule:evenodd;clip-rule:evenodd;fill:#FFFFFF;}
</style>
<g id="Layer_1" class="st0">
	<path class="st1" d="M44.63,22.84c-0.1-0.15-0.22-0.3-0.35-0.43l-0.67-0.67L25.89,4.02c-1.17-1.17-3.07-1.17-4.24,0L3.94,21.73
		l-0.67,0.67c-0.13,0.13-0.25,0.28-0.35,0.43c-0.09,0.23-0.14,0.48-0.14,0.74v2.4v16.51c0,1.13,0.92,2.04,2.04,2.04h11.91
		c1.13,0,2.04-0.92,2.04-2.04v-0.33V32.15c0-0.89,0.72-1.62,1.62-1.62h6.77c0.89,0,1.62,0.72,1.62,1.62v10.01v0.33
		c0,1.13,0.92,2.04,2.04,2.04h11.91c1.13,0,2.04-0.92,2.04-2.04V25.97v-2.4C44.77,23.32,44.72,23.07,44.63,22.84z"/>
</g>
<g id="Layer_2" class="st0">
	<path class="st1" d="M44.14,41.31L33.8,30.96c2.43-3,3.89-6.82,3.89-10.99c0-9.66-7.84-17.5-17.5-17.5s-17.5,7.84-17.5,17.5
		s7.84,17.5,17.5,17.5c4.03,0,7.74-1.38,10.7-3.67l10.38,10.38c0.73,0.73,1.9,0.73,2.63,0l0.25-0.25
		C44.86,43.21,44.86,42.03,44.14,41.31z M6.68,19.98c0-7.46,6.04-13.5,13.5-13.5s13.5,6.04,13.5,13.5c0,7.46-6.04,13.5-13.5,13.5
		S6.68,27.43,6.68,19.98z"/>
</g>
<g id="Layer_3" class="st0">
	<g class="st1">
		<path d="M44.77,7.69h-42c-1.1,0-2-0.9-2-2v0c0-1.1,0.9-2,2-2h42c1.1,0,2,0.9,2,2v0C46.77,6.8,45.88,7.69,44.77,7.69z"/>
		<path d="M44.77,25.69h-42c-1.1,0-2-0.9-2-2v0c0-1.1,0.9-2,2-2h42c1.1,0,2,0.9,2,2v0C46.77,24.8,45.88,25.69,44.77,25.69z"/>
		<path d="M44.77,43.69h-42c-1.1,0-2-0.9-2-2v0c0-1.1,0.9-2,2-2h42c1.1,0,2,0.9,2,2v0C46.77,42.8,45.88,43.69,44.77,43.69z"/>
	</g>
</g>
<g id="Layer_4" class="st0">
	<path class="st1" d="M17.7,23.69L34.18,7.17c0.79-0.79,0.79-2.07,0-2.86l-0.03-0.03c-0.79-0.79-2.07-0.79-2.85,0L13.4,22.22
		c0,0-0.01,0.01-0.01,0.01c0,0,0,0-0.01,0l-0.02,0.02c-0.79,0.79-0.79,2.07,0,2.86L31.3,43.1c0.79,0.79,2.07,0.79,2.86,0l0.02-0.02
		c0.79-0.79,0.79-2.07,0-2.86L17.7,23.69z"/>
</g>
<g id="Layer_5" class="st0">
	<g class="st1">
		<path d="M40.37,43.11L4.36,7.09c-0.78-0.78-0.78-2.04,0-2.82l0,0c0.78-0.78,2.04-0.78,2.82,0l36.01,36.01
			c0.78,0.78,0.78,2.04,0,2.82l0,0C42.41,43.89,41.15,43.89,40.37,43.11z"/>
		<path d="M40.37,4.28L4.36,40.29c-0.78,0.78-0.78,2.04,0,2.82l0,0c0.78,0.78,2.04,0.78,2.82,0L43.19,7.09
			c0.78-0.78,0.78-2.04,0-2.82l0,0C42.41,3.5,41.15,3.5,40.37,4.28z"/>
	</g>
</g>
<g id="Layer_6" class="st0">
	<path class="st1" d="M38.27,5.19h-4v-2.5c0-0.83-0.67-1.5-1.5-1.5c-0.83,0-1.5,0.67-1.5,1.5v2.5h-15v-2.5c0-0.83-0.67-1.5-1.5-1.5
		s-1.5,0.67-1.5,1.5v2.5h-4c-3.31,0-6,2.69-6,6v29c0,3.31,2.69,6,6,6h29c3.31,0,6-2.69,6-6v-29C44.27,7.88,41.59,5.19,38.27,5.19z
		 M28.24,26.08L22.9,36h-2.96l5.32-9.64h-5.59V24.1h8.57V26.08z M41.27,15.19h-35v-4c0-1.66,1.34-3,3-3h4v1.5
		c0,0.83,0.67,1.5,1.5,1.5s1.5-0.67,1.5-1.5v-1.5h15v1.5c0,0.83,0.67,1.5,1.5,1.5c0.83,0,1.5-0.67,1.5-1.5v-1.5h4c1.66,0,3,1.34,3,3
		V15.19z"/>
</g>
<g id="Layer_7" class="st0">
	<path class="st1" d="M43.64,2.19c-0.26,0-0.55,0.07-0.86,0.22l-12,5.73c-0.17,0.08-0.34,0.19-0.5,0.31
		c-0.16-0.12-0.33-0.23-0.5-0.31L18.63,2.82l-0.86-0.41c-0.17-0.08-0.34-0.14-0.5-0.17c-0.16,0.04-0.33,0.09-0.5,0.17l-0.86,0.41
		L4.77,8.14c-1.1,0.53-2,1.85-2,2.95v32.85c0,0.79,0.46,1.25,1.14,1.25c0.26,0,0.55-0.07,0.86-0.22l12-5.73
		c0.17-0.08,0.34-0.19,0.5-0.31c0.16,0.12,0.33,0.23,0.5,0.31l11.14,5.32l0.86,0.41c0.17,0.08,0.34,0.14,0.5,0.17
		c0.16-0.04,0.33-0.09,0.5-0.17l0.86-0.41l11.14-5.32c1.1-0.53,2-1.85,2-2.95V3.44C44.77,2.65,44.31,2.19,43.64,2.19z M15.48,36.53
		l-9.71,4.64V11.2c0.06-0.12,0.2-0.3,0.29-0.35l9.71-4.64v29.97C15.72,36.31,15.57,36.49,15.48,36.53z M18.77,36.18V6.21l9.7,4.63
		c0.09,0.05,0.24,0.23,0.3,0.36v29.97l-9.7-4.63C18.98,36.49,18.83,36.31,18.77,36.18z M41.77,36.18c-0.06,0.12-0.2,0.3-0.29,0.35
		l-9.71,4.64V11.2c0.06-0.12,0.2-0.3,0.29-0.35l9.71-4.64V36.18z"/>
</g>
<g id="Layer_8" class="st0">
	<path class="st1" d="M43.64,2.19c-0.26,0-0.55,0.07-0.86,0.22l-12,5.73c-0.17,0.08-0.34,0.19-0.5,0.31
		c-0.16-0.12-0.33-0.23-0.5-0.31L18.63,2.82l-0.86-0.41c-0.17-0.08-0.34-0.14-0.5-0.17c-0.16,0.04-0.33,0.09-0.5,0.17l-0.86,0.41
		L4.77,8.14c-1.1,0.53-2,1.85-2,2.95v32.85c0,0.79,0.46,1.25,1.14,1.25c0.26,0,0.55-0.07,0.86-0.22l12-5.73
		c0.17-0.08,0.34-0.19,0.5-0.31c0.16,0.12,0.33,0.23,0.5,0.31l11.14,5.32l0.86,0.41c0.17,0.08,0.34,0.14,0.5,0.17
		c0.16-0.04,0.33-0.09,0.5-0.17l0.86-0.41l11.14-5.32c1.1-0.53,2-1.85,2-2.95V3.44C44.77,2.65,44.31,2.19,43.64,2.19z M28.77,41.17
		l-9.7-4.63c-0.09-0.05-0.24-0.23-0.3-0.36V6.21l9.7,4.63c0.09,0.05,0.24,0.23,0.3,0.36V41.17z"/>
</g>
<g id="Layer_9" class="st0">
	<path class="st1" d="M23.77,4.69c-10.49,0-19,8.51-19,19s8.51,19,19,19c10.49,0,19-8.51,19-19S34.27,4.69,23.77,4.69z M32.45,30.56
		c0.44,0.44,0.44,1.14,0,1.58l-0.23,0.23c-0.44,0.44-1.14,0.44-1.58,0l-6.87-6.87l-6.87,6.87c-0.44,0.44-1.14,0.44-1.58,0
		l-0.23-0.23c-0.44-0.44-0.44-1.14,0-1.58l6.87-6.87l-6.87-6.87c-0.44-0.44-0.44-1.14,0-1.58l0.23-0.23c0.44-0.44,1.14-0.44,1.58,0
		l6.87,6.87l6.87-6.87c0.44-0.44,1.14-0.44,1.58,0l0.23,0.23c0.44,0.44,0.44,1.14,0,1.58l-6.87,6.87L32.45,30.56z"/>
</g>
<g id="Layer_10" class="st0">
	<path class="st1" d="M34.27,22.19h-9v-9c0-0.55-0.45-1-1-1h-1c-0.55,0-1,0.45-1,1v9h-9c-0.55,0-1,0.45-1,1v1c0,0.55,0.45,1,1,1h9v9
		c0,0.55,0.45,1,1,1h1c0.55,0,1-0.45,1-1v-9h9c0.55,0,1-0.45,1-1v-1C35.27,22.64,34.83,22.19,34.27,22.19z"/>
</g>
<g id="Layer_11" class="st0">
	<path class="st1" d="M34.27,25.19h-21c-0.55,0-1-0.45-1-1v-1c0-0.55,0.45-1,1-1h21c0.55,0,1,0.45,1,1v1
		C35.27,24.74,34.83,25.19,34.27,25.19z"/>
</g>
<g id="Layer_12" class="st0">
	<path class="st1" d="M24.32,32.33c0.01,0,0.02,0,0.02-0.01c0.18-0.07,0.35-0.18,0.49-0.33l0,0l9-9c0.59-0.59,0.59-1.54,0-2.12
		c-0.59-0.59-1.54-0.59-2.12,0l-6.44,6.44V9.94c0-0.83-0.67-1.5-1.5-1.5s-1.5,0.67-1.5,1.5v17.38l-6.44-6.44
		c-0.59-0.59-1.54-0.59-2.12,0c-0.29,0.29-0.44,0.68-0.44,1.06s0.15,0.77,0.44,1.06l9,9l0,0c0.14,0.14,0.31,0.25,0.49,0.33
		c0.01,0,0.02,0,0.02,0.01c0.17,0.07,0.35,0.11,0.55,0.11S24.15,32.4,24.32,32.33z"/>
	<polygon class="st1" points="37.27,28.94 37.27,35.94 10.27,35.94 10.27,28.94 7.27,28.94 7.27,38.94 8.27,38.94 10.27,38.94 
		37.27,38.94 39.27,38.94 40.27,38.94 40.27,28.94 	"/>
</g>
<g id="Layer_13" class="st0">
	<path class="st1" d="M35.67,23.22c0-0.01,0-0.02-0.01-0.02c-0.07-0.18-0.18-0.35-0.33-0.49l0,0l-9-9c-0.59-0.59-1.54-0.59-2.12,0
		c-0.59,0.59-0.59,1.54,0,2.12l6.44,6.44H13.27c-0.83,0-1.5,0.67-1.5,1.5s0.67,1.5,1.5,1.5h17.38l-6.44,6.44
		c-0.59,0.59-0.59,1.54,0,2.12c0.29,0.29,0.68,0.44,1.06,0.44s0.77-0.15,1.06-0.44l9-9l0,0c0.14-0.14,0.25-0.31,0.33-0.49
		c0-0.01,0-0.02,0.01-0.02c0.07-0.17,0.11-0.35,0.11-0.55S35.73,23.39,35.67,23.22z"/>
</g>
<g id="Layer_14" class="st0">
	<g class="st1">
		<path d="M10.2,35.2c0,0,4.5-0.41,6.41-5.25c0,0,0.17-0.72,0.99-1.7s3.48-2.93,6.75-0.85s2.22,6.04,1.13,7.4s-3.68,4.3-9,4.3
			S6.62,35.85,10.2,35.2z"/>
		<path d="M36.83,8.43c0,0,3-0.14,4.09,3.17L28.99,27.53c0,0-0.68,1.06-1.98,0.24c-1.3-0.82-3.24-2.52-3.24-2.52
			s-1.19-0.72-0.14-1.94C24.69,22.07,36.83,8.43,36.83,8.43z"/>
	</g>
</g>
<g id="Layer_15" class="st0">
	<path class="st1" d="M37.77,25.32l-8-2.9V10.69c0-1.1-0.9-2-2-2h-18c-1.1,0-2,0.9-2,2v26c0,1.1,0.9,2,2,2h18
		c0.17,0,0.34-0.03,0.5-0.07c0.16,0.04,0.33,0.07,0.5,0.07h9c1.1,0,2-0.9,2-2v-3.64v-2.36v-2.64
		C39.77,26.94,38.88,25.72,37.77,25.32z M16.77,33.69c0,0.55-0.45,1-1,1h-3c-0.55,0-1-0.45-1-1v-3c0-0.55,0.45-1,1-1h3
		c0.55,0,1,0.45,1,1V33.69z M16.77,25.69c0,0.55-0.45,1-1,1h-3c-0.55,0-1-0.45-1-1v-3c0-0.55,0.45-1,1-1h3c0.55,0,1,0.45,1,1V25.69z
		 M16.77,17.69c0,0.55-0.45,1-1,1h-3c-0.55,0-1-0.45-1-1v-3c0-0.55,0.45-1,1-1h3c0.55,0,1,0.45,1,1V17.69z M25.77,33.69
		c0,0.55-0.45,1-1,1h-3c-0.55,0-1-0.45-1-1v-3c0-0.55,0.45-1,1-1h3c0.55,0,1,0.45,1,1V33.69z M25.77,25.69c0,0.55-0.45,1-1,1h-3
		c-0.55,0-1-0.45-1-1v-3c0-0.55,0.45-1,1-1h3c0.55,0,1,0.45,1,1V25.69z M25.77,17.69c0,0.55-0.45,1-1,1h-3c-0.55,0-1-0.45-1-1v-3
		c0-0.55,0.45-1,1-1h3c0.55,0,1,0.45,1,1V17.69z M35.77,33.69c0,0.55-0.45,1-1,1h-3c-0.55,0-1-0.45-1-1v-3c0-0.55,0.45-1,1-1h3
		c0.55,0,1,0.45,1,1V33.69z"/>
</g>
<g id="Layer_16" class="st0">
	<path class="st1" d="M8.42,30.3l5.81,2.12c0.19,0.07,0.36,0.18,0.51,0.33c0.15,0.15,0.26,0.32,0.33,0.51l2.12,5.81
		c0.11,0.31,0.37,0.54,0.7,0.61c0.07,0.02,0.14,0.02,0.21,0.02c0.25,0,0.5-0.1,0.68-0.28l0.53-0.53c0.5-0.5,0.77-1.2,0.73-1.91
		c0-0.01,0-0.01,0-0.02l-0.47-5.32l6.8-6.05l6.66,13.09c0.14,0.28,0.41,0.48,0.72,0.53c0.31,0.05,0.63-0.05,0.85-0.28l1.32-1.32
		c0.67-0.67,0.94-1.66,0.69-2.58l-4.17-15.44l4.87-4.87c1.54-1.54,2.43-3.59,2.5-5.77c0.01-0.34-0.12-0.66-0.36-0.9
		c-0.24-0.24-0.57-0.37-0.9-0.36c-2.18,0.07-4.22,0.96-5.77,2.5l-4.87,4.87L12.46,10.9c-0.92-0.25-1.91,0.02-2.58,0.69l-1.32,1.32
		c-0.22,0.22-0.33,0.54-0.28,0.85c0.05,0.31,0.25,0.58,0.53,0.72l13.09,6.66l-6.05,6.8l-5.32-0.47c-0.01,0-0.01,0-0.02,0
		C9.8,27.43,9.1,27.69,8.6,28.19l-0.53,0.53c-0.23,0.23-0.33,0.57-0.26,0.89C7.89,29.93,8.11,30.19,8.42,30.3z"/>
</g>
<g id="Layer_17" class="st0">
	<path class="st1" d="M36.55,7.81l-15.72,3.01c-1.09,0.21-1.96,1.26-1.96,2.34v3.03v0.9v14.97c-1.04-0.7-2.42-1.13-3.93-1.13
		c-3.26,0-5.89,1.98-5.89,4.42c0,2.44,2.64,4.42,5.89,4.42s5.89-1.98,5.89-4.42c0-0.17-0.01-0.33-0.04-0.49h0.04V18.69l15.72-3.01
		v13.45c-1.04-0.7-2.42-1.13-3.93-1.13c-3.26,0-5.89,1.98-5.89,4.42c0,2.44,2.64,4.42,5.89,4.42s5.89-1.98,5.89-4.42
		c0-0.17-0.01-0.33-0.04-0.49h0.04V13.33v-0.08V9.4C38.51,8.32,37.63,7.61,36.55,7.81z"/>
</g>
<g id="Layer_18" class="st0">
	<path class="st2" d="M38.44,36c0.83,0.83,0.83,2.18,0,3.02c-0.83,0.83-2.18,0.83-3.02,0L24.04,27.63c-1.25,1.25-3.28,1.25-4.53,0
		l-5.31-5.31c-3.74-3.74-5.58-8.35-5.62-13.61c0-0.44,0.25-0.82,0.66-0.99c0.41-0.17,0.85-0.08,1.16,0.23L38.44,36z M31.97,7.95
		c0.42-0.42,1.09-0.42,1.51,0c0.41,0.41,0.41,1.1,0,1.51l-5.51,5.51c-0.41,0.41-0.41,1.09,0,1.51c0.41,0.41,1.09,0.41,1.51,0
		l5.51-5.51c0.41-0.42,1.09-0.42,1.51,0c0.41,0.41,0.41,1.1,0,1.51l-5.51,5.51c-0.41,0.42-0.41,1.09,0,1.51
		c0.41,0.41,1.1,0.41,1.51,0l5.51-5.51c0.41-0.42,1.09-0.42,1.51,0c0.41,0.41,0.41,1.1,0,1.51l-7.02,7.02
		c-1.25,1.25-3.28,1.25-4.53,0l-3.02-3.02c-1.25-1.25-1.25-3.28,0-4.53L31.97,7.95z M11.47,39.02c-0.83,0.83-2.18,0.83-3.02,0
		c-0.83-0.83-0.83-2.18,0-3.02l8.21-8.21l1.35,1.35c0.6,0.6,1.3,1.02,2.06,1.28L11.47,39.02z"/>
</g>
<g id="Layer_19" class="st0">
	<path class="st1" d="M39.52,22.7c-1.61-2.39-3.44-4.63-5.21-6.91c-0.2-0.25-0.7-0.58-0.86-0.5c-0.91,0.47-1.78,1.02-2.59,1.65
		c-0.12,0.1,0.03,0.83,0.27,1.05c0.36,0.34,0.62-0.02,0.8-0.39c0.13-0.27,0.3-0.54,0.49-0.78c0.58-0.69,1.03-0.66,1.5,0.1
		c0.58,0.96,1.14,1.93,1.71,2.9c0.43,0.74,0.85,1.48,1.36,2.34c-0.66-0.05-1.13-0.08-1.6-0.11c-2.7-0.19-5.37-0.12-7.98,0.75
		c-2.48,0.83-4.93,0.62-7.44-0.04c-1.66-0.44-3.4-0.61-5.12-0.77c-1.3-0.12-2.62-0.02-4.03-0.02c1.02-1.73,2.04-3.5,3.09-5.25
		c0.3-0.5,0.74-0.52,1.12-0.14c0.33,0.33,0.56,0.76,0.82,1.15c0.31,0.47,0.83,0.49,0.98-0.04c0.09-0.31-0.04-0.84-0.27-1.07
		c-0.43-0.43-1-0.71-1.52-1.04c-0.85-0.54-1.15-0.5-1.76,0.3c-1.62,2.12-3.19,4.27-4.85,6.35c-0.82,1.02-0.68,2.07-0.38,3.15
		c0.32,1.16,0.81,2.27,1.12,3.43c0.44,1.66,1.5,2.66,3.12,3.07c0.7,0.18,1.44,0.28,2.16,0.28c3.04,0.02,5.67-0.78,7.09-3.79
		c0.25-0.53,0.43-1.09,0.64-1.64c0.29-0.77,0.75-1.28,1.66-1.28c0.9,0,1.39,0.48,1.67,1.26c0.14,0.37,0.27,0.74,0.4,1.11
		c0.76,2.07,2.21,3.42,4.32,4c1.7,0.47,3.44,0.5,5.16,0.07c1.62-0.41,2.68-1.41,3.13-3.06c0.33-1.18,0.89-2.31,1.13-3.51
		C39.81,24.48,39.95,23.33,39.52,22.7z"/>
</g>
<g id="Layer_20" class="st0">
	<g class="st1">
		<path d="M24.29,31.72h-3.46v-1.73h-1.81h-3.38h-2.59v-0.86v-0.86v-12.1c0-0.48,0.39-0.86,0.86-0.86h18.15
			c0.48,0,0.86,0.39,0.86,0.86v2.59h2.59V15.3c0-1.43-1.16-2.59-2.59-2.59H13.06c-1.43,0-2.59,1.16-2.59,2.59v14.69H8.66
			c-0.95,0-1.08,0.77-0.28,1.73l0.72,0.86c0.8,0.95,2.22,1.73,3.17,1.73h3.38h6.99h6.84v-4.32h-5.19V31.72z"/>
		<path d="M38.12,20.48h-5.19c-0.95,0-1.73,0.77-1.73,1.73v12.1c0,0.95,0.77,1.73,1.73,1.73h5.19c0.95,0,1.73-0.77,1.73-1.73v-12.1
			C39.85,21.26,39.07,20.48,38.12,20.48z M36.39,33.45h-1.73v-1.73h1.73V33.45z"/>
	</g>
</g>
<g id="Layer_21" class="st0">
	<path class="st1" d="M19,35.5c-0.38,0-0.77-0.15-1.06-0.44c-0.59-0.59-0.59-1.54,0-2.12L26.88,24l-8.94-8.94
		c-0.59-0.59-0.59-1.54,0-2.12c0.59-0.59,1.54-0.59,2.12,0l10,10c0.59,0.59,0.59,1.54,0,2.12l-10,10C19.77,35.35,19.38,35.5,19,35.5
		z"/>
</g>
<g id="Layer_1_copy" class="st0">
	<path class="st3" d="M44.63,22.84c-0.1-0.15-0.22-0.3-0.35-0.43l-0.67-0.67L25.89,4.02c-1.17-1.17-3.07-1.17-4.24,0L3.94,21.73
		l-0.67,0.67c-0.13,0.13-0.25,0.28-0.35,0.43c-0.09,0.23-0.14,0.48-0.14,0.74v2.4v16.51c0,1.13,0.92,2.04,2.04,2.04h11.91
		c1.13,0,2.04-0.92,2.04-2.04v-0.33V32.15c0-0.89,0.72-1.62,1.62-1.62h6.77c0.89,0,1.62,0.72,1.62,1.62v10.01v0.33
		c0,1.13,0.92,2.04,2.04,2.04h11.91c1.13,0,2.04-0.92,2.04-2.04V25.97v-2.4C44.77,23.32,44.72,23.07,44.63,22.84z"/>
</g>
<g id="Layer_2_copy" class="st0">
	<path class="st3" d="M44.14,41.31L33.8,30.96c2.43-3,3.89-6.82,3.89-10.99c0-9.66-7.84-17.5-17.5-17.5s-17.5,7.84-17.5,17.5
		s7.84,17.5,17.5,17.5c4.03,0,7.74-1.38,10.7-3.67l10.38,10.38c0.73,0.73,1.9,0.73,2.63,0l0.25-0.25
		C44.86,43.21,44.86,42.03,44.14,41.31z M6.68,19.98c0-7.46,6.04-13.5,13.5-13.5s13.5,6.04,13.5,13.5c0,7.46-6.04,13.5-13.5,13.5
		S6.68,27.43,6.68,19.98z"/>
</g>
<g id="Layer_3_copy" class="st0">
	<g class="st1">
		<path class="st4" d="M44.77,7.69h-42c-1.1,0-2-0.9-2-2v0c0-1.1,0.9-2,2-2h42c1.1,0,2,0.9,2,2v0C46.77,6.8,45.88,7.69,44.77,7.69z"
			/>
		<path class="st4" d="M44.77,25.69h-42c-1.1,0-2-0.9-2-2v0c0-1.1,0.9-2,2-2h42c1.1,0,2,0.9,2,2v0
			C46.77,24.8,45.88,25.69,44.77,25.69z"/>
		<path class="st4" d="M44.77,43.69h-42c-1.1,0-2-0.9-2-2v0c0-1.1,0.9-2,2-2h42c1.1,0,2,0.9,2,2v0
			C46.77,42.8,45.88,43.69,44.77,43.69z"/>
	</g>
</g>
<g id="Layer_4_copy" class="st0">
	<path class="st3" d="M17.7,23.69L34.18,7.17c0.79-0.79,0.79-2.07,0-2.86l-0.03-0.03c-0.79-0.79-2.07-0.79-2.85,0L13.4,22.22
		c0,0-0.01,0.01-0.01,0.01c0,0,0,0-0.01,0l-0.02,0.02c-0.79,0.79-0.79,2.07,0,2.86L31.3,43.1c0.79,0.79,2.07,0.79,2.86,0l0.02-0.02
		c0.79-0.79,0.79-2.07,0-2.86L17.7,23.69z"/>
</g>
<g id="Layer_5_copy" class="st0">
	<g class="st1">
		<path class="st4" d="M40.37,43.11L4.36,7.09c-0.78-0.78-0.78-2.04,0-2.82l0,0c0.78-0.78,2.04-0.78,2.82,0l36.01,36.01
			c0.78,0.78,0.78,2.04,0,2.82l0,0C42.41,43.89,41.15,43.89,40.37,43.11z"/>
		<path class="st4" d="M40.37,4.28L4.36,40.29c-0.78,0.78-0.78,2.04,0,2.82l0,0c0.78,0.78,2.04,0.78,2.82,0L43.19,7.09
			c0.78-0.78,0.78-2.04,0-2.82l0,0C42.41,3.5,41.15,3.5,40.37,4.28z"/>
	</g>
</g>
<g id="Layer_6_copy" class="st0">
	<path class="st3" d="M38.27,5.19h-4v-2.5c0-0.83-0.67-1.5-1.5-1.5c-0.83,0-1.5,0.67-1.5,1.5v2.5h-15v-2.5c0-0.83-0.67-1.5-1.5-1.5
		s-1.5,0.67-1.5,1.5v2.5h-4c-3.31,0-6,2.69-6,6v29c0,3.31,2.69,6,6,6h29c3.31,0,6-2.69,6-6v-29C44.27,7.88,41.59,5.19,38.27,5.19z
		 M28.24,26.08L22.9,36h-2.96l5.32-9.64h-5.59V24.1h8.57V26.08z M41.27,15.19h-35v-4c0-1.66,1.34-3,3-3h4v1.5
		c0,0.83,0.67,1.5,1.5,1.5s1.5-0.67,1.5-1.5v-1.5h15v1.5c0,0.83,0.67,1.5,1.5,1.5c0.83,0,1.5-0.67,1.5-1.5v-1.5h4c1.66,0,3,1.34,3,3
		V15.19z"/>
</g>
<g id="Layer_7_copy" class="st0">
	<path class="st3" d="M43.64,2.19c-0.26,0-0.55,0.07-0.86,0.22l-12,5.73c-0.17,0.08-0.34,0.19-0.5,0.31
		c-0.16-0.12-0.33-0.23-0.5-0.31L18.63,2.82l-0.86-0.41c-0.17-0.08-0.34-0.14-0.5-0.17c-0.16,0.04-0.33,0.09-0.5,0.17l-0.86,0.41
		L4.77,8.14c-1.1,0.53-2,1.85-2,2.95v32.85c0,0.79,0.46,1.25,1.14,1.25c0.26,0,0.55-0.07,0.86-0.22l12-5.73
		c0.17-0.08,0.34-0.19,0.5-0.31c0.16,0.12,0.33,0.23,0.5,0.31l11.14,5.32l0.86,0.41c0.17,0.08,0.34,0.14,0.5,0.17
		c0.16-0.04,0.33-0.09,0.5-0.17l0.86-0.41l11.14-5.32c1.1-0.53,2-1.85,2-2.95V3.44C44.77,2.65,44.31,2.19,43.64,2.19z M15.48,36.53
		l-9.71,4.64V11.2c0.06-0.12,0.2-0.3,0.29-0.35l9.71-4.64v29.97C15.72,36.31,15.57,36.49,15.48,36.53z M18.77,36.18V6.21l9.7,4.63
		c0.09,0.05,0.24,0.23,0.3,0.36v29.97l-9.7-4.63C18.98,36.49,18.83,36.31,18.77,36.18z M41.77,36.18c-0.06,0.12-0.2,0.3-0.29,0.35
		l-9.71,4.64V11.2c0.06-0.12,0.2-0.3,0.29-0.35l9.71-4.64V36.18z"/>
</g>
<g id="Layer_8_copy" class="st0">
	<path class="st3" d="M43.64,2.19c-0.26,0-0.55,0.07-0.86,0.22l-12,5.73c-0.17,0.08-0.34,0.19-0.5,0.31
		c-0.16-0.12-0.33-0.23-0.5-0.31L18.63,2.82l-0.86-0.41c-0.17-0.08-0.34-0.14-0.5-0.17c-0.16,0.04-0.33,0.09-0.5,0.17l-0.86,0.41
		L4.77,8.14c-1.1,0.53-2,1.85-2,2.95v32.85c0,0.79,0.46,1.25,1.14,1.25c0.26,0,0.55-0.07,0.86-0.22l12-5.73
		c0.17-0.08,0.34-0.19,0.5-0.31c0.16,0.12,0.33,0.23,0.5,0.31l11.14,5.32l0.86,0.41c0.17,0.08,0.34,0.14,0.5,0.17
		c0.16-0.04,0.33-0.09,0.5-0.17l0.86-0.41l11.14-5.32c1.1-0.53,2-1.85,2-2.95V3.44C44.77,2.65,44.31,2.19,43.64,2.19z M28.77,41.17
		l-9.7-4.63c-0.09-0.05-0.24-0.23-0.3-0.36V6.21l9.7,4.63c0.09,0.05,0.24,0.23,0.3,0.36V41.17z"/>
</g>
<g id="Layer_9_copy" class="st0">
	<path class="st3" d="M23.77,4.69c-10.49,0-19,8.51-19,19s8.51,19,19,19c10.49,0,19-8.51,19-19S34.27,4.69,23.77,4.69z M32.45,30.56
		c0.44,0.44,0.44,1.14,0,1.58l-0.23,0.23c-0.44,0.44-1.14,0.44-1.58,0l-6.87-6.87l-6.87,6.87c-0.44,0.44-1.14,0.44-1.58,0
		l-0.23-0.23c-0.44-0.44-0.44-1.14,0-1.58l6.87-6.87l-6.87-6.87c-0.44-0.44-0.44-1.14,0-1.58l0.23-0.23c0.44-0.44,1.14-0.44,1.58,0
		l6.87,6.87l6.87-6.87c0.44-0.44,1.14-0.44,1.58,0l0.23,0.23c0.44,0.44,0.44,1.14,0,1.58l-6.87,6.87L32.45,30.56z"/>
</g>
<g id="Layer_10_copy" class="st0">
	<path class="st3" d="M34.27,22.19h-9v-9c0-0.55-0.45-1-1-1h-1c-0.55,0-1,0.45-1,1v9h-9c-0.55,0-1,0.45-1,1v1c0,0.55,0.45,1,1,1h9v9
		c0,0.55,0.45,1,1,1h1c0.55,0,1-0.45,1-1v-9h9c0.55,0,1-0.45,1-1v-1C35.27,22.64,34.83,22.19,34.27,22.19z"/>
</g>
<g id="Layer_11_copy" class="st0">
	<path class="st3" d="M34.27,25.19h-21c-0.55,0-1-0.45-1-1v-1c0-0.55,0.45-1,1-1h21c0.55,0,1,0.45,1,1v1
		C35.27,24.74,34.83,25.19,34.27,25.19z"/>
</g>
<g id="Layer_12_copy" class="st0">
	<path class="st3" d="M24.32,32.33c0.01,0,0.02,0,0.02-0.01c0.18-0.07,0.35-0.18,0.49-0.33l0,0l9-9c0.59-0.59,0.59-1.54,0-2.12
		c-0.59-0.59-1.54-0.59-2.12,0l-6.44,6.44V9.94c0-0.83-0.67-1.5-1.5-1.5s-1.5,0.67-1.5,1.5v17.38l-6.44-6.44
		c-0.59-0.59-1.54-0.59-2.12,0c-0.29,0.29-0.44,0.68-0.44,1.06s0.15,0.77,0.44,1.06l9,9l0,0c0.14,0.14,0.31,0.25,0.49,0.33
		c0.01,0,0.02,0,0.02,0.01c0.17,0.07,0.35,0.11,0.55,0.11S24.15,32.4,24.32,32.33z"/>
	<polygon class="st3" points="37.27,28.94 37.27,35.94 10.27,35.94 10.27,28.94 7.27,28.94 7.27,38.94 8.27,38.94 10.27,38.94 
		37.27,38.94 39.27,38.94 40.27,38.94 40.27,28.94 	"/>
</g>
<g id="Layer_13_copy" class="st0">
	<path class="st3" d="M35.67,23.22c0-0.01,0-0.02-0.01-0.02c-0.07-0.18-0.18-0.35-0.33-0.49l0,0l-9-9c-0.59-0.59-1.54-0.59-2.12,0
		c-0.59,0.59-0.59,1.54,0,2.12l6.44,6.44H13.27c-0.83,0-1.5,0.67-1.5,1.5s0.67,1.5,1.5,1.5h17.38l-6.44,6.44
		c-0.59,0.59-0.59,1.54,0,2.12c0.29,0.29,0.68,0.44,1.06,0.44s0.77-0.15,1.06-0.44l9-9l0,0c0.14-0.14,0.25-0.31,0.33-0.49
		c0-0.01,0-0.02,0.01-0.02c0.07-0.17,0.11-0.35,0.11-0.55S35.73,23.39,35.67,23.22z"/>
</g>
<g id="Layer_14_copy" class="st0">
	<g class="st1">
		<path class="st4" d="M10.2,35.2c0,0,4.5-0.41,6.41-5.25c0,0,0.17-0.72,0.99-1.7s3.48-2.93,6.75-0.85s2.22,6.04,1.13,7.4
			s-3.68,4.3-9,4.3S6.62,35.85,10.2,35.2z"/>
		<path class="st4" d="M36.83,8.43c0,0,3-0.14,4.09,3.17L28.99,27.53c0,0-0.68,1.06-1.98,0.24c-1.3-0.82-3.24-2.52-3.24-2.52
			s-1.19-0.72-0.14-1.94C24.69,22.07,36.83,8.43,36.83,8.43z"/>
	</g>
</g>
<g id="Layer_15_copy" class="st0">
	<path class="st3" d="M37.77,25.32l-8-2.9V10.69c0-1.1-0.9-2-2-2h-18c-1.1,0-2,0.9-2,2v26c0,1.1,0.9,2,2,2h18
		c0.17,0,0.34-0.03,0.5-0.07c0.16,0.04,0.33,0.07,0.5,0.07h9c1.1,0,2-0.9,2-2v-3.64v-2.36v-2.64
		C39.77,26.94,38.88,25.72,37.77,25.32z M16.77,33.69c0,0.55-0.45,1-1,1h-3c-0.55,0-1-0.45-1-1v-3c0-0.55,0.45-1,1-1h3
		c0.55,0,1,0.45,1,1V33.69z M16.77,25.69c0,0.55-0.45,1-1,1h-3c-0.55,0-1-0.45-1-1v-3c0-0.55,0.45-1,1-1h3c0.55,0,1,0.45,1,1V25.69z
		 M16.77,17.69c0,0.55-0.45,1-1,1h-3c-0.55,0-1-0.45-1-1v-3c0-0.55,0.45-1,1-1h3c0.55,0,1,0.45,1,1V17.69z M25.77,33.69
		c0,0.55-0.45,1-1,1h-3c-0.55,0-1-0.45-1-1v-3c0-0.55,0.45-1,1-1h3c0.55,0,1,0.45,1,1V33.69z M25.77,25.69c0,0.55-0.45,1-1,1h-3
		c-0.55,0-1-0.45-1-1v-3c0-0.55,0.45-1,1-1h3c0.55,0,1,0.45,1,1V25.69z M25.77,17.69c0,0.55-0.45,1-1,1h-3c-0.55,0-1-0.45-1-1v-3
		c0-0.55,0.45-1,1-1h3c0.55,0,1,0.45,1,1V17.69z M35.77,33.69c0,0.55-0.45,1-1,1h-3c-0.55,0-1-0.45-1-1v-3c0-0.55,0.45-1,1-1h3
		c0.55,0,1,0.45,1,1V33.69z"/>
</g>
<g id="Layer_16_copy" class="st0">
	<path class="st3" d="M8.42,30.3l5.81,2.12c0.19,0.07,0.36,0.18,0.51,0.33c0.15,0.15,0.26,0.32,0.33,0.51l2.12,5.81
		c0.11,0.31,0.37,0.54,0.7,0.61c0.07,0.02,0.14,0.02,0.21,0.02c0.25,0,0.5-0.1,0.68-0.28l0.53-0.53c0.5-0.5,0.77-1.2,0.73-1.91
		c0-0.01,0-0.01,0-0.02l-0.47-5.32l6.8-6.05l6.66,13.09c0.14,0.28,0.41,0.48,0.72,0.53c0.31,0.05,0.63-0.05,0.85-0.28l1.32-1.32
		c0.67-0.67,0.94-1.66,0.69-2.58l-4.17-15.44l4.87-4.87c1.54-1.54,2.43-3.59,2.5-5.77c0.01-0.34-0.12-0.66-0.36-0.9
		c-0.24-0.24-0.57-0.37-0.9-0.36c-2.18,0.07-4.22,0.96-5.77,2.5l-4.87,4.87L12.46,10.9c-0.92-0.25-1.91,0.02-2.58,0.69l-1.32,1.32
		c-0.22,0.22-0.33,0.54-0.28,0.85c0.05,0.31,0.25,0.58,0.53,0.72l13.09,6.66l-6.05,6.8l-5.32-0.47c-0.01,0-0.01,0-0.02,0
		C9.8,27.43,9.1,27.69,8.6,28.19l-0.53,0.53c-0.23,0.23-0.33,0.57-0.26,0.89C7.89,29.93,8.11,30.19,8.42,30.3z"/>
</g>
<g id="Layer_17_copy" class="st0">
	<path class="st3" d="M36.55,7.81l-15.72,3.01c-1.09,0.21-1.96,1.26-1.96,2.34v3.03v0.9v14.97c-1.04-0.7-2.42-1.13-3.93-1.13
		c-3.26,0-5.89,1.98-5.89,4.42c0,2.44,2.64,4.42,5.89,4.42s5.89-1.98,5.89-4.42c0-0.17-0.01-0.33-0.04-0.49h0.04V18.69l15.72-3.01
		v13.45c-1.04-0.7-2.42-1.13-3.93-1.13c-3.26,0-5.89,1.98-5.89,4.42c0,2.44,2.64,4.42,5.89,4.42s5.89-1.98,5.89-4.42
		c0-0.17-0.01-0.33-0.04-0.49h0.04V13.33v-0.08V9.4C38.51,8.32,37.63,7.61,36.55,7.81z"/>
</g>
<g id="Layer_18_copy" class="st0">
	<path class="st5" d="M38.44,36c0.83,0.83,0.83,2.18,0,3.02c-0.83,0.83-2.18,0.83-3.02,0L24.04,27.63c-1.25,1.25-3.28,1.25-4.53,0
		l-5.31-5.31c-3.74-3.74-5.58-8.35-5.62-13.61c0-0.44,0.25-0.82,0.66-0.99c0.41-0.17,0.85-0.08,1.16,0.23L38.44,36z M31.97,7.95
		c0.42-0.42,1.09-0.42,1.51,0c0.41,0.41,0.41,1.1,0,1.51l-5.51,5.51c-0.41,0.41-0.41,1.09,0,1.51c0.41,0.41,1.09,0.41,1.51,0
		l5.51-5.51c0.41-0.42,1.09-0.42,1.51,0c0.41,0.41,0.41,1.1,0,1.51l-5.51,5.51c-0.41,0.42-0.41,1.09,0,1.51
		c0.41,0.41,1.1,0.41,1.51,0l5.51-5.51c0.41-0.42,1.09-0.42,1.51,0c0.41,0.41,0.41,1.1,0,1.51l-7.02,7.02
		c-1.25,1.25-3.28,1.25-4.53,0l-3.02-3.02c-1.25-1.25-1.25-3.28,0-4.53L31.97,7.95z M11.47,39.02c-0.83,0.83-2.18,0.83-3.02,0
		c-0.83-0.83-0.83-2.18,0-3.02l8.21-8.21l1.35,1.35c0.6,0.6,1.3,1.02,2.06,1.28L11.47,39.02z"/>
</g>
<g id="Layer_19_copy" class="st0">
	<path class="st3" d="M39.52,22.7c-1.61-2.39-3.44-4.63-5.21-6.91c-0.2-0.25-0.7-0.58-0.86-0.5c-0.91,0.47-1.78,1.02-2.59,1.65
		c-0.12,0.1,0.03,0.83,0.27,1.05c0.36,0.34,0.62-0.02,0.8-0.39c0.13-0.27,0.3-0.54,0.49-0.78c0.58-0.69,1.03-0.66,1.5,0.1
		c0.58,0.96,1.14,1.93,1.71,2.9c0.43,0.74,0.85,1.48,1.36,2.34c-0.66-0.05-1.13-0.08-1.6-0.11c-2.7-0.19-5.37-0.12-7.98,0.75
		c-2.48,0.83-4.93,0.62-7.44-0.04c-1.66-0.44-3.4-0.61-5.12-0.77c-1.3-0.12-2.62-0.02-4.03-0.02c1.02-1.73,2.04-3.5,3.09-5.25
		c0.3-0.5,0.74-0.52,1.12-0.14c0.33,0.33,0.56,0.76,0.82,1.15c0.31,0.47,0.83,0.49,0.98-0.04c0.09-0.31-0.04-0.84-0.27-1.07
		c-0.43-0.43-1-0.71-1.52-1.04c-0.85-0.54-1.15-0.5-1.76,0.3c-1.62,2.12-3.19,4.27-4.85,6.35c-0.82,1.02-0.68,2.07-0.38,3.15
		c0.32,1.16,0.81,2.27,1.12,3.43c0.44,1.66,1.5,2.66,3.12,3.07c0.7,0.18,1.44,0.28,2.16,0.28c3.04,0.02,5.67-0.78,7.09-3.79
		c0.25-0.53,0.43-1.09,0.64-1.64c0.29-0.77,0.75-1.28,1.66-1.28c0.9,0,1.39,0.48,1.67,1.26c0.14,0.37,0.27,0.74,0.4,1.11
		c0.76,2.07,2.21,3.42,4.32,4c1.7,0.47,3.44,0.5,5.16,0.07c1.62-0.41,2.68-1.41,3.13-3.06c0.33-1.18,0.89-2.31,1.13-3.51
		C39.81,24.48,39.95,23.33,39.52,22.7z"/>
</g>
<g id="Layer_20_copy" class="st0">
	<g class="st1">
		<path class="st4" d="M24.29,31.72h-3.46v-1.73h-1.81h-3.38h-2.59v-0.86v-0.86v-12.1c0-0.48,0.39-0.86,0.86-0.86h18.15
			c0.48,0,0.86,0.39,0.86,0.86v2.59h2.59V15.3c0-1.43-1.16-2.59-2.59-2.59H13.06c-1.43,0-2.59,1.16-2.59,2.59v14.69H8.66
			c-0.95,0-1.08,0.77-0.28,1.73l0.72,0.86c0.8,0.95,2.22,1.73,3.17,1.73h3.38h6.99h6.84v-4.32h-5.19V31.72z"/>
		<path class="st4" d="M38.12,20.48h-5.19c-0.95,0-1.73,0.77-1.73,1.73v12.1c0,0.95,0.77,1.73,1.73,1.73h5.19
			c0.95,0,1.73-0.77,1.73-1.73v-12.1C39.85,21.26,39.07,20.48,38.12,20.48z M36.39,33.45h-1.73v-1.73h1.73V33.45z"/>
	</g>
</g>
<g id="Layer_21_copy">
	<path class="st4" d="M19,35.5c-0.38,0-0.77-0.15-1.06-0.44c-0.59-0.59-0.59-1.54,0-2.12L26.88,24l-8.94-8.94
		c-0.59-0.59-0.59-1.54,0-2.12c0.59-0.59,1.54-0.59,2.12,0l10,10c0.59,0.59,0.59,1.54,0,2.12l-10,10C19.77,35.35,19.38,35.5,19,35.5
		z"/>
</g>
</svg>
