<?xml version="1.0" encoding="UTF-8"?>
<svg width="118px" height="60px" viewBox="0 0 118 60" version="1.1" xmlns="http://www.w3.org/2000/svg" xmlns:xlink="http://www.w3.org/1999/xlink">
    <!-- Generator: Sketch 55.1 (78136) - https://sketchapp.com -->
    <title>logo/space/ST</title>
    <desc>Created with Sketch.</desc>
    <g id="logo/space/ST" stroke="none" stroke-width="1" fill="none" fill-rule="evenodd">
        <g id="logo/space/DL" transform="translate(13.000000, 11.000000)" fill="#000000">
            <g id="St" transform="translate(0.307080, 0.000000)">
                <g id="logo_storage">
                    <path d="M26.230081,17.0374781 C22.6124951,17.0374781 20.0015161,15.8218267 19.8893429,15.7670802 C19.4347462,15.550902 19.2487748,15.0230903 19.4760732,14.5893302 C19.7018955,14.15557 20.2583337,13.9772932 20.7158823,14.1962789 C20.7380218,14.2047014 23.2545391,15.3684139 26.6212113,15.2743624 C29.3517433,15.1999634 30.3450666,14.5149312 30.3553983,14.5079124 L30.3362108,14.52195 L31.5199334,15.8709581 C31.3826688,15.9804509 30.0838211,16.9364078 26.674346,17.0304593 C26.5237977,17.0360743 26.3732495,17.0374781 26.230081,17.0374781" id="Fill-1"></path>
                    <path d="M20.7349222,27.2255075 C20.6581721,27.2255075 20.5799461,27.2184887 20.5002441,27.1988361 C20.0102243,27.0767095 19.7106037,26.5966254 19.8390125,26.1263677 C19.8434404,26.1109264 20.2877054,24.4881861 21.506851,20.3667628 C22.7451842,16.1891892 27.3944684,6.42046135 27.5922475,6.00635375 C27.8033103,5.56417107 28.3508926,5.36624168 28.8158211,5.56838234 C29.2822255,5.76771548 29.4844324,6.28850842 29.2763216,6.73209485 C29.2276148,6.83035767 24.4853449,16.7970149 23.2868627,20.8454431 C22.0721449,24.9444063 21.6323079,26.553109 21.626404,26.5671466 C21.5186587,26.9644091 21.14524,27.2255075 20.7349222,27.2255075" id="Fill-3"></path>
                    <path d="M39.3956733,15.8500421 C38.4141577,15.8500421 37.4252623,15.6296527 36.5072132,14.9867331 C36.0968954,14.6961559 36.0083376,14.1458841 36.312386,13.7584479 C36.6149585,13.3653966 37.1950121,13.2839788 37.6023779,13.5703447 C38.9115573,14.4855927 40.5675881,14.0279687 42.3210325,13.5422697 C42.4538692,13.505772 42.5881818,13.4692744 42.7195426,13.4327768 C43.2095624,13.2994201 43.7202456,13.5703447 43.8604621,14.0349875 C44.0006787,14.5038415 43.7187697,14.9923481 43.2257979,15.1214935 L42.8361436,15.2309864 C41.7882097,15.5215636 40.5941555,15.8500421 39.3956733,15.8500421" id="Fill-5"></path>
                    <path d="M60.2764207,13.7302324 C60.1258724,13.7302324 59.9458049,13.7484812 59.7258864,13.7934013 C58.335529,14.0895936 57.3259701,14.687593 56.0536898,15.6224935 C54.1851203,16.9953655 52.0995842,18.6981197 50.8110683,20.9244744 C50.2251109,21.9323702 49.9372981,23.5298429 50.4568371,23.9972931 C50.8376357,24.3440205 51.3645545,24.3341942 52.0198822,23.9748331 C54.2456348,22.7549704 59.3716552,17.6186325 60.184911,16.7019808 C60.4904354,16.3538496 61.0217821,15.8400755 61.5546049,15.3403389 C61.5147539,14.9065787 61.3730614,14.2496216 60.9775032,13.9379881 C60.905181,13.8790304 60.7162577,13.7302324 60.2764207,13.7302324 M59.8292038,27.4196467 C59.4572611,27.4196467 59.1074578,27.2034685 58.9672413,26.8539336 C58.1835048,24.9153486 58.0388604,22.9079796 58.5244523,20.9146482 C56.6514549,22.6960127 54.3740436,24.7146117 52.9453112,25.4979067 C51.5756173,26.2475117 50.1690243,26.1632864 49.1816049,25.2719023 C47.5669011,23.8134013 48.6414023,21.0255448 49.1934126,20.0752029 C50.6457604,17.5695011 52.9054602,15.7165451 54.9245779,14.2313728 C56.366594,13.1715381 57.6049272,12.4443932 59.3259004,12.0780133 C60.7605366,11.7776098 61.6638262,12.1917174 62.1700816,12.594595 C62.6320581,12.9637824 62.9257747,13.441059 63.1058423,13.9127205 C63.2003039,13.8383215 63.2563905,13.7934013 63.2681982,13.7849788 C63.6549006,13.4887866 64.2216705,13.5351105 64.5463824,13.8930679 C64.8725703,14.2496216 64.843051,14.7886633 64.4784881,15.1129306 C64.4696323,15.1199494 64.0666943,15.4779068 63.5560111,15.9439533 C62.9833373,16.5110701 62.2261682,17.3617454 61.5634607,18.4285989 C59.9487569,21.0381786 59.6550402,23.660392 60.6926423,26.2222441 C60.8727099,26.6770606 60.6365557,27.183816 60.1612956,27.3592853 C60.0505983,27.3985904 59.9399011,27.4196467 59.8292038,27.4196467" id="Fill-7"></path>
                    <path d="M64.9254098,22.5306504 C65.557122,23.0374058 67.3504174,21.6855901 68.3171733,20.9528303 C68.4824812,20.8278961 68.6389333,20.7099807 68.7924335,20.5990841 C70.9473399,19.0114377 73.0461596,15.9540603 73.9833963,14.4857331 C74.0217713,14.2414798 74.0306271,13.9242313 73.9051702,13.7305131 C73.8712231,13.679978 73.7679056,13.5185462 73.3177368,13.4539735 C71.8786727,13.2532366 68.7083036,15.8628163 67.1555902,17.7494624 C66.5445415,18.4906448 65.8685503,19.5883809 65.4316652,20.5499527 C64.875227,21.7726229 64.875227,22.3818524 64.9254098,22.5306504 M65.8906897,30.4773049 C63.7653026,32.7612135 63.4007397,34.1944469 63.4568263,34.9847607 C63.468634,35.13777 63.4937254,35.2711266 63.5335764,35.3918495 C64.0604953,34.2716534 64.9017944,32.5057302 65.8906897,30.4773049 M63.7800623,37.9045702 C63.6368938,37.9045702 63.4966773,37.8722838 63.3653166,37.8119224 C62.7837871,37.5325752 61.7565166,36.6664587 61.620728,35.1770751 C61.3934297,32.7443685 63.5734274,29.6771648 68.1002067,26.0344217 C68.7894816,24.6868174 69.5687902,23.1679549 70.3421949,21.6631301 C70.2034544,21.7782379 70.0647138,21.8849233 69.9215454,21.9888011 C69.778377,22.0940827 69.6278287,22.2105943 69.4669487,22.3299135 C67.8433891,23.5553912 65.3888622,25.4111547 63.6147544,23.7701656 C61.8376946,22.1305803 64.8073327,17.7494624 65.7002905,16.6643601 C66.8618736,15.2563943 70.8012195,11.3272854 73.5863622,11.7161254 C74.6726711,11.8677309 75.2202535,12.4011576 75.4874028,12.8208802 C75.5862924,12.9781007 75.6630425,13.1409362 75.7191291,13.3051755 C75.722081,13.3051755 75.7250329,13.3065793 75.7279848,13.307983 C76.1737258,13.5297762 76.3508413,14.0491654 76.1264949,14.4773106 C76.0895958,14.548902 73.6822998,19.1686582 71.4329318,23.5413537 C72.4823416,22.7791149 76.0408891,20.2144554 77.4356743,19.473273 C77.8799393,19.2360385 78.4452332,19.3862402 78.693195,19.8101741 C78.9411569,20.2341079 78.7817528,20.7703422 78.3374879,21.0075767 C76.8423371,21.8021018 72.3037501,25.1191738 72.2594712,25.1556714 C71.2661479,25.8547411 70.3820459,26.5159095 69.5968335,27.1377728 C69.0994339,28.1119785 68.6640247,28.9794988 68.328981,29.664531 C66.2759161,33.828067 64.6420248,37.3472796 64.6257892,37.3809697 C64.5239478,37.6013592 64.3291206,37.7698097 64.0929665,37.8512275 C63.991125,37.8891289 63.8848557,37.9045702 63.7800623,37.9045702" id="Fill-9"></path>
                    <path d="M85.539303,12.0604664 C85.0197639,12.0604664 84.2242197,12.3496398 83.0847761,13.4515871 C81.1453604,15.3241957 79.6088826,18.1906625 79.0908195,20.4268434 C79.9262147,19.8807829 81.1158411,19.0694128 82.3039915,18.1387235 C84.9459658,16.0766081 86.5119628,14.2461122 86.6064244,13.1231085 C86.6359437,12.7805924 86.5252465,12.5349354 86.2389096,12.2948934 C86.1134527,12.1896118 85.8876303,12.0604664 85.539303,12.0604664 M81.4759762,25.9983452 C80.3070133,25.9983452 79.0376849,25.6656554 77.986799,24.5580931 C75.4865173,21.9274571 78.5122419,15.3592895 81.7696928,12.2162831 C84.77623,9.31752998 86.7510688,10.3829797 87.4580552,10.9753641 C88.1812772,11.5775748 88.5251767,12.3692924 88.4484266,13.263484 C88.1384743,16.9736073 80.0989024,21.9372833 78.9786463,22.613893 C79.0494926,22.9255265 79.1749494,23.1852211 79.3564929,23.380343 C80.3424364,24.4163139 81.7696928,24.5131729 83.9821618,23.6877653 C84.9931966,23.311559 86.7333573,21.9597434 89.1509851,19.668816 C89.2602064,19.5691494 89.3428603,19.4905392 89.395995,19.440004 C89.7635098,19.1031029 90.3494673,19.1143329 90.7007465,19.4610603 C91.0579296,19.8105952 91.0475979,20.3678858 90.680083,20.7047868 C90.6328522,20.749707 90.5546262,20.8227022 90.4572126,20.91535 C88.7731385,22.5086114 86.342227,24.6942573 84.6581529,25.3245431 C84.0736715,25.5407213 82.8427181,25.9983452 81.4759762,25.9983452" id="Fill-11"></path>
                    <path d="M40.0130687,25.99638 C39.9245109,25.99638 39.8330012,25.9837462 39.7429674,25.9570749 C39.2706592,25.8195069 38.997606,25.3548642 39.118635,24.9000477 C39.1378225,24.8256487 39.3636449,24.0072598 39.9038474,22.839336 C40.5532713,21.1365817 41.487556,18.7151052 42.1118885,17.1850127 C42.9886107,15.0232307 42.1502635,13.2727488 42.1414077,13.2573075 C41.9170613,12.8193361 42.1089366,12.2943319 42.5679611,12.0809612 C43.0284617,11.8689942 43.5804719,12.0514823 43.8033424,12.48805 C43.8490972,12.5778903 44.8261849,14.5417429 44.0822994,17.1035949 C48.8585165,12.8010873 51.2731924,13.5422697 52.2901311,14.3732923 C52.6783094,14.6891371 52.7211124,15.2436202 52.3919726,15.6142114 C52.0584049,15.9819951 51.4768753,16.0241077 51.0857451,15.7054554 C50.3492394,15.1046485 48.2474677,15.7377418 45.2158392,18.5073495 C43.3738371,20.1820287 42.2417732,22.1430738 41.6026812,23.5327908 C41.1849836,24.6207005 40.8883149,25.3941693 40.8824111,25.4166294 C40.7466225,25.7717793 40.3953432,25.99638 40.0130687,25.99638" id="Fill-14"></path>
                    <path d="M3.63426433,29.0221729 C1.62990623,29.0221729 0.989338172,28.3904834 0.700049373,28.1041174 C-0.0925428963,27.3250337 -0.210619957,26.1837812 0.338438375,24.7084352 C0.50817415,24.252215 1.036569,24.0135767 1.51773302,24.1736047 C1.99889704,24.3392477 2.24833483,24.8403881 2.07859906,25.2980121 C1.91329117,25.744406 1.68451687,26.5445461 2.03136823,26.8870622 C2.22176749,27.0737616 3.46600452,27.9286481 9.18683811,26.2160676 C12.9180732,25.098679 15.4508262,23.3131032 15.9615095,21.4447059 C16.4456254,19.6745714 13.0745253,16.3743445 10.8428689,14.1872949 C9.98828615,13.3506572 9.18093425,12.5589396 8.6244961,11.9061937 C7.5883699,10.6975611 7.18395596,9.30503656 7.46143706,7.87601443 C7.8171442,6.02165468 9.26063627,4.31188164 11.5247639,3.0625401 C14.9283352,1.18150901 18.8883446,0.137115625 20.5768466,0.667734843 C20.8661354,0.744941343 22.0897089,1.14080012 22.4823151,2.36487409 C22.8778733,3.59877433 22.2550168,5.05727531 20.5768466,6.82460228 C20.2358991,7.18115593 19.6499416,7.20923102 19.2706191,6.88496372 C18.8912965,6.55788892 18.8632532,6.00200212 19.2056767,5.64264095 C20.8587555,3.90619658 20.7805295,3.09482645 20.7170631,2.88566702 C20.598986,2.50384579 20.0750191,2.36066282 20.0720671,2.35925907 C20.0440238,2.35083654 20.0277882,2.34802903 19.998269,2.33960651 C19.2661912,2.0897382 15.9349421,2.65966254 12.4531448,4.58280627 C10.6908447,5.55701192 9.53368947,6.87232993 9.28129975,8.19326296 C9.10123224,9.11272219 9.36690562,9.98726127 10.0576564,10.7972276 C10.5639118,11.3896121 11.3461724,12.156062 12.1697598,12.9632209 C15.13497,15.8689928 18.4927864,19.1607972 17.748901,21.8854848 C16.783621,25.4313688 11.8273364,27.2688835 9.74180029,27.8935543 C6.90352295,28.7428258 4.96705915,29.0221729 3.63426433,29.0221729" id="Fill-16"></path>
                    <path d="M35.078038,13.3993674 C34.955533,13.3993674 31.7571206,13.4737664 29.9726811,19.8369858 C29.4974209,21.522895 29.5830268,22.9336683 30.2073592,23.7071371 C30.4863163,24.0538644 30.859735,24.2377563 31.2803845,24.2377563 C31.6656109,24.2377563 32.0611691,24.0861508 32.4316359,23.7983811 C33.9061231,22.6346686 36.8506698,16.3949796 36.0226545,14.0577283 C35.8602985,13.6029119 35.5961011,13.4176163 35.078038,13.3993674 M31.2803845,25.9966607 L31.2789086,25.9966607 C30.2767295,25.9966607 29.3749159,25.5614968 28.7417277,24.7782018 C27.7528323,23.5499166 27.5521013,21.6365991 28.1867655,19.3835731 C29.05168,16.2939093 30.375619,14.0703621 32.1172557,12.7732929 C33.5282766,11.7232845 34.7503741,11.640463 35.0913216,11.640463 C35.1356005,11.640463 35.156264,11.6418668 35.156264,11.6418668 C36.4374001,11.6924019 37.3643051,12.349359 37.770195,13.4948228 C38.9052107,16.6855568 35.5961011,23.5864142 33.6109305,25.1501967 C32.906896,25.7018723 32.1010201,25.9966607 31.2803845,25.9966607" id="Fill-19"></path>
                </g>
            </g>
        </g>
    </g>
</svg>