<?xml version="1.0" encoding="utf-8"?>
<!-- Generator: Adobe Illustrator 24.0.0, SVG Export Plug-In . SVG Version: 6.00 Build 0)  -->
<svg version="1.1" id="Layer_1" xmlns="http://www.w3.org/2000/svg" xmlns:xlink="http://www.w3.org/1999/xlink" x="0px" y="0px"
	 viewBox="0 0 118 60" style="enable-background:new 0 0 118 60;" xml:space="preserve">
<style type="text/css">
	.st0{fill-rule:evenodd;clip-rule:evenodd;fill:#FFFFFF;}
</style>
<title>logo/space/ST</title>
<desc>Created with Sketch.</desc>
<g id="logo_x2F_space_x2F_ST">
	<g id="logo_x2F_space_x2F_DL" transform="translate(13.000000, 11.000000)">
		<g id="St" transform="translate(0.307080, 0.000000)">
			<g id="logo_storage">
				<path id="Fill-1" class="st0" d="M26.2,17c-3.6,0-6.2-1.2-6.3-1.3c-0.5-0.2-0.6-0.7-0.4-1.2c0.2-0.4,0.8-0.6,1.2-0.4
					c0,0,2.5,1.2,5.9,1.1c2.7-0.1,3.7-0.8,3.7-0.8l0,0l1.2,1.3c-0.1,0.1-1.4,1.1-4.8,1.2C26.5,17,26.4,17,26.2,17"/>
				<path id="Fill-3" class="st0" d="M20.7,27.2c-0.1,0-0.2,0-0.2,0c-0.5-0.1-0.8-0.6-0.7-1.1c0,0,0.4-1.6,1.7-5.8
					c1.2-4.2,5.9-13.9,6.1-14.4c0.2-0.4,0.8-0.6,1.2-0.4c0.5,0.2,0.7,0.7,0.5,1.2c0,0.1-4.8,10.1-6,14.1c-1.2,4.1-1.7,5.7-1.7,5.7
					C21.5,27,21.1,27.2,20.7,27.2"/>
				<path id="Fill-5" class="st0" d="M39.4,15.9c-1,0-2-0.2-2.9-0.9c-0.4-0.3-0.5-0.8-0.2-1.2c0.3-0.4,0.9-0.5,1.3-0.2
					c1.3,0.9,3,0.5,4.7,0c0.1,0,0.3-0.1,0.4-0.1c0.5-0.1,1,0.1,1.1,0.6c0.1,0.5-0.1,1-0.6,1.1l-0.4,0.1
					C41.8,15.5,40.6,15.9,39.4,15.9"/>
				<path id="Fill-7" class="st0" d="M60.3,13.7c-0.2,0-0.3,0-0.6,0.1c-1.4,0.3-2.4,0.9-3.7,1.8c-1.9,1.4-4,3.1-5.2,5.3
					c-0.6,1-0.9,2.6-0.4,3.1c0.4,0.3,0.9,0.3,1.6,0c2.2-1.2,7.4-6.4,8.2-7.3c0.3-0.3,0.8-0.9,1.4-1.4c0-0.4-0.2-1.1-0.6-1.4
					C60.9,13.9,60.7,13.7,60.3,13.7 M59.8,27.4c-0.4,0-0.7-0.2-0.9-0.6c-0.8-1.9-0.9-3.9-0.4-5.9c-1.9,1.8-4.2,3.8-5.6,4.6
					c-1.4,0.7-2.8,0.7-3.8-0.2c-1.6-1.5-0.5-4.2,0-5.2c1.5-2.5,3.7-4.4,5.7-5.8c1.4-1.1,2.7-1.8,4.4-2.2c1.4-0.3,2.3,0.1,2.8,0.5
					c0.5,0.4,0.8,0.8,0.9,1.3c0.1-0.1,0.2-0.1,0.2-0.1c0.4-0.3,1-0.2,1.3,0.1c0.3,0.4,0.3,0.9-0.1,1.2c0,0-0.4,0.4-0.9,0.8
					c-0.6,0.6-1.3,1.4-2,2.5c-1.6,2.6-1.9,5.2-0.9,7.8c0.2,0.5-0.1,1-0.5,1.1C60.1,27.4,59.9,27.4,59.8,27.4"/>
				<path id="Fill-9" class="st0" d="M64.9,22.5c0.6,0.5,2.4-0.8,3.4-1.6c0.2-0.1,0.3-0.2,0.5-0.4C70.9,19,73,16,74,14.5
					c0-0.2,0-0.6-0.1-0.8c0-0.1-0.1-0.2-0.6-0.3c-1.4-0.2-4.6,2.4-6.2,4.3c-0.6,0.7-1.3,1.8-1.7,2.8C64.9,21.8,64.9,22.4,64.9,22.5
					 M65.9,30.5c-2.1,2.3-2.5,3.7-2.4,4.5c0,0.2,0,0.3,0.1,0.4C64.1,34.3,64.9,32.5,65.9,30.5 M63.8,37.9c-0.1,0-0.3,0-0.4-0.1
					c-0.6-0.3-1.6-1.1-1.7-2.6c-0.2-2.4,2-5.5,6.5-9.1c0.7-1.3,1.5-2.9,2.2-4.4c-0.1,0.1-0.3,0.2-0.4,0.3c-0.1,0.1-0.3,0.2-0.5,0.3
					c-1.6,1.2-4.1,3.1-5.9,1.4c-1.8-1.6,1.2-6,2.1-7.1c1.2-1.4,5.1-5.3,7.9-4.9c1.1,0.2,1.6,0.7,1.9,1.1c0.1,0.2,0.2,0.3,0.2,0.5
					c0,0,0,0,0,0c0.4,0.2,0.6,0.7,0.4,1.2c0,0.1-2.4,4.7-4.7,9.1c1-0.8,4.6-3.3,6-4.1c0.4-0.2,1-0.1,1.3,0.3c0.2,0.4,0.1,1-0.4,1.2
					c-1.5,0.8-6,4.1-6.1,4.1c-1,0.7-1.9,1.4-2.7,2c-0.5,1-0.9,1.8-1.3,2.5c-2.1,4.2-3.7,7.7-3.7,7.7c-0.1,0.2-0.3,0.4-0.5,0.5
					C64,37.9,63.9,37.9,63.8,37.9"/>
				<path id="Fill-11" class="st0" d="M85.5,12.1c-0.5,0-1.3,0.3-2.5,1.4c-1.9,1.9-3.5,4.7-4,7c0.8-0.5,2-1.4,3.2-2.3
					c2.6-2.1,4.2-3.9,4.3-5c0-0.3-0.1-0.6-0.4-0.8C86.1,12.2,85.9,12.1,85.5,12.1 M81.5,26c-1.2,0-2.4-0.3-3.5-1.4
					c-2.5-2.6,0.5-9.2,3.8-12.3c3-2.9,5-1.8,5.7-1.2c0.7,0.6,1.1,1.4,1,2.3c-0.3,3.7-8.3,8.7-9.5,9.4c0.1,0.3,0.2,0.6,0.4,0.8
					c1,1,2.4,1.1,4.6,0.3c1-0.4,2.8-1.7,5.2-4c0.1-0.1,0.2-0.2,0.2-0.2c0.4-0.3,1-0.3,1.3,0c0.4,0.3,0.3,0.9,0,1.2
					c0,0-0.1,0.1-0.2,0.2c-1.7,1.6-4.1,3.8-5.8,4.4C84.1,25.5,82.8,26,81.5,26"/>
				<path id="Fill-14" class="st0" d="M40,26c-0.1,0-0.2,0-0.3,0c-0.5-0.1-0.7-0.6-0.6-1.1c0-0.1,0.2-0.9,0.8-2.1
					c0.6-1.7,1.6-4.1,2.2-5.7c0.9-2.2,0-3.9,0-3.9c-0.2-0.4,0-1,0.4-1.2c0.5-0.2,1,0,1.2,0.4c0,0.1,1,2.1,0.3,4.6
					c4.8-4.3,7.2-3.6,8.2-2.7c0.4,0.3,0.4,0.9,0.1,1.2c-0.3,0.4-0.9,0.4-1.3,0.1c-0.7-0.6-2.8,0-5.9,2.8c-1.8,1.7-3,3.6-3.6,5
					c-0.4,1.1-0.7,1.9-0.7,1.9C40.7,25.8,40.4,26,40,26"/>
				<path id="Fill-16" class="st0" d="M3.6,29c-2,0-2.6-0.6-2.9-0.9c-0.8-0.8-0.9-1.9-0.4-3.4C0.5,24.3,1,24,1.5,24.2
					c0.5,0.2,0.7,0.7,0.6,1.1c-0.2,0.4-0.4,1.2,0,1.6c0.2,0.2,1.4,1,7.2-0.7c3.7-1.1,6.3-2.9,6.8-4.8c0.5-1.8-2.9-5.1-5.1-7.3
					c-0.9-0.8-1.7-1.6-2.2-2.3c-1-1.2-1.4-2.6-1.2-4C7.8,6,9.3,4.3,11.5,3.1c3.4-1.9,7.4-2.9,9.1-2.4c0.3,0.1,1.5,0.5,1.9,1.7
					c0.4,1.2-0.2,2.7-1.9,4.5c-0.3,0.4-0.9,0.4-1.3,0.1c-0.4-0.3-0.4-0.9-0.1-1.2c1.7-1.7,1.6-2.5,1.5-2.8c-0.1-0.4-0.6-0.5-0.6-0.5
					c0,0,0,0-0.1,0c-0.7-0.2-4.1,0.3-7.5,2.2c-1.8,1-2.9,2.3-3.2,3.6c-0.2,0.9,0.1,1.8,0.8,2.6c0.5,0.6,1.3,1.4,2.1,2.2
					c3,2.9,6.3,6.2,5.6,8.9c-1,3.5-5.9,5.4-8,6C6.9,28.7,5,29,3.6,29"/>
				<path id="Fill-19" class="st0" d="M35.1,13.4c-0.1,0-3.3,0.1-5.1,6.4c-0.5,1.7-0.4,3.1,0.2,3.9c0.3,0.3,0.7,0.5,1.1,0.5
					c0.4,0,0.8-0.2,1.2-0.4c1.5-1.2,4.4-7.4,3.6-9.7C35.9,13.6,35.6,13.4,35.1,13.4 M31.3,26L31.3,26c-1,0-1.9-0.4-2.5-1.2
					c-1-1.2-1.2-3.1-0.6-5.4c0.9-3.1,2.2-5.3,3.9-6.6c1.4-1.1,2.6-1.1,3-1.1c0,0,0.1,0,0.1,0c1.3,0.1,2.2,0.7,2.6,1.9
					c1.1,3.2-2.2,10.1-4.2,11.7C32.9,25.7,32.1,26,31.3,26"/>
			</g>
		</g>
	</g>
</g>
</svg>
