<?xml version="1.0" encoding="UTF-8"?>
<svg width="118px" height="60px" viewBox="0 0 118 60" version="1.1" xmlns="http://www.w3.org/2000/svg" xmlns:xlink="http://www.w3.org/1999/xlink">
    <!-- Generator: Sketch 55.1 (78136) - https://sketchapp.com -->
    <title>logo/space/UN</title>
    <desc>Created with Sketch.</desc>
    <defs>
        <polygon id="path-1" points="0 0.3663 7.76192669 0.3663 7.76192669 9.324 0 9.324"></polygon>
        <polygon id="path-3" points="0 0.251748 84.0161252 0.251748 84.0161252 25.21143 0 25.21143"></polygon>
    </defs>
    <g id="logo/space/UN" stroke="none" stroke-width="1" fill="none" fill-rule="evenodd">
        <g transform="translate(16.000000, 11.000000)" id="Group-25">
            <g>
                <g id="Group-3" transform="translate(0.000000, 27.306000)">
                    <mask id="mask-2" fill="white">
                        <use xlink:href="#path-1"></use>
                    </mask>
                    <g id="Clip-2"></g>
                    <path d="M3.89976862,9.324 C6.24402442,9.324 7.76192669,7.929396 7.76192669,5.772888 L7.76192669,0.3663 L5.30982703,0.3663 L5.30982703,5.605056 C5.30982703,6.092568 5.253209,7.223436 3.88628813,7.223436 L3.87280765,7.223436 C2.50588679,7.223436 2.44792071,6.092568 2.44792071,5.605056 L2.44792071,0.3663 L-0.000134804819,0.3663 L-0.000134804819,5.772888 C-0.000134804819,7.929396 1.51641941,9.324 3.86202327,9.324 L3.89976862,9.324 Z" id="Fill-1" fill="#000000" mask="url(#mask-2)"></path>
                </g>
                <path d="M21.2832919,29.9594286 L22.2461373,29.9594286 C23.5369387,29.9594286 25.0814155,30.3611429 25.0814155,32.2798571 C25.0814155,34.3175 23.2706496,34.6214286 22.194281,34.6214286 L21.2832919,34.6214286 L21.2832919,29.9594286 Z M22.2951905,27.972 L18.8726747,27.972 L18.8726747,36.63 L22.4003047,36.63 C25.0043318,36.63 27.634988,35.2861071 27.634988,32.2798571 C27.634988,28.3922143 23.9027358,27.972 22.2951905,27.972 L22.2951905,27.972 Z" id="Fill-4" fill="#000000"></path>
                <path d="M38.0138955,29.8616429 L38.9950193,29.8616429 C39.8325641,29.8616429 40.2579836,30.1365 40.2579836,30.673 C40.2579836,31.2676429 39.7940104,31.57025 38.8727112,31.57025 L38.0138955,31.57025 L38.0138955,29.8616429 Z M40.8469238,32.9775714 C41.9463674,32.5917143 42.5712024,31.746 42.5712024,30.6399643 C42.5712024,28.94325 41.320203,27.972 39.1385984,27.972 L35.7232771,27.972 L35.7232771,36.63 L38.0205427,36.63 L38.0205427,33.2933929 L38.5310461,33.2933929 L40.3949155,36.63 L43.1375422,36.63 L40.8469238,32.9775714 Z" id="Fill-6" fill="#000000"></path>
                <polygon id="Fill-8" fill="#000000" points="51.8998554 27.972 51.8998554 29.9594286 54.4031605 29.9594286 54.4031605 36.63 56.8108154 36.63 56.8108154 29.9594286 59.3141205 29.9594286 59.3141205 27.972"></polygon>
                <path d="M63.938597,33.1017857 L62.0409815,33.1017857 L62.9988788,30.7020714 L63.938597,33.1017857 Z M64.193104,27.972 L61.8871585,27.972 L57.9660723,36.63 L60.6439896,36.63 L61.3110217,34.9821786 L64.6433857,34.9821786 L65.346776,36.63 L68.0764337,36.63 L64.193104,27.972 Z" id="Fill-10" fill="#000000"></path>
                <polygon id="Fill-12" fill="#000000" points="80.4463681 34.6452143 80.4463681 33.152 84.253012 33.152 84.253012 31.2716071 80.4463681 31.2716071 80.4463681 29.9475357 84.2291293 29.9475357 84.2291293 27.972 78.1867952 27.972 78.1867952 36.63 84.253012 36.63 84.253012 34.6452143"></polygon>
                <polygon id="Fill-14" fill="#000000" points="30.5689232 34.6452143 30.5689232 33.152 34.3752289 33.152 34.3752289 31.2716071 30.5689232 31.2716071 30.5689232 29.9475357 34.3487041 29.9475357 34.3487041 27.972 28.309012 27.972 28.309012 36.63 34.3752289 36.63 34.3752289 34.6452143"></polygon>
                <path d="M48.0476957,30.9079 C47.1517245,30.6381303 46.7570541,30.4673213 46.7570541,30.0186089 C46.7570541,29.3570631 47.5436253,29.2825036 47.8801338,29.2825036 C48.616852,29.2825036 49.2774057,29.6064984 49.6914634,29.8708456 L51.0568847,28.4894621 L50.9585633,28.4027019 C50.1913793,27.7248886 49.0295249,27.306 47.9202933,27.306 C46.1241966,27.306 44.3087125,28.1817348 44.3087125,30.1406153 C44.3087125,31.7782123 45.5190352,32.3706211 46.7265883,32.7461297 C47.9382958,33.1202826 48.7636417,33.3087147 48.7636417,33.8441873 C48.7636417,34.5477575 47.7762732,34.6507851 47.3608306,34.6507851 C47.2735877,34.6507851 47.1877295,34.644007 47.0935626,34.633162 C46.554872,34.633162 45.6741338,34.1315801 45.2379191,33.8590992 L43.8115663,35.2553946 L43.900194,35.3462216 C44.6867653,36.1365519 46.0120271,36.63 47.3608306,36.63 C49.3355676,36.63 51.2258313,35.8410253 51.2258313,33.6245757 C51.2258313,31.7999023 49.2690968,31.2834085 48.0476957,30.9079" id="Fill-16" fill="#000000"></path>
                <path d="M72.8276418,31.0648475 L72.8276418,33.0024955 L74.5596781,33.0024955 L74.5596781,34.3565472 C74.2183075,34.4784119 73.7929932,34.5434063 73.3187118,34.5434063 C71.691605,34.5434063 70.6814836,33.5535945 70.6814836,31.9598757 C70.6814836,30.474481 71.7447693,29.402072 73.2151814,29.402072 C74.0895939,29.402072 74.8338939,29.7040256 75.4033114,30.1115951 L76.8261554,28.5720383 L76.7352165,28.485379 C75.9377523,27.7568992 74.5652744,27.306 73.1410312,27.306 C70.1596342,27.306 68.0764337,29.2206291 68.0764337,31.9598757 C68.0764337,34.7072466 70.1890144,36.63 73.2025899,36.63 C74.5177063,36.63 75.7810576,36.3591897 76.7645968,35.871731 L76.838747,35.8365257 L76.838747,31.0648475 L72.8276418,31.0648475 Z" id="Fill-18" fill="#000000"></path>
                <polygon id="Fill-20" fill="#000000" points="15.2521582 27.972 15.2521582 33.12425 12.007291 27.972 9.43633735 27.972 9.43633735 36.63 11.7101323 36.63 11.7061525 36.4066786 11.7061525 31.4632143 14.9682655 36.63 17.5246265 36.63 17.5246265 27.972"></polygon>
                <g id="Group-24">
                    <mask id="mask-4" fill="white">
                        <use xlink:href="#path-3"></use>
                    </mask>
                    <g id="Clip-23"></g>
                    <path d="M0,0.251082 L0,25.21143 L2.49301945,25.21143 L2.49301945,2.588742 L81.521736,2.588742 L81.521736,25.21143 L84.0161252,25.21143 L84.0161252,0.251082 L0,0.251082 Z M4.98877848,25.21143 L7.48316772,25.21143 L7.48316772,7.470522 L76.5302179,7.470522 L76.5302179,25.21143 L79.0246071,25.21143 L79.0246071,5.134194 L4.98877848,5.134194 L4.98877848,25.21143 Z M9.98166633,25.21143 L12.4719462,25.21143 L12.4719462,12.353634 L71.544179,12.353634 L71.544179,25.21143 L74.0330891,25.21143 L74.0330891,10.015974 L9.98166633,10.015974 L9.98166633,25.21143 Z M14.9745542,25.21143 L17.464834,25.21143 L17.464834,17.235414 L66.5512911,17.235414 L66.5512911,25.21143 L69.0443106,25.21143 L69.0443106,14.896422 L14.9745542,14.896422 L14.9745542,25.21143 Z" id="Fill-22" fill="#000000" mask="url(#mask-4)"></path>
                </g>
            </g>
        </g>
    </g>
</svg>