<?xml version="1.0" encoding="UTF-8"?>
<svg width="118px" height="60px" viewBox="0 0 118 60" version="1.1" xmlns="http://www.w3.org/2000/svg" xmlns:xlink="http://www.w3.org/1999/xlink">
    <!-- Generator: Sketch 55.1 (78136) - https://sketchapp.com -->
    <title>logo/space/VN</title>
    <desc>Created with Sketch.</desc>
    <g id="logo/space/VN" stroke="none" stroke-width="1" fill="none" fill-rule="evenodd">
        <g id="logo/space/DL" transform="translate(21.000000, 7.000000)" fill="#000000">
            <g id="Group-27">
                <g id="Group" transform="translate(0.000000, 23.816966)">
                    <path d="M59.9214116,17.7233076 L57.5793215,17.6667798 L57.9325369,2.98436134 L60.27191,3.03819733 L59.9214116,17.7233076 Z M55.6488632,0.610194492 L55.1856075,19.9278911 L62.2037268,20.0947826 L62.665624,0.778431939 L55.6488632,0.610194492 Z" id="Fill-6"></path>
                    <path d="M10.2893424,7.94400128 C10.2526623,9.61022495 9.81521854,12.2441504 7.07508175,12.1782013 L5.33753343,12.1351326 L5.18945464,18.1136185 L2.85008153,18.0597825 L3.21688219,3.37601812 L7.42965572,3.47830649 C9.56525068,3.52945067 10.3572684,5.25758573 10.2893424,7.94400128 L10.2893424,7.94400128 Z M0.933208442,1.00185127 L0.45365054,20.318202 L12.3203312,20.6062245 L12.7985306,1.28987378 L0.933208442,1.00185127 Z" id="Fill-7"></path>
                    <path d="M6.6736388,5.71828715 L5.49987668,5.68867736 L5.39391205,9.87980864 L6.68994105,9.91076433 C7.38957935,9.92691512 7.89766619,8.94306253 7.91940253,7.96728534 C7.95200703,6.76808882 7.72649255,5.74385924 6.6736388,5.71828715" id="Fill-9"></path>
                    <path d="M19.7139457,17.0443013 L13.8668715,17.0443013 L13.8668715,2.35784509 L16.2116787,2.35784509 L16.2116787,14.6028394 L19.7139457,14.6028394 L19.7139457,17.0443013 Z M11.5261398,19.3632862 L22.0478848,19.3632862 L22.0478848,0.0388601221 L11.5261398,0.0388601221 L11.5261398,19.3632862 Z" id="Fill-11"></path>
                    <path d="M30.1598852,18.6538626 L29.4874173,15.4075528 L26.3003271,15.4560052 L25.7120875,18.7184657 L23.4026019,18.7521132 L26.2840248,4.02258828 L29.369226,3.97817359 L32.6215252,18.6175233 L30.1598852,18.6538626 Z M34.7095719,1.57978055 L20.8091853,1.78301138 L21.0958333,21.1033998 L34.9975783,20.9028607 L34.7095719,1.57978055 Z" id="Fill-13"></path>
                    <polygon id="Fill-15" points="27.707619 6.82946184 26.7294839 13.1901832 28.9601753 13.1578816 27.7347894 6.82946184"></polygon>
                    <path d="M38.845589,17.4930242 C35.9505808,17.4445718 35.4438525,15.2009572 35.6109506,12.6585529 L37.9462481,12.697584 C37.9231533,14.1000113 37.9516822,15.2817112 39.2354845,15.3005538 C40.0261437,15.3140128 40.4282659,14.6518302 40.4432096,13.6531727 C40.4853238,11.0098259 35.7821242,10.7716017 35.8514088,6.39742808 C35.8921644,4.0972857 36.7575423,2.28032127 39.6050022,2.32877366 C41.8846004,2.36511295 42.994512,3.72581742 42.7893754,6.79446845 L40.5138527,6.75678326 C40.530155,5.65852921 40.4078881,4.53604896 39.4650746,4.52258997 C38.7056613,4.51047687 38.2464812,5.0515285 38.230179,6.06902858 C38.1826308,8.8550407 42.898057,8.68949505 42.8206213,13.3045847 C42.7554123,17.1107887 40.6279685,17.522634 38.845589,17.4930242 L38.845589,17.4930242 Z M33.4576948,0.153799946 L33.1398009,19.4714966 L45.0540298,19.6679979 L45.3746408,0.347609485 L33.4576948,0.153799946 Z" id="Fill-17"></path>
                    <path d="M54.030593,6.28625677 L51.4263083,6.2014651 L51.0146764,18.4410758 L48.6807374,18.3643596 L49.0855766,6.12340292 L46.4880846,6.04130305 L46.5682373,3.60253302 L54.1107457,3.84748674 L54.030593,6.28625677 Z M44.3062999,1.20683177 L43.6610024,20.5204907 L55.8822571,20.918877 L56.5248375,1.60656395 L44.3062999,1.20683177 Z" id="Fill-19"></path>
                    <path d="M68.1073156,19.1176596 C64.2477575,19.044981 64.3197591,15.3047261 64.3917607,11.459491 C64.4637623,7.57522479 64.5303298,3.87265506 68.3871709,3.94533364 C70.7754507,3.98974833 71.7033206,5.73538007 71.5498077,8.88343918 L69.2579828,8.84306219 C69.2973799,6.89016191 69.0474121,6.15395484 68.3491323,6.14049585 C67.031367,6.11626965 66.8316644,7.74077044 66.7637383,11.5012139 C66.6917367,15.2670409 66.8303058,16.8955794 68.1494297,16.9198055 C69.2321709,16.939994 69.2226613,15.1082247 69.268851,13.9494052 L71.5824122,13.992474 C71.5090521,17.9171171 70.2918173,19.1566906 68.1073156,19.1176596 L68.1073156,19.1176596 Z M62.2303538,1.75555503 L61.8703458,21.0772893 L73.7859332,21.2953251 L74.1472998,1.97493666 L62.2303538,1.75555503 Z" id="Fill-21"></path>
                </g>
                <path d="M0,2.53482725 L0.542049867,21.8498321 L13.672155,21.4904769 L13.1355393,2.17547206 L0,2.53482725 Z M6.89856948,15.3477912 L8.55732359,4.61962569 L10.8613752,4.55502251 L8.30871425,19.3168491 L5.57537006,19.3935653 L2.40865768,4.78651724 L4.83769317,4.72056816 L6.87411611,15.3491371 L6.89856948,15.3477912 Z" id="Fill-1"></path>
                <path d="M12.7878937,0.364160412 L12.3287136,19.6805111 L19.3454745,19.8487486 L19.8046545,0.52836016 L12.7878937,0.364160412 Z M14.7169935,17.4193998 L15.0688504,2.73698136 L17.4150162,2.79216325 L17.0631592,17.4732358 L14.7169935,17.4193998 Z" id="Fill-2"></path>
                <path d="M28.076417,19.1718957 L25.254769,19.0844122 L22.2660228,8.76540015 L22.2388524,8.76270835 L21.9114489,18.9821238 L19.7269471,18.9134829 L20.1929198,4.23241038 L23.3541981,4.33200695 L26.0087481,14.5891076 L26.0332015,14.5917994 L26.3619636,4.42487402 L28.5451068,4.4908231 L28.076417,19.1718957 Z M17.9309824,1.84613043 L17.3237236,21.1570975 L30.3410715,21.5622133 L30.9524059,2.24720851 L17.9309824,1.84613043 Z" id="Fill-3"></path>
                <path d="M37.7785662,13.1056571 L37.7785662,18.1918116 L35.433759,18.1918116 L35.433759,13.1056571 L32.5102219,3.50400953 L35.0655999,3.50400953 L36.7365806,9.70726067 L38.5176016,3.50400953 L40.90724,3.50400953 L37.7785662,13.1056571 Z M30.1654147,20.5081048 L43.2438961,20.5081048 L43.2438961,1.18502456 L30.1654147,1.18502456 L30.1654147,20.5081048 Z" id="Fill-4"></path>
                <path d="M49.8243,19.9735135 L44.0003206,19.5791649 L45.0015505,4.9263562 L47.3422822,5.08517235 L46.4959236,17.3019028 L49.991398,17.5387811 L49.8243,19.9735135 Z M42.827917,2.45932228 L41.5020005,21.735296 L52.0020005,22.4432392 L53.326567,3.16591956 L42.827917,2.45932228 Z" id="Fill-5"></path>
                <path d="M60.3604452,14.5464426 C60.3604452,15.9542536 61.0003086,16.8115916 62.0748987,16.8115916 C62.7392154,16.8115916 63.3831544,16.5276068 63.7825595,15.8331226 L61.4948102,12.1588168 C60.9405336,12.7294782 60.3604452,13.5679736 60.3604452,14.5464426 L60.3604452,14.5464426 Z M63.066619,6.89365761 C63.066619,6.11707356 62.7106865,5.62716611 62.1020691,5.62716611 C61.6034919,5.62716611 61.123934,6.09688506 61.123934,6.79136924 C61.123934,7.62851878 61.5477925,8.30146857 61.9471977,8.91385287 C62.4933231,8.46297652 63.066619,7.81156112 63.066619,6.89365761 L63.066619,6.89365761 Z M65.8366432,18.7712214 L65.1546657,17.6083641 C64.2675515,18.749687 63.2255659,19.017521 62.0232749,19.017521 C59.4475191,19.017521 58.015638,17.4253218 58.015638,14.5464426 C58.015638,12.5868128 59.0549065,11.3405098 60.2245931,10.3418523 C59.6336365,9.34184894 58.9801879,8.17899171 58.9801879,6.64735799 C58.9801879,5.0134359 60.4541831,3.79001319 62.3669807,3.79001319 C63.4388537,3.79001319 65.2144406,4.44412038 65.2144406,6.66620058 C65.2144406,8.58814518 64.2050595,9.56661417 63.3057187,10.6285289 L65.0622863,13.6487276 C65.2619889,12.6904471 65.30682,12.1372824 65.30682,10.7106288 L67.2019568,10.7106288 C67.2019568,12.2409166 67.2019568,14.1588235 66.4439021,15.7510227 L68.1406948,18.7712214 L65.8366432,18.7712214 Z M55.6694723,21.0969358 L70.485502,21.0969358 L70.485502,1.70925245 L55.6694723,1.70925245 L55.6694723,21.0969358 Z" id="Fill-24"></path>
            </g>
        </g>
    </g>
</svg>