<svg id="Layer_1" data-name="Layer 1" xmlns="http://www.w3.org/2000/svg" viewBox="0 0 204 40"><defs><style>.cls-1{fill:#e5e4e4;}</style></defs><title>hyundai_ci</title><path class="cls-1" d="M8293.5,1012.32V983.26a11,11,0,0,0-10.94-10.93H8100.45a11,11,0,0,0-10.94,10.93v29.06h3v-29a8.58,8.58,0,0,1,8-8h182a8.59,8.59,0,0,1,8,8v29ZM8122.78,985.9H8120c-.31,0-.43.16-.43.45v7.16c0,.34-.22.5-.57.5h-7.2a.45.45,0,0,1-.51-.5v-7.16a.42.42,0,0,0-.47-.45h-2.8c-.27,0-.38.16-.38.45v18.51c0,.29.11.39.38.39h2.8c.29,0,.47-.1.47-.42v-7.45a.46.46,0,0,1,.51-.52h7.2a.5.5,0,0,1,.57.52v7.45c0,.32.12.42.43.42h2.75c.32,0,.51-.1.51-.39V986.35C8123.29,986.06,8123.1,985.9,8122.78,985.9Zm16.56,4.6h-2.65c-.32,0-.46.15-.46.48v11.13c0,.32-.21.47-.52.47h-4.83c-.37,0-.5-.15-.5-.47V991a.42.42,0,0,0-.46-.48h-2.63c-.32,0-.45.15-.45.48v11.53a3,3,0,0,0,3.08,3,2.83,2.83,0,0,0,.77-.07l5.07-1.42c.3-.06.47.07.47.38v7.43a.41.41,0,0,0,.46.47h.34a.77.77,0,0,0,.66-.42l1.79-2.92a2.84,2.84,0,0,0,.32-1.21V991A.42.42,0,0,0,8139.34,990.5Zm16.51,0h-2.64c-.31,0-.42.15-.42.48v11.13c0,.32-.21.45-.53.45h-4.83c-.37,0-.53-.13-.53-.45V991a.42.42,0,0,0-.43-.48h-2.66c-.32,0-.45.15-.45.48v11.5a3,3,0,0,0,3,3,3.17,3.17,0,0,0,.81-.07l5.07-1.36c.3-.11.51,0,.51.36v.41c0,.32.11.43.42.43h2.64c.29,0,.47-.11.47-.39V991A.43.43,0,0,0,8155.85,990.5Zm13.9-.25a3.38,3.38,0,0,0-.76.14l-5,1.36c-.39.11-.54,0-.54-.31V991c0-.33-.18-.48-.42-.48h-2.66c-.32,0-.45.15-.45.48v13.9c0,.28.13.39.45.39H8163a.38.38,0,0,0,.42-.43V993.73c0-.34.17-.52.54-.52h4.83a.48.48,0,0,1,.53.52v11.11c0,.32.1.43.41.43h2.65c.29,0,.48-.11.48-.39V993.34A3.11,3.11,0,0,0,8169.75,990.25Zm18.65-6.18h-2.69c-.26,0-.39.22-.39.51V990c0,.31-.16.45-.5.45h-2.43a3.22,3.22,0,0,0-1.85.52l-2.8,1.64a3.39,3.39,0,0,0-1.88,3.19v6.64a3.11,3.11,0,0,0,3.06,3,2.82,2.82,0,0,0,.8-.08l5.1-1.37c.34-.1.5,0,.5.38v.41c0,.32.13.42.39.42h2.69c.33,0,.45-.1.45-.4V984.58C8188.85,984.29,8188.73,984.07,8188.4,984.07Zm-3.08,18c0,.32-.16.46-.54.46h-4.87c-.39,0-.51-.14-.51-.46v-8.35c0-.37.12-.55.51-.55h4.87c.38,0,.54.18.54.55Zm19.11-11.59h-6.07a3.32,3.32,0,0,0-1.82.52l-2.81,1.63a3.41,3.41,0,0,0-1.86,3.19v6.64a3.05,3.05,0,0,0,3.07,3,3.1,3.1,0,0,0,.79-.07l5.07-1.36c.34-.11.54,0,.54.36v.41c0,.32.1.43.39.43h2.7c.28,0,.45-.11.45-.39V991C8204.88,990.65,8204.71,990.5,8204.43,990.5Zm-3.09,11.61c0,.32-.2.45-.54.45h-4.88c-.38,0-.5-.13-.5-.45v-8.35c0-.37.12-.55.5-.55h4.88a.49.49,0,0,1,.54.55Zm10.17-11.63h-2.64c-.35,0-.45.15-.45.5v13.87c0,.3.1.4.45.4h2.64c.27,0,.46-.1.46-.4V991C8212,990.63,8211.78,990.48,8211.51,990.48Zm0-6.41h-2.64c-.35,0-.45.22-.45.51v2.17c0,.3.1.41.45.41h2.64c.27,0,.46-.11.46-.41v-2.17A.47.47,0,0,0,8211.51,984.07Zm21.35,18.37h-9.42c-.32,0-.46-.16-.46-.49V989.24c0-.34.14-.52.46-.52h9.15q.48,0,.48-.42v-1.93a.42.42,0,0,0-.48-.47h-6.54a3.52,3.52,0,0,0-1.82.5l-3.09,1.71a3.68,3.68,0,0,0-1.93,3.37v10a3.75,3.75,0,0,0,3.86,3.79h5.7a3.67,3.67,0,0,0,1.87-.48l2.27-1.27a.7.7,0,0,0,.42-.67C8233.33,1002.58,8233.15,1002.44,8232.86,1002.44Zm15.3-11.94h-6a3.26,3.26,0,0,0-1.83.52l-2.82,1.63a3.42,3.42,0,0,0-1.85,3.19v6.64a3,3,0,0,0,3,3,3.1,3.1,0,0,0,.8-.07l5.08-1.36c.34-.11.52,0,.52.36v.41c0,.32.1.43.4.43h2.69c.3,0,.46-.11.46-.39V991C8248.62,990.65,8248.46,990.5,8248.16,990.5Zm-3.09,11.61c0,.32-.18.45-.52.45h-4.89c-.37,0-.51-.13-.51-.45v-8.35c0-.37.14-.55.51-.55h4.89c.34,0,.52.18.52.55Zm16.3-11.78h-1.56a4,4,0,0,0-1.83.45l-1.53,1a.66.66,0,0,1-.29.05c-.34,0-.48-.14-.48-.42V991a.43.43,0,0,0-.47-.48h-2.67c-.31,0-.42.15-.42.48v13.9c0,.28.11.39.42.39h2.67c.27,0,.47-.11.47-.43V993.73c0-.34.14-.52.48-.52h5.21c.28,0,.47-.14.47-.41v-2A.43.43,0,0,0,8261.37,990.33Zm13.54-6.26h-2.68c-.26,0-.41.22-.41.51V990c0,.31-.16.45-.49.45h-2.43a3.32,3.32,0,0,0-1.86.52l-2.8,1.64a3.38,3.38,0,0,0-1.87,3.19v6.64a3.11,3.11,0,0,0,3.06,3,2.69,2.69,0,0,0,.79-.08l5.11-1.37c.33-.1.49,0,.49.38v.41c0,.32.15.42.41.42h2.68c.32,0,.45-.1.45-.4V984.58C8275.36,984.29,8275.23,984.07,8274.91,984.07Zm-3.09,18c0,.32-.16.46-.53.46h-4.88c-.37,0-.5-.14-.5-.46v-8.35c0-.37.13-.55.5-.55h4.88c.37,0,.53.18.53.55Z" transform="translate(-8089.5 -972.33)"/></svg>