<?xml version="1.0" encoding="UTF-8"?>
<svg width="118px" height="60px" viewBox="0 0 118 60" version="1.1" xmlns="http://www.w3.org/2000/svg" xmlns:xlink="http://www.w3.org/1999/xlink">
    <!-- Generator: Sketch 55.1 (78136) - https://sketchapp.com -->
    <title>logo/space/SC_black</title>
    <desc>Created with Sketch.</desc>
    <g id="logo/space/SC_black" stroke="none" stroke-width="1" fill="none" fill-rule="evenodd">
        <g id="logo/space/SC_B" transform="translate(19.000000, 5.000000)" fill="#000000">
            <g id="Group-3">
                <path d="M37.2789272,19.7565291 C37.2789272,19.8802687 37.2361043,19.9638765 37.0252842,19.9638765 L33.9338048,19.9638765 C33.7295728,19.9638765 33.6982791,19.9020067 33.6982791,19.7565291 L33.6982791,14.3454307 C33.6982791,14.1380833 33.7542782,14.071197 33.9338048,14.071197 L37.0252842,14.071197 C37.2015167,14.071197 37.2789272,14.156477 37.2789272,14.3454307 L37.2789272,19.7565291 Z M37.6659798,11.9910343 C37.5457464,11.9910343 37.4139838,12.0177888 37.2772801,12.0462155 C37.2278692,12.0579206 37.1801052,12.0679535 37.1224591,12.0779864 L33.9107463,12.9659015 C33.8646294,12.9792788 33.8251006,12.9859674 33.795454,12.9859674 C33.7493371,12.9859674 33.6982791,12.9859674 33.6982791,12.842162 L33.6982791,12.5528789 C33.6982791,12.3003833 33.5566344,12.1432005 33.3276969,12.1432005 L31.6279596,12.1432005 C31.3841989,12.1432005 31.2606715,12.2819895 31.2606715,12.5528789 L31.2606715,25.610749 C31.2606715,25.9669184 31.4599624,26.0404933 31.6279596,26.0404933 L33.3276969,26.0404933 C33.5516933,26.0404933 33.6982791,25.8716055 33.6982791,25.610749 L33.6982791,22.1644345 C33.6982791,21.9370212 33.793807,21.891873 33.9338048,21.891873 L35.478721,21.891873 C35.9514192,21.891873 36.3401188,21.7915436 36.6645842,21.5892126 L38.4993781,20.5307376 C39.2948946,20.0391236 39.6984175,19.316752 39.6984175,18.3920494 L39.6984175,14.071197 C39.6984175,12.7853086 38.6443169,11.9910343 37.6659798,11.9910343 L37.6659798,11.9910343 Z M46.1053728,38.1418899 L41.613916,38.1418899 C41.4146251,38.1418899 41.3882726,38.046577 41.3882726,37.9412311 L41.3882726,32.6204291 C41.3882726,32.3796386 41.5167411,32.3512119 41.613916,32.3512119 L46.0724322,32.3512119 C46.2914875,32.3512119 46.4133679,32.234161 46.4133679,32.0184528 L46.4133679,30.8646648 C46.4133679,30.5335778 46.2272532,30.4633472 46.0724322,30.4633472 L43.1341267,30.4633472 C42.7190746,30.4633472 42.3353161,30.5753817 41.9927334,30.7944342 L40.1991153,31.8813359 C39.4101869,32.3478676 39.0116051,33.0535177 39.0116051,33.9748759 L39.0116051,37.6067998 C39.0116051,38.7722929 39.9075906,40.0314268 41.3520379,40.0314268 L43.7138821,40.0314268 C44.1783451,40.0314268 44.5604566,39.9344417 44.884922,39.7371272 L46.1761952,38.9696074 C46.3557217,38.8759666 46.4479555,38.7204561 46.4479555,38.5114365 C46.4479555,38.2756624 46.321134,38.1418899 46.1053728,38.1418899 L46.1053728,38.1418899 Z M70.2261596,38.1418899 L67.0276231,38.1418899 C66.8629198,38.1418899 66.81845,38.100086 66.81845,37.9412311 L66.81845,32.6371507 C66.81845,32.4130817 66.8925664,32.3696056 67.0276231,32.3696056 L69.886871,32.3696056 C70.2261596,32.3696056 70.2739236,32.1605861 70.2739236,32.0368465 L70.2739236,30.8797142 C70.2739236,30.6188578 70.140514,30.4800688 69.886871,30.4800688 L66.9452715,30.4800688 C66.8596258,30.4800688 66.81845,30.4650194 66.81845,30.3279025 L66.81845,28.5738104 C66.81845,28.366463 66.6603349,28.2393791 66.4412796,28.2912159 L64.7662478,28.7293209 C64.5488396,28.8212895 64.4582528,28.965095 64.4582528,29.2058855 L64.4582528,37.6569645 C64.4582528,38.8074082 65.3476502,40.0481483 66.7838623,40.0481483 L67.8676095,40.0481483 C68.3436018,40.0481483 68.7059489,39.9578519 69.0402964,39.7505045 L70.3150994,38.9679352 C70.5193314,38.8508843 70.6148592,38.7070788 70.6148592,38.5114365 C70.6148592,38.2739903 70.4765085,38.1418899 70.2261596,38.1418899 L70.2261596,38.1418899 Z M63.0220407,30.3780672 L62.066762,30.3780672 C61.6484159,30.3780672 61.2827747,30.4733802 60.9056043,30.6790554 L59.9799722,31.3094584 C59.9305613,31.3328686 59.8827973,31.3328686 59.8366804,31.3328686 C59.6588009,31.3328686 59.6291544,31.2760153 59.6291544,31.1472592 L59.6291544,30.8797142 C59.6291544,30.6372515 59.4825685,30.4800688 59.255278,30.4800688 L57.6247161,30.4800688 C57.3200152,30.4800688 57.2837805,30.7074821 57.2837805,30.8797142 L57.2837805,39.6986676 C57.2837805,39.9294252 57.3891905,40.0314268 57.6247161,40.0314268 L59.255278,40.0314268 C59.4924507,40.0314268 59.6291544,39.9043429 59.6291544,39.6802739 L59.6291544,32.6204291 C59.6291544,32.4114096 59.7049178,32.3696056 59.8366804,32.3696056 L63.0220407,32.3696056 C63.2526252,32.3696056 63.39427,32.2425217 63.39427,32.0368465 L63.39427,30.749286 C63.39427,30.5202005 63.2526252,30.3780672 63.0220407,30.3780672 L63.0220407,30.3780672 Z M24.8273636,37.9562805 C24.8273636,38.0917252 24.7894819,38.1602836 24.5836029,38.1602836 L21.6107097,38.1602836 C21.4064777,38.1602836 21.370243,38.0917252 21.370243,37.9562805 L21.370243,32.6371507 C21.370243,32.4548856 21.4361243,32.3863272 21.6107097,32.3863272 L24.5836029,32.3863272 C24.7565412,32.3863272 24.8273636,32.4582299 24.8273636,32.6371507 L24.8273636,37.9562805 Z M24.8438339,30.4800688 L23.1473908,30.4800688 C22.7405738,30.4800688 22.3502272,30.5904311 21.9895271,30.8094836 L20.2140264,31.8796638 C19.425098,32.3395068 19.0248691,33.0434847 19.0248691,33.9748759 L19.0248691,37.6402429 C19.0248691,38.7973753 19.9142665,40.0481483 21.3537727,40.0481483 L23.0518629,40.0481483 C23.5097379,40.0481483 23.877026,39.9545076 24.2047854,39.7521766 L26.0346382,38.6803243 C26.788979,38.1870381 27.1727375,37.4763716 27.1727375,36.5700628 L27.1727375,32.9381389 C27.1727375,31.2409 25.8106419,30.4800688 24.8438339,30.4800688 L24.8438339,30.4800688 Z M17.0385483,38.0766758 L11.2706415,38.0766758 C11.145467,38.0766758 11.0779387,38.0398884 11.0779387,37.8425739 L11.0779387,29.7760909 C11.0779387,29.5687435 11.1553492,29.5252674 11.2706415,29.5252674 L16.8787862,29.5252674 C17.1208999,29.5252674 17.2543095,29.3998557 17.2543095,29.1741146 L17.2543095,27.9534403 C17.2543095,27.7076333 17.1159588,27.5688443 16.8787862,27.5688443 L12.8732038,27.5688443 C12.4565047,27.5688443 12.0447466,27.6858953 11.7169872,27.8982591 L9.82454717,28.9851609 C9.01585435,29.4817914 8.60574333,30.225901 8.60574333,31.1990961 L8.60574333,37.5399136 C8.60574333,39.1585611 9.86242891,40.0314268 11.044998,40.0314268 L14.5367063,40.0314268 C14.9764639,40.0314268 15.3635165,39.9294252 15.7209225,39.7187335 L17.1126647,38.9160984 C17.3086616,38.805736 17.4124246,38.6301596 17.4124246,38.4094349 C17.4124246,38.2020875 17.2724269,38.0766758 17.0385483,38.0766758 L17.0385483,38.0766758 Z M53.3901963,34.2256994 C53.3901963,34.2825527 53.3901963,34.4096366 53.116789,34.4096366 L50.2410707,34.4096366 C50.0187214,34.4096366 50.000604,34.3277009 50.000604,34.2256994 L50.000604,32.5719366 C50.000604,32.3194409 50.1224844,32.2843257 50.2410707,32.2843257 L53.116789,32.2843257 C53.2996095,32.2843257 53.3901963,32.3796386 53.3901963,32.5719366 L53.3901963,34.2256994 Z M53.3276091,30.4449535 L51.8073984,30.4449535 C51.4005814,30.4449535 51.0118818,30.556988 50.6528288,30.7760405 L48.877328,31.8612701 C48.0867526,32.3060637 47.6881708,33.0050251 47.6881708,33.9431049 L47.6881708,37.6067998 C47.6881708,38.944525 48.7307422,40.0314268 50.0137803,40.0314268 L52.8252643,40.0314268 C53.321021,40.0314268 53.7014854,39.937786 54.0160686,39.7371272 L55.2859304,38.9712795 C55.4835743,38.8759666 55.5889843,38.7171117 55.5889843,38.5114365 C55.5889843,38.2907118 55.4522807,38.1602836 55.216755,38.1602836 L50.2410707,38.1602836 C50.0467209,38.1602836 50.0170743,38.100086 50.0170743,37.9562805 L50.0170743,36.3510103 C50.0170743,36.1871389 50.0829556,36.1169084 50.2410707,36.1169084 L54.1824188,36.1169084 C54.6798225,36.1169084 55.7042766,35.7323124 55.7042766,34.5434091 L55.7042766,32.9046957 C55.7042766,31.2275227 54.2861818,30.4449535 53.3276091,30.4449535 L53.3276091,30.4449535 Z M35.2151958,30.3312469 C35.0883743,30.3312469 34.971435,30.3596735 34.8544958,30.386428 C34.814967,30.3947888 34.7737912,30.4048217 34.7260272,30.4148547 L31.6411359,31.2877204 C31.595019,31.3010976 31.5521962,31.3061141 31.5209026,31.3061141 C31.4632564,31.3061141 31.4204336,31.2960812 31.4204336,31.165653 L31.4204336,30.8797142 C31.4204336,30.6372515 31.287024,30.4800688 31.0794979,30.4800688 L29.445642,30.4800688 C29.2134104,30.4800688 29.0931771,30.6138413 29.0931771,30.8797142 L29.0931771,39.6986676 C29.0931771,39.9979836 29.295762,40.0314268 29.445642,40.0314268 L31.0794979,40.0314268 C31.2969062,40.0314268 31.4204336,39.9043429 31.4204336,39.6802739 L31.4204336,32.6204291 C31.4204336,32.4398362 31.4896089,32.3696056 31.6609003,32.3696056 L34.6206172,32.3696056 C34.7754382,32.3696056 34.8594369,32.4565578 34.8594369,32.6204291 L34.8594369,39.6802739 C34.8594369,39.9260809 34.9599058,40.0314268 35.2003725,40.0314268 L36.8144641,40.0314268 C37.1389294,40.0314268 37.1883404,39.8240793 37.1883404,39.6986676 L37.1883404,32.3696056 C37.1883404,31.2459165 36.3022371,30.3312469 35.2151958,30.3312469 L35.2151958,30.3312469 Z M57.8915354,12.041199 L56.900022,12.041199 C56.4668525,12.041199 56.084741,12.1348398 55.6927474,12.3455315 L54.7242924,12.9876396 C54.6781755,13.0143941 54.6254705,13.0143941 54.5777065,13.0143941 C54.3915919,13.0143941 54.3586513,12.9525243 54.3586513,12.8220961 L54.3586513,12.5528789 C54.3586513,12.3037276 54.2071243,12.1432005 53.9715987,12.1432005 L52.2751555,12.1432005 C51.9572783,12.1432005 51.9210436,12.3773025 51.9210436,12.5528789 L51.9210436,21.5490809 C51.9210436,21.784855 52.0313947,21.891873 52.2751555,21.891873 L53.9715987,21.891873 C54.2203006,21.891873 54.3586513,21.7614448 54.3586513,21.5323593 L54.3586513,14.3270369 C54.3586513,14.1130009 54.4410029,14.071197 54.5777065,14.071197 L57.8915354,14.071197 C58.128708,14.071197 58.2769409,13.9407688 58.2769409,13.7317492 L58.2769409,12.4174342 C58.2769409,12.1883488 58.127061,12.041199 57.8915354,12.041199 L57.8915354,12.041199 Z M44.0861113,14.2768722 C44.0861113,14.071197 44.1618748,13.9842449 44.3397543,13.9842449 L47.3324118,13.9842449 C47.5234676,13.9842449 47.6189954,14.0829021 47.6189954,14.2768722 L47.6189954,15.9674225 C47.6189954,16.0226036 47.6189954,16.154704 47.3324118,16.154704 L44.3397543,16.154704 C44.1042287,16.154704 44.0861113,16.0660797 44.0861113,15.9674225 L44.0861113,14.2768722 Z M49.9050762,20.3384396 C49.9050762,20.1143706 49.7617843,19.9789259 49.5196706,19.9789259 L44.3397543,19.9789259 C44.1371693,19.9789259 44.1042287,19.9204005 44.1042287,19.7732507 L44.1042287,18.1345373 C44.1042287,17.9673217 44.173404,17.8954189 44.3397543,17.8954189 L48.4408645,17.8954189 C48.9580326,17.8954189 50.0220154,17.5041343 50.0220154,16.2918208 L50.0220154,14.6196643 C50.0220154,12.9073761 48.5495686,12.1097574 47.5514671,12.1097574 L45.9703162,12.1097574 C45.5437348,12.1097574 45.1385649,12.2217919 44.7696297,12.4458609 L42.9233066,13.5528285 C42.0997905,14.0043107 41.6830913,14.7166494 41.6830913,15.6764672 L41.6830913,19.4154092 C41.6830913,20.6076568 42.6087234,21.891873 44.1042287,21.891873 L47.0310049,21.891873 C47.546526,21.891873 47.9385197,21.7948879 48.2646321,21.5892126 L49.588846,20.8066434 C49.794725,20.7096583 49.9050762,20.5474591 49.9050762,20.3384396 L49.9050762,20.3384396 Z M15.8428029,14.3621522 L11.4880497,14.3621522 C11.3233465,14.3621522 11.2689944,14.3253648 11.2689944,14.1063123 L11.2689944,11.4258454 C11.2689944,11.2067929 11.3365227,11.1666611 11.4715794,11.1666611 L17.5754808,11.1666611 C17.9411219,11.1666611 17.995474,10.9442643 17.995474,10.8104918 L17.995474,9.56640737 C17.995474,9.31558389 17.8423,9.17345059 17.5754808,9.17345059 L13.1696696,9.17345059 C12.7249709,9.17345059 12.2967425,9.29050155 11.9360425,9.50955405 L9.94972162,10.619866 C9.12949957,11.11148 8.71444746,11.8656226 8.71444746,12.8605557 L8.71444746,13.9173586 C8.71444746,15.3871842 9.80642982,16.4958239 11.2525241,16.4958239 L15.6270417,16.4958239 C15.7620983,16.4958239 15.846097,16.5911369 15.846097,16.753336 L15.846097,19.6545276 C15.846097,19.8635471 15.7077462,19.893646 15.6270417,19.893646 L9.4374946,19.893646 C9.17396944,19.893646 9.03397171,20.0307628 9.03397171,20.2866027 L9.03397171,21.5323593 C9.03397171,21.8517412 9.24149777,21.891873 9.42102428,21.891873 L13.9108341,21.891873 C14.3720031,21.891873 14.7936434,21.784855 15.1625786,21.5724911 L17.1472524,20.460507 C17.9773566,19.9722373 18.3989969,19.2114061 18.3989969,18.2014236 L18.3989969,16.9907823 C18.3989969,15.1982305 16.8754921,14.3621522 15.8428029,14.3621522 L15.8428029,14.3621522 Z M28.4689519,12.1432005 L26.788979,12.1432005 C26.4727488,12.1432005 26.4348671,12.3773025 26.4348671,12.5528789 L26.4348671,19.7565291 C26.4348671,19.8451534 26.4085146,19.9638765 26.1812241,19.9638765 L23.1045679,19.9638765 C22.8921008,19.9638765 22.854219,19.8903016 22.854219,19.7565291 L22.854219,12.5528789 C22.854219,12.3037276 22.7142213,12.1432005 22.5001071,12.1432005 L20.8003699,12.1432005 C20.5566091,12.1432005 20.4314346,12.2819895 20.4314346,12.5528789 L20.4314346,19.9956475 C20.4314346,21.1260253 21.3373024,22.0440392 22.4474021,22.0440392 C22.6203405,22.0440392 22.8146903,22.0440392 22.9925697,21.9905302 L26.227341,21.0992708 C26.3574566,21.0524504 26.4348671,21.1026151 26.4348671,21.2581257 L26.4348671,21.5323593 C26.4348671,21.784855 26.5402771,21.891873 26.788979,21.891873 L28.4689519,21.891873 C28.8049464,21.891873 28.8560044,21.6778369 28.8560044,21.5490809 L28.8560044,12.5528789 C28.8560044,12.2953668 28.7110656,12.1432005 28.4689519,12.1432005 L28.4689519,12.1432005 Z M75.1145513,0 C77.2886338,0 79.0674286,1.80592903 79.0674286,4.01317561 L79.0674286,46.3906379 C79.0674286,48.5978845 77.2886338,50.4054857 75.1145513,50.4054857 L3.95287732,50.4054857 C1.77879479,50.4054857 0,48.5978845 0,46.3906379 L0,4.01317561 C0,1.80592903 1.77879479,0 3.95287732,0 L75.1145513,0 Z" id="Fill-1"></path>
            </g>
        </g>
    </g>
</svg>