<?xml version="1.0" encoding="utf-8"?>
<!-- Generator: Adobe Illustrator 24.0.0, SVG Export Plug-In . SVG Version: 6.00 Build 0)  -->
<svg version="1.1" id="Layer_1" xmlns="http://www.w3.org/2000/svg" xmlns:xlink="http://www.w3.org/1999/xlink" x="0px" y="0px"
	 viewBox="0 0 118 60" style="enable-background:new 0 0 118 60;" xml:space="preserve">
<style type="text/css">
	.st0{filter:url(#Adobe_OpacityMaskFilter);}
	.st1{fill-rule:evenodd;clip-rule:evenodd;fill:#FFFFFF;}
	.st2{mask:url(#mask-2_1_);fill-rule:evenodd;clip-rule:evenodd;fill:#FFFFFF;}
	.st3{filter:url(#Adobe_OpacityMaskFilter_1_);}
	.st4{mask:url(#mask-4_1_);fill-rule:evenodd;clip-rule:evenodd;fill:#FFFFFF;}
</style>
<title>logo/space/UN</title>
<desc>Created with Sketch.</desc>
<g id="logo_x2F_space_x2F_UN">
	<g id="Group-25" transform="translate(16.000000, 11.000000)">
		<g>
			<g id="Group-3" transform="translate(0.000000, 27.306000)">
				<g id="Clip-2">
				</g>
				<defs>
					<filter id="Adobe_OpacityMaskFilter" filterUnits="userSpaceOnUse" x="0" y="0.4" width="7.8" height="9">
						<feColorMatrix  type="matrix" values="1 0 0 0 0  0 1 0 0 0  0 0 1 0 0  0 0 0 1 0"/>
					</filter>
				</defs>
				<mask maskUnits="userSpaceOnUse" x="0" y="0.4" width="7.8" height="9" id="mask-2_1_">
					<g class="st0">
						<polygon id="path-1_1_" class="st1" points="0,0.4 7.8,0.4 7.8,9.3 0,9.3 						"/>
					</g>
				</mask>
				<path id="Fill-1" class="st2" d="M3.9,9.3c2.3,0,3.9-1.4,3.9-3.6V0.4H5.3v5.2c0,0.5-0.1,1.6-1.4,1.6h0c-1.4,0-1.4-1.1-1.4-1.6
					V0.4H0v5.4C0,7.9,1.5,9.3,3.9,9.3L3.9,9.3z"/>
			</g>
			<path id="Fill-4" class="st1" d="M21.3,30h1c1.3,0,2.8,0.4,2.8,2.3c0,2-1.8,2.3-2.9,2.3h-0.9V30z M22.3,28h-3.4v8.7h3.5
				c2.6,0,5.2-1.3,5.2-4.4C27.6,28.4,23.9,28,22.3,28L22.3,28z"/>
			<path id="Fill-6" class="st1" d="M38,29.9h1c0.8,0,1.3,0.3,1.3,0.8c0,0.6-0.5,0.9-1.4,0.9H38V29.9z M40.8,33
				c1.1-0.4,1.7-1.2,1.7-2.3c0-1.7-1.3-2.7-3.4-2.7h-3.4v8.7H38v-3.3h0.5l1.9,3.3h2.7L40.8,33z"/>
			<polygon id="Fill-8" class="st1" points="51.9,28 51.9,30 54.4,30 54.4,36.6 56.8,36.6 56.8,30 59.3,30 59.3,28 			"/>
			<path id="Fill-10" class="st1" d="M63.9,33.1H62l1-2.4L63.9,33.1z M64.2,28h-2.3L58,36.6h2.7l0.7-1.6h3.3l0.7,1.6h2.7L64.2,28z"
				/>
			<polygon id="Fill-12" class="st1" points="80.4,34.6 80.4,33.2 84.3,33.2 84.3,31.3 80.4,31.3 80.4,29.9 84.2,29.9 84.2,28 
				78.2,28 78.2,36.6 84.3,36.6 84.3,34.6 			"/>
			<polygon id="Fill-14" class="st1" points="30.6,34.6 30.6,33.2 34.4,33.2 34.4,31.3 30.6,31.3 30.6,29.9 34.3,29.9 34.3,28 
				28.3,28 28.3,36.6 34.4,36.6 34.4,34.6 			"/>
			<path id="Fill-16" class="st1" d="M48,30.9c-0.9-0.3-1.3-0.4-1.3-0.9c0-0.7,0.8-0.7,1.1-0.7c0.7,0,1.4,0.3,1.8,0.6l1.4-1.4
				L51,28.4c-0.8-0.7-1.9-1.1-3-1.1c-1.8,0-3.6,0.9-3.6,2.8c0,1.6,1.2,2.2,2.4,2.6c1.2,0.4,2,0.6,2,1.1c0,0.7-1,0.8-1.4,0.8
				c-0.1,0-0.2,0-0.3,0c-0.5,0-1.4-0.5-1.9-0.8l-1.4,1.4l0.1,0.1c0.8,0.8,2.1,1.3,3.5,1.3c2,0,3.9-0.8,3.9-3
				C51.2,31.8,49.3,31.3,48,30.9"/>
			<path id="Fill-18" class="st1" d="M72.8,31.1V33h1.7v1.4c-0.3,0.1-0.8,0.2-1.2,0.2c-1.6,0-2.6-1-2.6-2.6c0-1.5,1.1-2.6,2.5-2.6
				c0.9,0,1.6,0.3,2.2,0.7l1.4-1.5l-0.1-0.1c-0.8-0.7-2.2-1.2-3.6-1.2c-3,0-5.1,1.9-5.1,4.7c0,2.7,2.1,4.7,5.1,4.7
				c1.3,0,2.6-0.3,3.6-0.8l0.1,0v-4.8H72.8z"/>
			<polygon id="Fill-20" class="st1" points="15.3,28 15.3,33.1 12,28 9.4,28 9.4,36.6 11.7,36.6 11.7,36.4 11.7,31.5 15,36.6 
				17.5,36.6 17.5,28 			"/>
			<g id="Group-24">
				<g id="Clip-23">
				</g>
				<defs>
					<filter id="Adobe_OpacityMaskFilter_1_" filterUnits="userSpaceOnUse" x="0" y="0.3" width="84" height="25">
						<feColorMatrix  type="matrix" values="1 0 0 0 0  0 1 0 0 0  0 0 1 0 0  0 0 0 1 0"/>
					</filter>
				</defs>
				<mask maskUnits="userSpaceOnUse" x="0" y="0.3" width="84" height="25" id="mask-4_1_">
					<g class="st3">
						<polygon id="path-3_1_" class="st1" points="0,0.3 84,0.3 84,25.2 0,25.2 						"/>
					</g>
				</mask>
				<path id="Fill-22" class="st4" d="M0,0.3v25h2.5V2.6h79v22.6H84v-25H0z M5,25.2h2.5V7.5h69v17.7H79V5.1H5V25.2z M10,25.2h2.5
					V12.4h59.1v12.9H74V10H10V25.2z M15,25.2h2.5v-8h49.1v8H69V14.9H15V25.2z"/>
			</g>
		</g>
	</g>
</g>
</svg>
