<?xml version="1.0" encoding="UTF-8"?>
<svg width="118px" height="60px" viewBox="0 0 118 60" version="1.1" xmlns="http://www.w3.org/2000/svg" xmlns:xlink="http://www.w3.org/1999/xlink">
    <!-- Generator: Sketch 55.1 (78136) - https://sketchapp.com -->
    <title>logo/space/DL</title>
    <desc>Created with Sketch.</desc>
    <g id="logo/space/DL" stroke="none" stroke-width="1" fill="none" fill-rule="evenodd">
        <g transform="translate(16.000000, 13.000000)" fill="#000000">
            <g id="name">
                <path d="M9.91893707,13.0874237 L9.91385409,3.43514433 C9.91385409,3.17585433 9.77153051,3.03366304 9.4665514,3.03366304 L3.72616693,3.03868155 C3.46354603,3.03868155 3.36188633,3.17752717 3.36188633,3.43849001 L3.36866364,13.1091706 C3.36866364,13.3483865 3.46862901,13.4705037 3.71430663,13.4705037 L9.47332872,13.4688309 C9.77661349,13.4688309 9.91893707,13.3483865 9.91893707,13.0874237 M12.7959066,3.15243459 L12.797601,11.3426529 C12.797601,12.4450536 12.2706648,13.3048927 11.2574565,13.9071147 L8.92606066,15.2504041 C8.44148275,15.5096941 7.95351618,15.6083916 7.42488573,15.6083916 L0.854280358,15.615083 C0.630629015,15.615083 0.549301254,15.5347867 0.549301254,15.2938979 L0.540829612,1.25710833 C0.540829612,1.01789239 0.622157373,0.895775168 0.845808716,0.895775168 L2.97388513,0.895775168 C3.21786842,0.894102329 3.360192,1.01789239 3.360192,1.25543549 L3.360192,1.57662052 C3.360192,1.85765743 3.48218364,1.95802775 3.76852513,1.87773149 L9.60887499,0.771985103 C9.93079737,0.730164135 10.1171735,0.691688845 10.2781347,0.691688845 C11.5149944,0.691688845 12.792518,1.71044762 12.7959066,3.15243459" id="Fill-1"></path>
                <path d="M18.4207379,15.6047114 C16.5146185,15.6047114 15.4370257,14.1058479 15.4370257,12.7224103 L15.4353269,5.13608673 C15.433637,4.01193912 15.9182149,3.15210002 16.9127857,2.56995215 L19.288234,1.26681079 C19.7321481,1.00752079 20.2201146,0.885403568 20.7063869,0.883730729 L25.9384728,0.88205789 C26.1621242,0.88205789 26.3061421,1.00417512 26.3061421,1.24339105 L26.3061421,2.70545208 C26.3061421,2.92459395 26.1621242,3.02663712 25.9384728,3.02663712 L18.6986078,3.02998279 C18.4580131,3.02998279 18.3546591,3.17050125 18.3546591,3.42979125 L18.3563534,6.65502428 C18.3563534,6.9327155 18.4580131,7.0146846 18.7003021,7.01301176 L25.4522006,7.01133892 C25.7199045,7.01133892 25.8622281,7.15353021 25.8622281,7.39107331 L25.8639224,8.85313434 C25.8639224,9.09402312 25.7199045,9.1927206 25.4572836,9.1927206 L18.7003021,9.19773912 C18.4597075,9.19773912 18.3580478,9.33993041 18.3580478,9.61762163 L18.3631307,13.0837434 C18.3631307,13.3430334 18.4630961,13.4634778 18.7036907,13.461805 L26.1485696,13.4584593 C26.4111904,13.4584593 26.553514,13.5571568 26.553514,13.7578974 C26.553514,13.9787121 26.4332167,14.1577059 26.2095654,14.2798231 L24.4847391,15.2433782 C24.0204931,15.5026682 23.5342209,15.6030385 23.0055904,15.6030385 L18.4207379,15.6047114 Z" id="Fill-3"></path>
                <path d="M39.6777815,9.94633444 L39.6794758,11.371593 C39.6794758,12.5107962 39.1898149,13.3723081 38.2189648,13.9327091 L35.8265731,15.2341776 C35.3606328,15.4934676 34.8540287,15.5938379 34.3677564,15.5938379 L28.9509887,15.6005293 C28.6866734,15.6005293 28.5867081,15.520233 28.5867081,15.2793442 L28.5850137,13.8172832 C28.5850137,13.5981413 28.6866734,13.4559501 28.9696263,13.4559501 L36.4331427,13.4509315 C36.6381564,13.4509315 36.8008119,13.33216 36.8008119,13.0711971 L36.7991176,9.66697037 C36.7991176,9.40768037 36.6330734,9.26716192 36.4331427,9.26716192 L31.1586985,9.26883476 C29.3508501,9.2705076 28.1970125,7.89041566 28.1970125,6.34805837 L28.1953182,5.10513921 C28.1953182,4.00608418 28.6392322,3.14289941 29.633803,2.56242437 L32.0261946,1.2626287 C32.471803,0.998320181 32.9784072,0.876202955 33.4646794,0.876202955 L38.7797875,0.874530116 C39.0441027,0.874530116 39.1864263,0.996647342 39.1864263,1.23753612 L39.1864263,2.69792431 C39.1864263,2.91706618 39.045797,3.01910934 38.7814818,3.01910934 L31.4179307,3.02245502 C31.1553099,3.02412786 31.0756764,3.16464631 31.0756764,3.42393631 L31.0756764,6.56887308 C31.0756764,6.86831121 31.1756418,6.9670087 31.439957,6.9670087 L36.6940693,6.96366302 C37.9936191,6.96366302 39.6760872,7.98242179 39.6777815,9.94633444" id="Fill-5"></path>
                <path d="M44.4705281,15.2693072 C44.4705281,15.510196 44.3282045,15.5904922 44.0842213,15.5904922 L41.9358129,15.5921651 C41.7307992,15.5921651 41.6494714,15.5118688 41.6494714,15.2709801 L41.6443884,1.21411637 C41.6443884,0.994974503 41.7223275,0.872840084 41.9273413,0.872840084 L44.0774439,0.872840084 C44.3180386,0.871184439 44.4603621,0.991628826 44.4620565,1.21411637 L44.4705281,15.2693072 Z" id="Fill-7"></path>
                <path d="M49.6660166,15.7880545 C48.4884584,15.7880545 47.2295724,14.9098142 47.2261838,13.3674569 L47.2227951,5.11701637 C47.2227951,3.99621443 47.6887354,3.1347025 48.6612799,2.55255463 L51.0333396,1.25108611 C51.4789479,0.990123271 51.9669145,0.866333206 52.4735187,0.866333206 L58.5595461,0.864660368 C58.7831975,0.864660368 58.9034948,0.986777594 58.9034948,1.22766637 L58.9085778,2.68638172 C58.9085778,2.90719643 58.7831975,3.00756675 58.5595461,3.00756675 L50.447102,3.01258527 C50.2031187,3.01258527 50.0828214,3.15143088 50.0828214,3.41239372 L50.0895987,13.0663459 C50.0895987,13.3256359 50.2082017,13.4460803 50.4538793,13.4460803 L55.8689527,13.4427346 C56.0909097,13.4410618 56.2535653,13.3222902 56.2535653,13.0630002 L56.2535653,10.2760509 C56.2518709,10.0167609 56.0892154,9.87791534 55.8875903,9.88126101 L53.615496,9.88126101 C53.3494864,9.88126101 53.2495211,9.77754501 53.2495211,9.56007598 L53.2495211,8.11641617 C53.2495211,7.85879901 53.3494864,7.75842869 53.5934697,7.75842869 L58.7272847,7.75341017 C58.9678793,7.75173734 59.0898709,7.87385456 59.0898709,8.13314456 L59.0932596,15.2627831 C59.0932596,15.5019991 58.9729623,15.5822953 58.728979,15.5822953 L56.6212345,15.5839682 C56.3789456,15.5839682 56.2535653,15.5019991 56.2535653,15.2443819 L56.2535653,14.9031228 C56.2535653,14.64216 56.0705778,14.5417897 55.8282888,14.6036847 L50.3928835,15.7077582 C50.0895987,15.7880545 49.8473097,15.7880545 49.6660166,15.7880545" id="Fill-9"></path>
                <path d="M75.0194379,15.2549208 C75.0194379,15.4941367 74.8991405,15.574433 74.6754892,15.574433 L70.3532576,15.5777787 C70.1126629,15.5777787 69.9500074,15.4974824 69.8686796,15.2749949 L64.7077555,3.06327228 C64.6687859,2.98297603 64.6077901,2.92609951 64.5078247,2.92609951 C64.3638068,2.92609951 64.282479,3.02312415 64.282479,3.14356854 L64.2892564,15.2381924 C64.2892564,15.4974824 64.1486271,15.5794515 63.8843119,15.5794515 L61.8782271,15.5827972 C61.6749077,15.5827972 61.5935799,15.4991553 61.5935799,15.2616122 L61.5851083,1.20474848 C61.5851083,0.983933768 61.6647417,0.861816542 61.8680611,0.861816542 L66.2512886,0.860143703 C66.4732456,0.860143703 66.6342068,0.958841187 66.7155346,1.18132874 L71.8730701,13.3713044 C71.9357602,13.4516007 71.9967561,13.4934216 72.0560576,13.4934216 C72.2000755,13.4934216 72.3220671,13.4331994 72.3220671,13.3110822 L72.3152898,1.19805712 C72.3152898,0.98058809 72.4355871,0.855125187 72.6795704,0.855125187 L74.6670176,0.855125187 C74.8906689,0.855125187 75.0109662,0.977242413 75.0126605,1.19638428 L75.0194379,15.2549208 Z" id="Fill-11"></path>
            </g>
            <g id="기본" transform="translate(0.000000, 19.350000)">
                <path d="M3.21662078,14.9927331 C1.06482376,14.9960823 0.275266746,13.2302013 0.273572418,12.1049343 L0.266795104,0.6023913 C0.266795104,0.3609033 0.368454806,0.2401593 0.61243809,0.2401593 L2.74051451,0.2384823 C2.98449779,0.2384823 3.12682137,0.3575493 3.12682137,0.5990373 L3.13529301,12.4638123 C3.13529301,12.7237473 3.23525839,12.8444913 3.49787928,12.8444913 L10.3344942,12.8394603 C10.5767832,12.8394603 10.7394387,12.9400803 10.7394387,13.1413203 C10.7394387,13.3643613 10.5971151,13.5438003 10.3971844,13.6628673 L8.67405242,14.6288193 C8.18439152,14.8904313 7.69811928,14.9910513 7.17118316,14.9910513 L3.21662078,14.9927331 Z" id="Fill-13"></path>
                <path d="M14.5350731,14.6655456 C14.5350731,14.9070336 14.3927495,14.9875296 14.1487662,14.9875296 L12.0003579,14.9892066 C11.7970384,14.9892066 11.7157107,14.9087106 11.7157107,14.6688996 L11.7106277,0.5737146 C11.7106277,0.3540276 11.7885668,0.233266363 11.9918862,0.233266363 L14.1453776,0.233266363 C14.3876665,0.2316066 14.5282958,0.3523506 14.5282958,0.5720376 L14.5350731,14.6655456 Z" id="Fill-16"></path>
                <path d="M26.3811392,12.4514025 L26.3794449,9.1594515 C26.3794449,8.8978395 26.1964574,8.7184005 25.9118103,8.7184005 L20.435741,8.7200775 C20.1697315,8.7200775 20.0494341,8.8810695 20.0494341,9.1410045 L20.0528228,12.4748805 C20.0528228,12.7163685 20.1748144,12.8186655 20.4391297,12.8186655 L25.9168933,12.8153115 C26.1981518,12.8153115 26.3811392,12.6945675 26.3811392,12.4514025 M26.3744086,6.1861305 L26.3744086,2.7734355 C26.3744086,2.5151775 26.1913744,2.3541855 25.9101159,2.3541855 L20.4120204,2.3575395 C20.1493995,2.3575395 20.0477398,2.5185315 20.0477398,2.7767895 L20.0477398,6.2112855 C20.0494341,6.4544505 20.1697315,6.5718405 20.435741,6.5718405 L25.9118103,6.5701635 C26.1964574,6.5701635 26.3777506,6.4494195 26.3744086,6.1861305 M29.295384,2.4933765 L29.2970783,4.4806215 C29.2970783,5.3644005 28.9531297,6.1458825 28.263538,6.7093545 C28.1822103,6.7915275 28.1212144,6.8703465 28.1212144,7.0112145 C28.1212144,7.1487285 28.1822103,7.2292245 28.28387,7.2912735 C28.9751559,7.8715155 29.3411476,8.6345505 29.3411476,9.5820555 L29.3411476,10.7056455 C29.3445195,11.8275585 28.8345267,12.6912135 27.8213183,13.2731325 L25.4916168,14.6214405 C25.0239822,14.8830525 24.53771,14.9836725 23.9667213,14.9836725 L17.5604658,14.9853495 C17.3351201,14.9853495 17.2537924,14.9065305 17.2537924,14.6650425 L17.247015,0.5933355 C17.247015,0.3518475 17.3266485,0.2311035 17.5519941,0.2311035 L19.6597386,0.2311035 C19.9037219,0.2294265 20.0460455,0.3501705 20.0460455,0.5899815 L20.0460455,0.9119655 C20.0460455,1.1719005 20.1680371,1.2708435 20.4730162,1.2121485 L26.0897147,0.1053285 C26.4150258,0.0634035 26.6590091,0.024829742 26.7793064,0.024829742 C27.8128467,0.0231555 29.295384,0.7861905 29.295384,2.4933765" id="Fill-18"></path>
                <path d="M40.5369138,6.6221505 L40.5352195,2.7650505 C40.5352195,2.5067925 40.3945902,2.3659245 40.1489126,2.3659245 L34.8168613,2.3676015 C34.572878,2.3676015 34.4729126,2.5118235 34.4729126,2.7700815 L34.4746069,6.6456285 C34.4746069,6.9055635 34.5762666,7.0263075 34.8202499,7.0263075 L40.1506069,7.0229535 C40.3979789,7.0229535 40.5369138,6.8837625 40.5369138,6.6221505 M43.4376039,2.4849915 L43.4376039,4.9334115 C43.4392983,6.0754485 42.9326941,6.9022095 41.8974595,7.4824515 L40.8435872,8.1062955 C40.6199359,8.2488405 40.5606344,8.4064785 40.7199013,8.6278425 L44.315266,14.7086445 C44.4169257,14.9316855 44.3965938,14.9702565 44.1119466,14.9702565 L41.5975633,14.9736105 C41.3722177,14.9736105 41.1722869,14.8931145 41.0706272,14.6717505 L38.066583,9.5350995 C37.9412027,9.3137355 37.7395777,9.1929915 37.4786511,9.1929915 L34.8202499,9.1946685 C34.5762666,9.1946685 34.4746069,9.3355365 34.4746069,9.5770245 L34.4813842,14.6348565 C34.4813842,14.8964685 34.3170344,14.9769645 34.0713568,14.9769645 L31.9636123,14.9786415 C31.719629,14.9786415 31.6383013,14.8981455 31.6383013,14.6566575 L31.6298296,0.5849505 C31.6298296,0.3434625 31.7111574,0.2210415 31.9534463,0.2210415 L34.0628851,0.2210415 C34.3068684,0.2210415 34.4729126,0.3401085 34.4729126,0.5815965 L34.4729126,0.9035805 C34.4729126,1.1836395 34.5915156,1.2859365 34.8558308,1.2054405 L40.228546,0.0969435 C40.4945556,0.0566955 40.7368445,0.0164475 40.9181377,0.0164475 C41.8940708,0.0164475 43.4342153,0.7576815 43.4376039,2.4849915" id="Fill-20"></path>
                <path d="M53.4419352,8.7011274 L51.5713967,2.2580934 C51.5324271,2.1390264 51.4273787,2.0602074 51.2698062,2.0602074 C51.124094,2.0602074 51.0461549,2.1390264 50.9834647,2.2597704 L49.1434241,8.7028044 C49.0620964,8.9862174 49.1620617,9.0667134 49.406045,9.0667134 L53.1183184,9.0650364 C53.4232976,9.0650364 53.5232629,8.9845404 53.4419352,8.7011274 L53.4419352,8.7011274 Z M58.048814,14.6427384 C58.1301417,14.8825494 58.048814,14.9630454 57.7844987,14.9630454 L55.6140641,14.9663994 C55.3717752,14.9663994 55.210814,14.8859034 55.1498181,14.6242914 L54.2755447,11.5922754 C54.173885,11.3927124 54.0129238,11.2317204 53.7672462,11.2317204 L48.7977811,11.2333974 C48.5537979,11.2333974 48.3708104,11.3943894 48.3318408,11.5956294 L47.4423184,14.6276454 C47.3796283,14.8892574 47.2576367,14.9697534 46.9746838,14.9697534 L44.7635853,14.9714304 C44.5416283,14.9714304 44.4823268,14.8909344 44.5416283,14.6511234 L48.8740259,0.5542614 C48.9350217,0.3328974 49.0976773,0.2121534 49.3382719,0.2121534 L53.1945632,0.2104764 C53.4758217,0.2104764 53.6418659,0.3312204 53.719805,0.5525844 L58.048814,14.6427384 Z" id="Fill-22"></path>
                <path d="M68.1087192,6.6055482 L68.1036362,2.7501252 C68.1036362,2.4918672 67.9630069,2.3509992 67.720718,2.3509992 L62.385278,2.3543532 C62.1446833,2.3543532 62.0413293,2.4968982 62.0413293,2.7534792 L62.0430236,6.6307032 C62.0430236,6.8906382 62.1463777,7.0113822 62.3886666,7.0113822 L67.7224123,7.0063512 C67.9647013,7.0063512 68.1087192,6.8705142 68.1087192,6.6055482 M71.0043263,2.4700662 L71.0060207,4.9201632 C71.0060207,6.0622002 70.5028051,6.8872842 69.4675705,7.4675262 L68.4136983,8.0913702 C68.1883526,8.2305612 68.1290511,8.3915532 68.2917066,8.6129172 L71.8870714,14.6953962 C71.9887311,14.9150832 71.9683992,14.9553312 71.683752,14.9553312 L69.1676744,14.9586852 C68.944023,14.9586852 68.7407036,14.8765122 68.6407383,14.6568252 L65.6366941,9.5184972 C65.5130081,9.2988102 65.311383,9.1780662 65.0453735,9.1780662 L62.390361,9.1814202 C62.1463777,9.1814202 62.0464123,9.3206112 62.0464123,9.5620992 L62.0481066,14.6199312 C62.0481066,14.8832202 61.8854511,14.9620392 61.6431621,14.9620392 L59.5337233,14.9620392 C59.2897401,14.9620392 59.2084123,14.8832202 59.2084123,14.6417322 L59.1999407,0.5683482 C59.1999407,0.3268602 59.2812684,0.2077932 59.5235574,0.2077932 L61.6346905,0.2061162 C61.8769795,0.2061162 62.0413293,0.3268602 62.0413293,0.5666712 L62.0413293,0.8886552 C62.0413293,1.1687142 62.163321,1.2710112 62.4242475,1.1905152 L67.8003514,0.0820182 C68.0629723,0.0417702 68.3069556,0.0015222 68.489943,0.0015222 C69.4641819,0.0015222 71.0043263,0.7427562 71.0043263,2.4700662" id="Fill-24"></path>
                <path d="M85.1250283,0.5141811 L79.9776587,8.9276901 C79.8539728,9.1289301 79.772645,9.3502941 79.772645,9.5917821 L79.777728,14.6110431 C79.777728,14.8709781 79.654042,14.9514741 79.4337793,14.9514741 L77.3057029,14.9531511 C77.0820516,14.9531511 76.9583656,14.8726551 76.9583656,14.6127201 L76.954977,9.5951361 C76.954977,9.3502941 76.8753435,9.1306071 76.7516576,8.9293671 L71.6364802,0.5208891 C71.594122,0.4420701 71.594122,0.3816981 71.6364802,0.3012021 C71.6754498,0.2391531 71.7381399,0.1989051 71.8397996,0.1989051 L74.2338856,0.1989051 C74.457537,0.1989051 74.659162,0.3196491 74.8014856,0.5410131 L78.090177,6.4406991 C78.1511728,6.5614431 78.2308062,6.6201381 78.3748241,6.6201381 C78.4764838,6.6201381 78.5578116,6.5614431 78.6391393,6.4406991 L81.9413853,0.5359821 C82.0837089,0.3162951 82.2226438,0.1955511 82.4462952,0.1955511 L84.9420408,0.1938741 C85.0013423,0.1938741 85.0860587,0.2341221 85.1250283,0.2928171 C85.1639979,0.3733131 85.1639979,0.4353621 85.1250283,0.5141811" id="Fill-26"></path>
            </g>
        </g>
    </g>
</svg>