<?xml version="1.0" encoding="utf-8"?>
<!-- Generator: Adobe Illustrator 24.0.0, SVG Export Plug-In . SVG Version: 6.00 Build 0)  -->
<svg version="1.1" id="Layer_1" xmlns="http://www.w3.org/2000/svg" xmlns:xlink="http://www.w3.org/1999/xlink" x="0px" y="0px"
	 viewBox="0 0 118 60" style="enable-background:new 0 0 118 60;" xml:space="preserve">
<style type="text/css">
	.st0{fill-rule:evenodd;clip-rule:evenodd;fill:#FFFFFF;}
</style>
<title>logo/space/TL</title>
<desc>Created with Sketch.</desc>
<g id="logo_x2F_space_x2F_TL">
	<g id="logo_x2F_space_x2F_DL" transform="translate(16.000000, 13.000000)">
		<g id="Group">
			<path id="Fill-1" class="st0" d="M12,2.6c0,0.2-0.1,0.3-0.4,0.3l-3.9,0c-0.3,0-0.3,0.1-0.3,0.4l0,11.9c0,0.3-0.1,0.3-0.4,0.3H4.9
				c-0.2,0-0.3-0.1-0.3-0.3l0-11.9C4.6,3.1,4.5,3,4.2,3L0.3,3C0.1,3,0,2.9,0,2.6V1.1c0-0.2,0.1-0.3,0.3-0.3l11.3,0
				c0.2,0,0.4,0.1,0.4,0.3L12,2.6z"/>
			<path id="Fill-3" class="st0" d="M21.7,7.2l0-3.9c0-0.3-0.1-0.4-0.4-0.4l-5.3,0c-0.2,0-0.3,0.1-0.3,0.4l0,3.9
				c0,0.3,0.1,0.4,0.3,0.4l5.3,0C21.5,7.6,21.7,7.5,21.7,7.2 M24.5,3.1l0,2.4c0,1.1-0.5,2-1.5,2.5l-1,0.6c-0.2,0.1-0.3,0.3-0.1,0.5
				l3.5,6.1c0.1,0.2,0.1,0.3-0.2,0.3h-2.5c-0.2,0-0.4-0.1-0.5-0.3l-3-5.1c-0.1-0.2-0.3-0.3-0.6-0.3H16c-0.2,0-0.3,0.1-0.3,0.4l0,5.1
				c0,0.3-0.2,0.3-0.4,0.3l-2.1,0c-0.2,0-0.3-0.1-0.3-0.3l0-14.1c0-0.2,0.1-0.4,0.3-0.4h2.1c0.2,0,0.4,0.1,0.4,0.4v0.3
				c0,0.3,0.1,0.4,0.4,0.3l5.3-1.1c0.3,0,0.5-0.1,0.7-0.1C23,0.6,24.5,1.3,24.5,3.1"/>
			<path id="Fill-5" class="st0" d="M34.4,9.3l-1.8-6.4c0-0.1-0.1-0.2-0.3-0.2c-0.1,0-0.2,0.1-0.3,0.2l-1.8,6.4
				c-0.1,0.3,0,0.4,0.3,0.4l3.7,0C34.4,9.6,34.5,9.6,34.4,9.3L34.4,9.3z M38.9,15.2c0.1,0.2,0,0.3-0.3,0.3l-2.1,0
				c-0.2,0-0.4-0.1-0.5-0.3l-0.9-3c-0.1-0.2-0.3-0.4-0.5-0.4l-4.9,0c-0.2,0-0.4,0.2-0.5,0.4l-0.9,3c-0.1,0.3-0.2,0.3-0.5,0.3l-2.2,0
				c-0.2,0-0.3-0.1-0.2-0.3l4.3-14.1c0.1-0.2,0.2-0.3,0.5-0.3l3.8,0c0.3,0,0.4,0.1,0.5,0.3L38.9,15.2z"/>
			<path id="Fill-7" class="st0" d="M51.4,1.1l-4.3,14.1c-0.1,0.3-0.2,0.3-0.5,0.3l-3.8,0c-0.2,0-0.4-0.1-0.4-0.3L38.1,1.1
				c-0.1-0.2,0-0.3,0.2-0.3l2.2,0c0.3,0,0.4,0.1,0.5,0.3l3.5,12.3c0,0.2,0.1,0.2,0.2,0.2c0.2,0,0.3-0.1,0.3-0.2l3.5-12.3
				c0.1-0.2,0.2-0.3,0.5-0.3h2.1C51.4,0.8,51.4,0.9,51.4,1.1"/>
			<path id="Fill-9" class="st0" d="M55.6,15.5c-1.9,0-2.9-1.5-2.9-2.9l0-7.6c0-1.1,0.5-2,1.5-2.6l2.3-1.3c0.4-0.3,0.9-0.4,1.4-0.4
				l5.2,0c0.2,0,0.4,0.1,0.4,0.4v1.5c0,0.2-0.1,0.3-0.4,0.3l-7.1,0c-0.2,0-0.3,0.1-0.3,0.4l0,3.2c0,0.3,0.1,0.4,0.3,0.4l6.7,0
				c0.3,0,0.4,0.1,0.4,0.4v1.5c0,0.2-0.1,0.3-0.4,0.3l-6.7,0c-0.2,0-0.3,0.1-0.3,0.4l0,3.5c0,0.3,0.1,0.4,0.3,0.4l7.3,0
				c0.3,0,0.4,0.1,0.4,0.3c0,0.2-0.1,0.4-0.3,0.5l-1.7,1c-0.5,0.3-0.9,0.4-1.5,0.4L55.6,15.5z"/>
			<path id="Fill-11" class="st0" d="M68.5,15.5c-2.1,0-2.9-1.8-2.9-2.9l0-11.5c0-0.2,0.1-0.4,0.3-0.4h2.1c0.2,0,0.4,0.1,0.4,0.4
				l0,11.9c0,0.3,0.1,0.4,0.4,0.4l6.7,0c0.2,0,0.4,0.1,0.4,0.3c0,0.2-0.1,0.4-0.3,0.5l-1.7,1c-0.5,0.3-1,0.4-1.5,0.4L68.5,15.5z"/>
			<g id="기본" transform="translate(0.774000, 19.350000)">
				<path id="Fill-13" class="st0" d="M3.2,15c-2.1,0-2.9-1.8-2.9-2.9l0-11.5c0-0.2,0.1-0.4,0.3-0.4l2.1,0c0.2,0,0.4,0.1,0.4,0.4
					l0,11.9c0,0.3,0.1,0.4,0.4,0.4l6.7,0c0.2,0,0.4,0.1,0.4,0.3c0,0.2-0.1,0.4-0.3,0.5l-1.7,1c-0.5,0.3-1,0.4-1.5,0.4L3.2,15z"/>
				<path id="Fill-16" class="st0" d="M14.3,14.7c0,0.2-0.1,0.3-0.4,0.3l-2.1,0c-0.2,0-0.3-0.1-0.3-0.3l0-14.1
					c0-0.2,0.1-0.3,0.3-0.3h2.1c0.2,0,0.4,0.1,0.4,0.3L14.3,14.7z"/>
				<path id="Fill-18" class="st0" d="M26,12.5l0-3.3c0-0.3-0.2-0.4-0.5-0.4l-5.4,0c-0.3,0-0.4,0.2-0.4,0.4l0,3.3
					c0,0.2,0.1,0.3,0.4,0.3l5.4,0C25.8,12.8,26,12.7,26,12.5 M26,6.2V2.8c0-0.3-0.2-0.4-0.5-0.4l-5.4,0c-0.3,0-0.4,0.2-0.4,0.4v3.4
					c0,0.2,0.1,0.4,0.4,0.4l5.4,0C25.8,6.6,26,6.4,26,6.2 M28.9,2.5l0,2c0,0.9-0.3,1.7-1,2.2c-0.1,0.1-0.1,0.2-0.1,0.3
					c0,0.1,0.1,0.2,0.2,0.3c0.7,0.6,1,1.3,1,2.3v1.1c0,1.1-0.5,2-1.5,2.6l-2.3,1.3c-0.5,0.3-0.9,0.4-1.5,0.4l-6.3,0
					c-0.2,0-0.3-0.1-0.3-0.3l0-14.1c0-0.2,0.1-0.4,0.3-0.4h2.1c0.2,0,0.4,0.1,0.4,0.4v0.3c0,0.3,0.1,0.4,0.4,0.3l5.5-1.1
					C26,0.1,26.3,0,26.4,0C27.4,0,28.9,0.8,28.9,2.5"/>
				<path id="Fill-20" class="st0" d="M39.9,6.6l0-3.9c0-0.3-0.1-0.4-0.4-0.4l-5.3,0c-0.2,0-0.3,0.1-0.3,0.4l0,3.9
					C34,6.9,34.1,7,34.3,7l5.3,0C39.8,7,39.9,6.9,39.9,6.6 M42.8,2.5v2.4c0,1.1-0.5,2-1.5,2.5l-1,0.6C40,8.2,40,8.4,40.1,8.6
					l3.5,6.1c0.1,0.2,0.1,0.3-0.2,0.3L41,15c-0.2,0-0.4-0.1-0.5-0.3l-3-5.1c-0.1-0.2-0.3-0.3-0.6-0.3l-2.6,0c-0.2,0-0.3,0.1-0.3,0.4
					l0,5.1c0,0.3-0.2,0.3-0.4,0.3l-2.1,0c-0.2,0-0.3-0.1-0.3-0.3l0-14.1c0-0.2,0.1-0.4,0.3-0.4h2.1c0.2,0,0.4,0.1,0.4,0.4v0.3
					c0,0.3,0.1,0.4,0.4,0.3l5.3-1.1c0.3,0,0.5-0.1,0.7-0.1C41.3,0,42.8,0.8,42.8,2.5"/>
				<path id="Fill-22" class="st0" d="M52.7,8.7l-1.8-6.4c0-0.1-0.1-0.2-0.3-0.2c-0.1,0-0.2,0.1-0.3,0.2l-1.8,6.4
					c-0.1,0.3,0,0.4,0.3,0.4l3.7,0C52.6,9.1,52.7,9,52.7,8.7L52.7,8.7z M57.2,14.6c0.1,0.2,0,0.3-0.3,0.3l-2.1,0
					c-0.2,0-0.4-0.1-0.5-0.3l-0.9-3c-0.1-0.2-0.3-0.4-0.5-0.4l-4.9,0c-0.2,0-0.4,0.2-0.5,0.4l-0.9,3c-0.1,0.3-0.2,0.3-0.5,0.3
					l-2.2,0c-0.2,0-0.3-0.1-0.2-0.3l4.3-14.1c0.1-0.2,0.2-0.3,0.5-0.3l3.8,0c0.3,0,0.4,0.1,0.5,0.3L57.2,14.6z"/>
				<path id="Fill-24" class="st0" d="M67.1,6.6l0-3.9c0-0.3-0.1-0.4-0.4-0.4l-5.3,0c-0.2,0-0.3,0.1-0.3,0.4l0,3.9
					c0,0.3,0.1,0.4,0.3,0.4l5.3,0C67,7,67.1,6.9,67.1,6.6 M70,2.5l0,2.5c0,1.1-0.5,2-1.5,2.5l-1,0.6c-0.2,0.1-0.3,0.3-0.1,0.5
					l3.5,6.1c0.1,0.2,0.1,0.3-0.2,0.3l-2.5,0c-0.2,0-0.4-0.1-0.5-0.3l-3-5.1c-0.1-0.2-0.3-0.3-0.6-0.3l-2.6,0
					c-0.2,0-0.3,0.1-0.3,0.4l0,5.1c0,0.3-0.2,0.3-0.4,0.3h-2.1c-0.2,0-0.3-0.1-0.3-0.3l0-14.1c0-0.2,0.1-0.4,0.3-0.4l2.1,0
					c0.2,0,0.4,0.1,0.4,0.4v0.3c0,0.3,0.1,0.4,0.4,0.3l5.3-1.1C67.1,0,67.3,0,67.5,0C68.4,0,70,0.7,70,2.5"/>
				<path id="Fill-26" class="st0" d="M83.9,0.5l-5.1,8.4c-0.1,0.2-0.2,0.4-0.2,0.7l0,5c0,0.3-0.1,0.3-0.3,0.3l-2.1,0
					c-0.2,0-0.3-0.1-0.3-0.3l0-5c0-0.2-0.1-0.5-0.2-0.7l-5-8.4c0-0.1,0-0.1,0-0.2c0-0.1,0.1-0.1,0.2-0.1h2.4c0.2,0,0.4,0.1,0.6,0.3
					l3.2,5.9c0.1,0.1,0.1,0.2,0.3,0.2c0.1,0,0.2-0.1,0.3-0.2l3.3-5.9c0.1-0.2,0.3-0.3,0.5-0.3l2.5,0c0.1,0,0.1,0,0.2,0.1
					C83.9,0.4,83.9,0.4,83.9,0.5"/>
			</g>
		</g>
	</g>
</g>
</svg>
