<?xml version="1.0" encoding="utf-8"?>
<!-- Generator: Adobe Illustrator 24.0.0, SVG Export Plug-In . SVG Version: 6.00 Build 0)  -->
<svg version="1.1" id="Layer_1" xmlns="http://www.w3.org/2000/svg" xmlns:xlink="http://www.w3.org/1999/xlink" x="0px" y="0px"
	 viewBox="0 0 118 60" style="enable-background:new 0 0 118 60;" xml:space="preserve">
<style type="text/css">
	.st0{fill-rule:evenodd;clip-rule:evenodd;fill:#FFFFFF;}
</style>
<title>logo/space/DL</title>
<desc>Created with Sketch.</desc>
<g id="logo_x2F_space_x2F_DL">
	<g transform="translate(16.000000, 13.000000)">
		<g id="name">
			<path id="Fill-1" class="st0" d="M9.9,13.1l0-9.7C9.9,3.2,9.8,3,9.5,3L3.7,3C3.5,3,3.4,3.2,3.4,3.4l0,9.7c0,0.2,0.1,0.4,0.3,0.4
				l5.8,0C9.8,13.5,9.9,13.3,9.9,13.1 M12.8,3.2l0,8.2c0,1.1-0.5,2-1.5,2.6l-2.3,1.3c-0.5,0.3-1,0.4-1.5,0.4l-6.6,0
				c-0.2,0-0.3-0.1-0.3-0.3l0-14c0-0.2,0.1-0.4,0.3-0.4H3c0.2,0,0.4,0.1,0.4,0.4v0.3c0,0.3,0.1,0.4,0.4,0.3l5.8-1.1
				c0.3,0,0.5-0.1,0.7-0.1C11.5,0.7,12.8,1.7,12.8,3.2"/>
			<path id="Fill-3" class="st0" d="M18.4,15.6c-1.9,0-3-1.5-3-2.9l0-7.6c0-1.1,0.5-2,1.5-2.6l2.4-1.3c0.4-0.3,0.9-0.4,1.4-0.4
				l5.2,0c0.2,0,0.4,0.1,0.4,0.4v1.5c0,0.2-0.1,0.3-0.4,0.3l-7.2,0c-0.2,0-0.3,0.1-0.3,0.4l0,3.2c0,0.3,0.1,0.4,0.3,0.4l6.8,0
				c0.3,0,0.4,0.1,0.4,0.4l0,1.5c0,0.2-0.1,0.3-0.4,0.3l-6.8,0c-0.2,0-0.3,0.1-0.3,0.4l0,3.5c0,0.3,0.1,0.4,0.3,0.4l7.4,0
				c0.3,0,0.4,0.1,0.4,0.3c0,0.2-0.1,0.4-0.3,0.5l-1.7,1c-0.5,0.3-1,0.4-1.5,0.4L18.4,15.6z"/>
			<path id="Fill-5" class="st0" d="M39.7,9.9l0,1.4c0,1.1-0.5,2-1.5,2.6l-2.4,1.3c-0.5,0.3-1,0.4-1.5,0.4l-5.4,0
				c-0.3,0-0.4-0.1-0.4-0.3l0-1.5c0-0.2,0.1-0.4,0.4-0.4l7.5,0c0.2,0,0.4-0.1,0.4-0.4l0-3.4c0-0.3-0.2-0.4-0.4-0.4l-5.3,0
				c-1.8,0-3-1.4-3-2.9l0-1.2c0-1.1,0.4-2,1.4-2.5L32,1.3c0.4-0.3,1-0.4,1.4-0.4l5.3,0c0.3,0,0.4,0.1,0.4,0.4v1.5
				C39.2,2.9,39,3,38.8,3l-7.4,0c-0.3,0-0.3,0.1-0.3,0.4v3.1c0,0.3,0.1,0.4,0.4,0.4l5.3,0C38,7,39.7,8,39.7,9.9"/>
			<path id="Fill-7" class="st0" d="M44.5,15.3c0,0.2-0.1,0.3-0.4,0.3l-2.1,0c-0.2,0-0.3-0.1-0.3-0.3l0-14.1c0-0.2,0.1-0.3,0.3-0.3
				h2.2c0.2,0,0.4,0.1,0.4,0.3L44.5,15.3z"/>
			<path id="Fill-9" class="st0" d="M49.7,15.8c-1.2,0-2.4-0.9-2.4-2.4l0-8.3c0-1.1,0.5-2,1.4-2.6L51,1.3C51.5,1,52,0.9,52.5,0.9
				l6.1,0c0.2,0,0.3,0.1,0.3,0.4l0,1.5c0,0.2-0.1,0.3-0.3,0.3l-8.1,0c-0.2,0-0.4,0.1-0.4,0.4l0,9.7c0,0.3,0.1,0.4,0.4,0.4l5.4,0
				c0.2,0,0.4-0.1,0.4-0.4v-2.8c0-0.3-0.2-0.4-0.4-0.4h-2.3c-0.3,0-0.4-0.1-0.4-0.3V8.1c0-0.3,0.1-0.4,0.3-0.4l5.1,0
				c0.2,0,0.4,0.1,0.4,0.4l0,7.1c0,0.2-0.1,0.3-0.4,0.3l-2.1,0c-0.2,0-0.4-0.1-0.4-0.3v-0.3c0-0.3-0.2-0.4-0.4-0.3l-5.4,1.1
				C50.1,15.8,49.8,15.8,49.7,15.8"/>
			<path id="Fill-11" class="st0" d="M75,15.3c0,0.2-0.1,0.3-0.3,0.3l-4.3,0c-0.2,0-0.4-0.1-0.5-0.3L64.7,3.1c0-0.1-0.1-0.1-0.2-0.1
				c-0.1,0-0.2,0.1-0.2,0.2l0,12.1c0,0.3-0.1,0.3-0.4,0.3l-2,0c-0.2,0-0.3-0.1-0.3-0.3l0-14.1c0-0.2,0.1-0.3,0.3-0.3l4.4,0
				c0.2,0,0.4,0.1,0.5,0.3l5.2,12.2c0.1,0.1,0.1,0.1,0.2,0.1c0.1,0,0.3-0.1,0.3-0.2l0-12.1c0-0.2,0.1-0.3,0.4-0.3h2
				C74.9,0.9,75,1,75,1.2L75,15.3z"/>
		</g>
		<g id="기본" transform="translate(0.000000, 19.350000)">
			<path id="Fill-13" class="st0" d="M3.2,15c-2.2,0-2.9-1.8-2.9-2.9l0-11.5c0-0.2,0.1-0.4,0.3-0.4l2.1,0c0.2,0,0.4,0.1,0.4,0.4
				l0,11.9c0,0.3,0.1,0.4,0.4,0.4l6.8,0c0.2,0,0.4,0.1,0.4,0.3c0,0.2-0.1,0.4-0.3,0.5l-1.7,1c-0.5,0.3-1,0.4-1.5,0.4L3.2,15z"/>
			<path id="Fill-16" class="st0" d="M14.5,14.7c0,0.2-0.1,0.3-0.4,0.3L12,15c-0.2,0-0.3-0.1-0.3-0.3l0-14.1c0-0.2,0.1-0.3,0.3-0.3
				h2.2c0.2,0,0.4,0.1,0.4,0.3L14.5,14.7z"/>
			<path id="Fill-18" class="st0" d="M26.4,12.5l0-3.3c0-0.3-0.2-0.4-0.5-0.4l-5.5,0c-0.3,0-0.4,0.2-0.4,0.4l0,3.3
				c0,0.2,0.1,0.3,0.4,0.3l5.5,0C26.2,12.8,26.4,12.7,26.4,12.5 M26.4,6.2V2.8c0-0.3-0.2-0.4-0.5-0.4l-5.5,0c-0.3,0-0.4,0.2-0.4,0.4
				v3.4c0,0.2,0.1,0.4,0.4,0.4l5.5,0C26.2,6.6,26.4,6.4,26.4,6.2 M29.3,2.5l0,2c0,0.9-0.3,1.7-1,2.2c-0.1,0.1-0.1,0.2-0.1,0.3
				c0,0.1,0.1,0.2,0.2,0.3c0.7,0.6,1.1,1.3,1.1,2.3v1.1c0,1.1-0.5,2-1.5,2.6l-2.3,1.3C25,14.9,24.5,15,24,15l-6.4,0
				c-0.2,0-0.3-0.1-0.3-0.3l0-14.1c0-0.2,0.1-0.4,0.3-0.4h2.1c0.2,0,0.4,0.1,0.4,0.4v0.3c0,0.3,0.1,0.4,0.4,0.3l5.6-1.1
				c0.3,0,0.6-0.1,0.7-0.1C27.8,0,29.3,0.8,29.3,2.5"/>
			<path id="Fill-20" class="st0" d="M40.5,6.6l0-3.9c0-0.3-0.1-0.4-0.4-0.4l-5.3,0c-0.2,0-0.3,0.1-0.3,0.4l0,3.9
				c0,0.3,0.1,0.4,0.3,0.4l5.3,0C40.4,7,40.5,6.9,40.5,6.6 M43.4,2.5v2.4c0,1.1-0.5,2-1.5,2.5l-1.1,0.6c-0.2,0.1-0.3,0.3-0.1,0.5
				l3.6,6.1c0.1,0.2,0.1,0.3-0.2,0.3l-2.5,0c-0.2,0-0.4-0.1-0.5-0.3l-3-5.1c-0.1-0.2-0.3-0.3-0.6-0.3l-2.7,0c-0.2,0-0.3,0.1-0.3,0.4
				l0,5.1c0,0.3-0.2,0.3-0.4,0.3L32,15c-0.2,0-0.3-0.1-0.3-0.3l0-14.1c0-0.2,0.1-0.4,0.3-0.4h2.1c0.2,0,0.4,0.1,0.4,0.4v0.3
				c0,0.3,0.1,0.4,0.4,0.3l5.4-1.1c0.3,0,0.5-0.1,0.7-0.1C41.9,0,43.4,0.8,43.4,2.5"/>
			<path id="Fill-22" class="st0" d="M53.4,8.7l-1.9-6.4c0-0.1-0.1-0.2-0.3-0.2c-0.1,0-0.2,0.1-0.3,0.2l-1.8,6.4
				c-0.1,0.3,0,0.4,0.3,0.4l3.7,0C53.4,9.1,53.5,9,53.4,8.7L53.4,8.7z M58,14.6c0.1,0.2,0,0.3-0.3,0.3l-2.2,0
				c-0.2,0-0.4-0.1-0.5-0.3l-0.9-3c-0.1-0.2-0.3-0.4-0.5-0.4l-5,0c-0.2,0-0.4,0.2-0.5,0.4l-0.9,3C47.4,14.9,47.3,15,47,15l-2.2,0
				c-0.2,0-0.3-0.1-0.2-0.3l4.3-14.1c0.1-0.2,0.2-0.3,0.5-0.3l3.9,0c0.3,0,0.4,0.1,0.5,0.3L58,14.6z"/>
			<path id="Fill-24" class="st0" d="M68.1,6.6l0-3.9c0-0.3-0.1-0.4-0.4-0.4l-5.3,0c-0.2,0-0.3,0.1-0.3,0.4l0,3.9
				C62,6.9,62.1,7,62.4,7l5.3,0C68,7,68.1,6.9,68.1,6.6 M71,2.5l0,2.5c0,1.1-0.5,2-1.5,2.5l-1.1,0.6c-0.2,0.1-0.3,0.3-0.1,0.5
				l3.6,6.1C72,14.9,72,15,71.7,15l-2.5,0c-0.2,0-0.4-0.1-0.5-0.3l-3-5.1c-0.1-0.2-0.3-0.3-0.6-0.3l-2.7,0c-0.2,0-0.3,0.1-0.3,0.4
				l0,5.1c0,0.3-0.2,0.3-0.4,0.3h-2.1c-0.2,0-0.3-0.1-0.3-0.3l0-14.1c0-0.2,0.1-0.4,0.3-0.4l2.1,0c0.2,0,0.4,0.1,0.4,0.4v0.3
				c0,0.3,0.1,0.4,0.4,0.3l5.4-1.1C68.1,0,68.3,0,68.5,0C69.5,0,71,0.7,71,2.5"/>
			<path id="Fill-26" class="st0" d="M85.1,0.5L80,8.9c-0.1,0.2-0.2,0.4-0.2,0.7l0,5c0,0.3-0.1,0.3-0.3,0.3l-2.1,0
				c-0.2,0-0.3-0.1-0.3-0.3l0-5c0-0.2-0.1-0.5-0.2-0.7l-5.1-8.4c0-0.1,0-0.1,0-0.2c0-0.1,0.1-0.1,0.2-0.1h2.4c0.2,0,0.4,0.1,0.6,0.3
				l3.3,5.9c0.1,0.1,0.1,0.2,0.3,0.2c0.1,0,0.2-0.1,0.3-0.2l3.3-5.9c0.1-0.2,0.3-0.3,0.5-0.3l2.5,0c0.1,0,0.1,0,0.2,0.1
				C85.2,0.4,85.2,0.4,85.1,0.5"/>
		</g>
	</g>
</g>
</svg>
