<?xml version="1.0" encoding="utf-8"?>
<!-- Generator: Adobe Illustrator 24.0.0, SVG Export Plug-In . SVG Version: 6.00 Build 0)  -->
<svg version="1.1" id="Layer_1" xmlns="http://www.w3.org/2000/svg" xmlns:xlink="http://www.w3.org/1999/xlink" x="0px" y="0px"
	 viewBox="0 0 118 60" style="enable-background:new 0 0 118 60;" xml:space="preserve">
<style type="text/css">
	.st0{fill-rule:evenodd;clip-rule:evenodd;fill:#FFFFFF;}
</style>
<title>logo/space/VN</title>
<desc>Created with Sketch.</desc>
<g id="logo_x2F_space_x2F_VN">
	<g id="logo_x2F_space_x2F_DL" transform="translate(21.000000, 7.000000)">
		<g id="Group-27">
			<g id="Group" transform="translate(0.000000, 23.816966)">
				<path id="Fill-6" class="st0" d="M59.9,17.7l-2.3-0.1L57.9,3L60.3,3L59.9,17.7z M55.6,0.6l-0.5,19.3l7,0.2l0.5-19.3L55.6,0.6z"
					/>
				<path id="Fill-7" class="st0" d="M10.3,7.9c0,1.7-0.5,4.3-3.2,4.2l-1.7,0l-0.1,6l-2.3-0.1L3.2,3.4l4.2,0.1
					C9.6,3.5,10.4,5.3,10.3,7.9L10.3,7.9z M0.9,1L0.5,20.3l11.9,0.3l0.5-19.3L0.9,1z"/>
				<path id="Fill-9" class="st0" d="M6.7,5.7l-1.2,0L5.4,9.9l1.3,0c0.7,0,1.2-1,1.2-1.9C8,6.8,7.7,5.7,6.7,5.7"/>
				<path id="Fill-11" class="st0" d="M19.7,17h-5.8V2.4h2.3v12.2h3.5V17z M11.5,19.4H22V0H11.5V19.4z"/>
				<path id="Fill-13" class="st0" d="M30.2,18.7l-0.7-3.2l-3.2,0l-0.6,3.3l-2.3,0L26.3,4l3.1,0l3.3,14.6L30.2,18.7z M34.7,1.6
					L20.8,1.8l0.3,19.3L35,20.9L34.7,1.6z"/>
				<polygon id="Fill-15" class="st0" points="27.7,6.8 26.7,13.2 29,13.2 27.7,6.8 				"/>
				<path id="Fill-17" class="st0" d="M38.8,17.5c-2.9,0-3.4-2.3-3.2-4.8l2.3,0c0,1.4,0,2.6,1.3,2.6c0.8,0,1.2-0.6,1.2-1.6
					c0-2.6-4.7-2.9-4.6-7.3c0-2.3,0.9-4.1,3.8-4.1c2.3,0,3.4,1.4,3.2,4.5l-2.3,0c0-1.1-0.1-2.2-1-2.2c-0.8,0-1.2,0.5-1.2,1.5
					c0,2.8,4.7,2.6,4.6,7.2C42.8,17.1,40.6,17.5,38.8,17.5L38.8,17.5z M33.5,0.2l-0.3,19.3l11.9,0.2l0.3-19.3L33.5,0.2z"/>
				<path id="Fill-19" class="st0" d="M54,6.3l-2.6-0.1L51,18.4l-2.3-0.1l0.4-12.2L46.5,6l0.1-2.4l7.5,0.2L54,6.3z M44.3,1.2
					l-0.6,19.3l12.2,0.4l0.6-19.3L44.3,1.2z"/>
				<path id="Fill-21" class="st0" d="M68.1,19.1c-3.9-0.1-3.8-3.8-3.7-7.7c0.1-3.9,0.1-7.6,4-7.5c2.4,0,3.3,1.8,3.2,4.9l-2.3,0
					c0-2-0.2-2.7-0.9-2.7c-1.3,0-1.5,1.6-1.6,5.4c-0.1,3.8,0.1,5.4,1.4,5.4c1.1,0,1.1-1.8,1.1-3l2.3,0
					C71.5,17.9,70.3,19.2,68.1,19.1L68.1,19.1z M62.2,1.8l-0.4,19.3l11.9,0.2L74.1,2L62.2,1.8z"/>
			</g>
			<path id="Fill-1" class="st0" d="M0,2.5l0.5,19.3l13.1-0.4L13.1,2.2L0,2.5z M6.9,15.3L8.6,4.6l2.3-0.1L8.3,19.3l-2.7,0.1L2.4,4.8
				l2.4-0.1L6.9,15.3L6.9,15.3z"/>
			<path id="Fill-2" class="st0" d="M12.8,0.4l-0.5,19.3l7,0.2l0.5-19.3L12.8,0.4z M14.7,17.4l0.4-14.7l2.3,0.1l-0.4,14.7L14.7,17.4
				z"/>
			<path id="Fill-3" class="st0" d="M28.1,19.2l-2.8-0.1l-3-10.3l0,0L21.9,19l-2.2-0.1l0.5-14.7l3.2,0.1L26,14.6l0,0l0.3-10.2
				l2.2,0.1L28.1,19.2z M17.9,1.8l-0.6,19.3l13,0.4L31,2.2L17.9,1.8z"/>
			<path id="Fill-4" class="st0" d="M37.8,13.1v5.1h-2.3v-5.1l-2.9-9.6h2.6l1.7,6.2l1.8-6.2h2.4L37.8,13.1z M30.2,20.5h13.1V1.2
				H30.2V20.5z"/>
			<path id="Fill-5" class="st0" d="M49.8,20L44,19.6l1-14.7l2.3,0.2l-0.8,12.2l3.5,0.2L49.8,20z M42.8,2.5l-1.3,19.3L52,22.4
				l1.3-19.3L42.8,2.5z"/>
			<path id="Fill-24" class="st0" d="M60.4,14.5c0,1.4,0.6,2.3,1.7,2.3c0.7,0,1.3-0.3,1.7-1l-2.3-3.7C60.9,12.7,60.4,13.6,60.4,14.5
				L60.4,14.5z M63.1,6.9c0-0.8-0.4-1.3-1-1.3c-0.5,0-1,0.5-1,1.2c0,0.8,0.4,1.5,0.8,2.1C62.5,8.5,63.1,7.8,63.1,6.9L63.1,6.9z
				 M65.8,18.8l-0.7-1.2C64.3,18.7,63.2,19,62,19c-2.6,0-4-1.6-4-4.5c0-2,1-3.2,2.2-4.2c-0.6-1-1.2-2.2-1.2-3.7
				c0-1.6,1.5-2.9,3.4-2.9c1.1,0,2.8,0.7,2.8,2.9c0,1.9-1,2.9-1.9,4l1.8,3c0.2-1,0.2-1.5,0.2-2.9h1.9c0,1.5,0,3.4-0.8,5l1.7,3H65.8z
				 M55.7,21.1h14.8V1.7H55.7V21.1z"/>
		</g>
	</g>
</g>
</svg>
