<?xml version="1.0" encoding="UTF-8"?>
<svg width="118px" height="60px" viewBox="0 0 118 60" version="1.1" xmlns="http://www.w3.org/2000/svg" xmlns:xlink="http://www.w3.org/1999/xlink">
    <!-- Generator: Sketch 55.1 (78136) - https://sketchapp.com -->
    <title>logo/space/CP</title>
    <desc>Created with Sketch.</desc>
    <g id="logo/space/CP" stroke="none" stroke-width="1" fill="none" fill-rule="evenodd">
        <g transform="translate(17.000000, 5.000000)" fill="#000000" id="Group-3">
            <g>
                <path d="M75.2060006,-3.55271368e-15 C77.3827252,-3.55271368e-15 79.1653308,1.77928258 79.1653308,3.95560877 L79.1653308,45.706145 C79.1653308,47.8824712 77.3827252,49.6617538 75.2060006,49.6617538 L3.95949507,49.6617538 C1.78112141,49.6617538 0.000164903381,47.8824712 0.000164903381,45.706145 L0.000164903381,3.95560877 C0.000164903381,1.77928258 1.78112141,-3.55271368e-15 3.95949507,-3.55271368e-15 L75.2060006,-3.55271368e-15 Z M75.2060006,2.66727639 L3.95949507,2.66727639 C3.2586557,2.66727639 2.6683016,3.25707561 2.6683016,3.95560877 L2.6683016,45.706145 C2.6683016,46.4063257 3.2586557,46.9961249 3.95949507,46.9961249 L75.2060006,46.9961249 C75.9035419,46.9961249 76.493896,46.4063257 76.493896,45.706145 L76.493896,3.95560877 C76.493896,3.25707561 75.9035419,2.66727639 75.2060006,2.66727639 L75.2060006,2.66727639 Z M39.6017117,29.6019902 L39.6017117,38.2232733 C39.6017117,39.1524542 39.176261,39.8806421 38.3698835,40.3221677 L36.5971721,41.3057156 C36.1684234,41.5314209 35.7907946,41.6401548 35.4362523,41.6401548 L34.1285685,41.6401548 C33.8333915,41.6401548 33.6552958,41.4589316 33.6552958,41.1574421 L33.6552958,40.142592 C33.6552958,39.8460449 33.8267953,39.6763541 34.1285685,39.6763541 L36.9665557,39.6763541 C37.1034255,39.6763541 37.1034255,39.6236346 37.1034255,39.5808 L37.1034255,29.6019902 C37.1034255,29.4866663 37.1034255,29.1373997 37.5305253,29.1373997 L39.1383332,29.1373997 C39.4335103,29.1373997 39.6017117,29.3070906 39.6017117,29.6019902 L39.6017117,29.6019902 Z M39.5819233,26.3597419 L39.5819233,27.6398369 C39.5819233,27.830945 39.5027697,28.0599453 39.1201939,28.0599453 L37.4942465,28.0599453 C37.126512,28.0599453 37.0819881,27.8210601 37.0819881,27.6398369 L37.0819881,26.3597419 C37.0819881,25.9544609 37.3392374,25.893504 37.4942465,25.893504 L39.1201939,25.893504 C39.3972315,25.893504 39.5819233,26.0796697 39.5819233,26.3597419 L39.5819233,26.3597419 Z M32.1893048,31.1835747 C32.1893048,31.0764883 32.1695164,31.0435386 32.0359446,31.0435386 L29.0726309,31.0435386 C28.9407082,31.0435386 28.9209198,31.0764883 28.9209198,31.1835747 L28.9209198,36.1507386 C28.9209198,36.2232279 28.9209198,36.2462926 29.0726309,36.2462926 L32.0359446,36.2462926 C32.1893048,36.2462926 32.1893048,36.2232279 32.1893048,36.1507386 L32.1893048,31.1835747 Z M33.5266712,36.9052862 L31.7011908,37.9086039 C31.3598408,38.103007 30.980563,38.1936186 30.5056413,38.1936186 L28.8153816,38.1936186 C27.3263041,38.1936186 26.4044942,36.979423 26.4044942,35.852544 L26.4044942,32.434015 C26.4044942,31.5278988 26.8200507,30.8425455 27.6379715,30.3977249 L29.4090338,29.3977022 C29.7767683,29.1884717 30.1791326,29.0813853 30.6029343,29.0813853 L32.2948429,29.0813853 C33.4804982,29.0813853 34.7040813,29.9743215 34.7040813,31.4685894 L34.7040813,34.8558163 C34.7040813,35.7388676 34.3050152,36.4275159 33.5266712,36.9052862 L33.5266712,36.9052862 Z M66.7959282,36.720768 C66.7959282,36.9365884 66.6821449,37.1046317 66.4479821,37.231488 L65.1831732,37.9613234 C64.833578,38.1590214 64.4592473,38.2479855 63.9661862,38.2479855 L62.8877181,38.2479855 C61.4002896,38.2479855 60.4768307,37.0420274 60.4768307,35.9250333 L60.4768307,28.041823 C60.4768307,27.7782255 60.592263,27.6101822 60.8429162,27.5080382 L62.5282287,27.0945197 C62.5661565,27.0862823 62.6024352,27.0829874 62.6354159,27.0829874 C62.8563865,27.0829874 63.0130447,27.2329084 63.0130447,27.4470813 L63.0130447,29.0863277 C63.0130447,29.1126875 63.0146937,29.1258674 63.0146937,29.1341048 C63.0212898,29.1341048 63.0328331,29.1341048 63.0509724,29.1373997 L65.9846036,29.1373997 C66.2863768,29.1373997 66.4578763,29.3070906 66.4578763,29.6019902 L66.4578763,30.6794446 C66.4578763,30.7717037 66.4232466,31.0847257 65.9846036,31.0847257 L63.1317751,31.0847257 C63.0410782,31.0847257 63.0130447,31.0847257 63.0130447,31.2412366 L63.0130447,36.1886307 C63.0130447,36.2545301 63.0229389,36.2710049 63.0229389,36.2710049 C63.0229389,36.2710049 63.0460253,36.2858323 63.1317751,36.2858323 L66.3193574,36.2858323 C66.6194816,36.2858323 66.7959282,36.4489332 66.7959282,36.720768 L66.7959282,36.720768 Z M58.9992964,36.720768 C58.9992964,36.9530632 58.8904602,37.1309915 58.6793838,37.2331355 L57.3980846,37.9481435 C57.0616817,38.1392516 56.6642645,38.2331582 56.1876937,38.2331582 L53.8361715,38.2331582 C52.3388488,38.2331582 51.4104428,37.0107252 51.4104428,35.8789037 L51.4104428,32.4900294 C51.4104428,31.6036831 51.8391916,30.9002075 52.6439201,30.4537394 L54.4298237,29.4388893 C54.7810679,29.2280114 55.1784851,29.1209249 55.6105319,29.1209249 L58.540865,29.1209249 C58.6694896,29.1209249 58.9712628,29.165407 58.9712628,29.5871628 L58.9712628,30.6646173 C58.9712628,30.9166823 58.8096575,31.0666034 58.540865,31.0666034 L54.0934208,31.0666034 C54.0175653,31.0666034 53.9614981,31.0797832 53.9614981,31.2247618 L53.9614981,36.1886307 C53.9614981,36.2495876 53.9614981,36.2858323 54.0934208,36.2858323 L58.5738457,36.2858323 C58.8409891,36.2858323 58.9992964,36.4489332 58.9992964,36.720768 L58.9992964,36.720768 Z M47.3653629,31.1786323 C47.3653629,31.0748408 47.3323822,31.0056465 47.1790221,31.0056465 L44.3097032,31.0056465 C44.2058141,31.0056465 44.1563431,31.0303587 44.1563431,31.1786323 L44.1563431,32.7239721 C44.1563431,32.7750441 44.1563431,32.8030514 44.3097032,32.8030514 L47.1790221,32.8030514 C47.3653629,32.8030514 47.3653629,32.7536268 47.3653629,32.7239721 L47.3653629,31.1786323 Z M49.8471588,31.4916542 L49.8471588,33.0205192 C49.8471588,34.1984702 48.7670416,34.5823339 48.2442979,34.5823339 L44.3097032,34.5823339 C44.1959199,34.5823339 44.1777805,34.6136361 44.1777805,34.7075427 L44.1777805,36.2051055 C44.1777805,36.2907747 44.1777805,36.3006596 44.3097032,36.3006596 L49.271646,36.3006596 C49.5569288,36.3006596 49.7333754,36.462113 49.7333754,36.720768 C49.7333754,36.9497683 49.6063998,37.1309915 49.3771841,37.234783 L48.1173223,37.946496 C47.7908136,38.1408991 47.3999926,38.2331582 46.8887921,38.2331582 L44.0887327,38.2331582 C42.7596115,38.2331582 41.6778453,37.177121 41.6778453,35.8789037 L41.6778453,32.4587272 C41.6778453,31.5460212 42.0917528,30.8656103 42.9096735,30.4339695 L44.6790868,29.4224145 C45.0451723,29.2115365 45.4491856,29.1044501 45.8729873,29.1044501 L47.3868003,29.1044501 C48.4075523,29.1044501 49.8471588,29.8458178 49.8471588,31.4916542 L49.8471588,31.4916542 Z M26.0499519,29.4767814 L26.0499519,30.6794446 C26.0499519,30.9249197 25.8685582,31.0847257 25.5915205,31.0847257 L22.4154814,31.0847257 C22.3313807,31.0847257 22.2984,31.0847257 22.2984,31.2247618 L22.2984,37.8130498 C22.2984,38.0717048 22.1219534,38.2331582 21.8383196,38.2331582 L20.2123723,38.2331582 C19.9270894,38.2331582 19.7836235,38.096417 19.7836235,37.8295246 L19.7836235,29.6019902 C19.7836235,29.2181265 20.0177863,29.1373997 20.2123723,29.1373997 L21.8383196,29.1373997 C22.1137082,29.1373997 22.2984,29.3235654 22.2984,29.6019902 L22.2984,29.8524077 C22.2984,29.9001848 22.3082942,29.9150121 22.3082942,29.9150121 C22.3082942,29.9150121 22.3280826,29.931487 22.4154814,29.931487 C22.4534092,29.931487 22.492986,29.931487 22.5210196,29.9183071 L23.4378824,29.3334503 C23.8352995,29.1324573 24.2129283,29.0418457 24.6416771,29.0418457 L25.5915205,29.0418457 C25.8669092,29.0418457 26.0499519,29.2181265 26.0499519,29.4767814 L26.0499519,29.4767814 Z M15.8391346,28.3861471 C15.8391346,28.2774132 15.8028559,28.2378735 15.6973177,28.2378735 L11.3949885,28.2378735 C11.3257291,28.2378735 11.2878013,28.2378735 11.2878013,28.3861471 L11.2878013,31.8705755 C11.2878013,31.9644821 11.2878013,31.9727195 11.3949885,31.9727195 L15.6973177,31.9727195 C15.8391346,31.9727195 15.8391346,31.9348274 15.8391346,31.8705755 L15.8391346,28.3861471 Z M18.4957281,28.1818591 L18.4957281,30.4883365 C18.4957281,31.4801218 18.0752244,32.1901874 17.2094817,32.6580728 L15.3378283,33.7239948 C14.9882332,33.9233404 14.590816,34.013952 14.0878607,34.013952 L11.3949885,34.013952 C11.3422194,34.013952 11.2878013,34.013952 11.2878013,34.1473982 L11.2878013,37.7949275 C11.2878013,37.898719 11.2515226,38.2331582 10.7700047,38.2331582 L9.06160566,38.2331582 C8.78621702,38.2331582 8.64769818,38.0898271 8.64769818,37.8081074 L8.64769818,26.6513466 C8.64769818,26.254303 8.90824552,26.196641 9.06160566,26.196641 L10.7700047,26.196641 C11.078374,26.196641 11.2878013,26.3778643 11.2878013,26.6513466 L11.2878013,26.9067066 C11.2878013,26.9824908 11.3026426,27.0039081 11.3026426,27.0039081 C11.3141858,26.9956707 11.3389213,26.9940232 11.3768491,26.9824908 L15.7319474,26.1043819 C15.9891967,26.0631948 16.1854317,26.0368351 16.3354938,26.0368351 C17.2325682,26.0368351 18.4957281,26.7024186 18.4957281,28.1818591 L18.4957281,28.1818591 Z M64.8500683,15.9476439 L67.8034879,15.9476439 C67.9980739,15.9476439 67.9980739,15.8916294 67.9980739,15.8586797 L67.9980739,14.2672103 C67.9980739,14.1370591 67.9420067,14.0843396 67.8034879,14.0843396 L64.8500683,14.0843396 C64.737934,14.0843396 64.686814,14.1106994 64.686814,14.2672103 L64.686814,15.8586797 C64.686814,15.9146942 64.686814,15.9476439 64.8500683,15.9476439 L64.8500683,15.9476439 Z M64.7049533,17.9015597 L64.7049533,19.4468996 C64.7049533,19.5358637 64.7049533,19.5506911 64.8500683,19.5506911 L69.9637222,19.5506911 C70.3100193,19.5506911 70.4353458,19.768159 70.4353458,19.9757419 C70.4353458,20.2113321 70.3034231,20.3974978 70.0659622,20.5012893 L68.7698217,21.2327721 C68.4367168,21.4337652 68.0327036,21.5293192 67.5050127,21.5293192 L64.6175546,21.5293192 C63.2521546,21.5293192 62.1423548,20.4419799 62.1423548,19.1075179 L62.1423548,15.5868449 C62.1423548,14.6510741 62.5694546,13.9492459 63.4088128,13.5044253 L65.2293461,12.4632155 C65.6086239,12.2457476 66.0225314,12.1370137 66.4611744,12.1370137 L68.0162132,12.1370137 C69.0402632,12.1370137 70.5491292,12.9146261 70.5491292,14.5901172 L70.5491292,16.1667592 C70.5491292,17.3776599 69.4393294,17.7664661 68.9000953,17.7664661 L64.8500683,17.7664661 C64.7263908,17.7664661 64.7049533,17.8060057 64.7049533,17.9015597 L64.7049533,17.9015597 Z M55.3978066,21.1190957 L55.3978066,12.6460862 C55.3978066,12.2523375 55.6352674,12.1683159 55.8364495,12.1683159 L57.5102189,12.1683159 C57.7922036,12.1683159 57.9785445,12.359424 57.9785445,12.6460862 L57.9785445,12.9014462 C57.9785445,12.975583 57.9785445,12.9904103 58.1088181,12.9904103 C58.1450969,12.9904103 58.1813756,12.9904103 58.2061111,12.975583 L59.1625507,12.3709564 C59.5698621,12.1650209 59.957385,12.0744093 60.396028,12.0744093 L61.3805012,12.0744093 C61.6591879,12.0744093 61.8471778,12.2506901 61.8471778,12.515935 L61.8471778,13.7548428 C61.8471778,14.0036129 61.664135,14.1650663 61.3805012,14.1650663 L58.1088181,14.1650663 C58.0164722,14.1650663 57.9785445,14.1716563 57.9785445,14.3182823 L57.9785445,21.1026209 C57.9785445,21.3645708 57.8004488,21.5293192 57.5102189,21.5293192 L55.8364495,21.5293192 C55.5445706,21.5293192 55.3978066,21.3909306 55.3978066,21.1190957 L55.3978066,21.1190957 Z M52.2893778,21.5293192 L50.6320989,21.5293192 C50.3352728,21.5293192 50.1951049,21.3892831 50.1951049,21.1026209 L50.1951049,20.8439659 C50.1951049,20.7928939 50.1819126,20.7731241 50.1786146,20.7698292 C50.15223,20.7681817 50.1373887,20.7698292 50.1077061,20.7797141 L46.9069315,21.6215783 C46.7222397,21.6742978 46.5227066,21.6742978 46.34626,21.6742978 C45.2018305,21.6742978 44.2734245,20.7681817 44.2734245,19.6561301 L44.2734245,12.6460862 C44.2734245,12.2292728 44.5554093,12.1683159 44.7236107,12.1683159 L46.3990291,12.1683159 C46.6612255,12.1683159 46.8310759,12.356129 46.8310759,12.6460862 L46.8310759,19.4304248 C46.8310759,19.5029141 46.8310759,19.5342163 46.9959793,19.5342163 L50.0318505,19.5342163 C50.1951049,19.5342163 50.1951049,19.4749068 50.1951049,19.4304248 L50.1951049,12.6460862 C50.1951049,12.2523375 50.4325658,12.1683159 50.6320989,12.1683159 L52.2893778,12.1683159 C52.5779587,12.1683159 52.7577034,12.3511866 52.7577034,12.6460862 L52.7577034,21.1190957 C52.7577034,21.242657 52.7115305,21.5293192 52.2893778,21.5293192 L52.2893778,21.5293192 Z M42.0637192,20.4963468 L40.7576844,21.249247 C40.4047912,21.4518875 40.007374,21.5474415 39.5110149,21.5474415 L38.396268,21.5474415 C36.8692627,21.5474415 35.9210683,20.3068862 35.9210683,19.1569425 L35.9210683,11.0381419 C35.9210683,10.7646596 36.0365006,10.5966163 36.2937499,10.4928248 L38.0252354,10.0677739 C38.3220615,10.0018746 38.5182965,10.1715654 38.5182965,10.4236305 L38.5182965,12.1139489 C38.5182965,12.1419561 38.5215946,12.158431 38.5265417,12.1666684 C38.5281907,12.1666684 38.539734,12.1683159 38.5644695,12.1683159 L41.5854994,12.1683159 C41.8922197,12.1683159 42.0686663,12.3413017 42.0686663,12.6460862 L42.0686663,13.7548428 C42.0686663,13.8784041 42.0224934,14.1650663 41.5854994,14.1650663 L38.6485702,14.1650663 C38.5562243,14.1650663 38.5182965,14.1650663 38.5182965,14.3314622 L38.5182965,19.4304248 C38.5182965,19.5243314 38.5182965,19.5342163 38.6485702,19.5342163 L41.9317965,19.5342163 C42.2352187,19.5342163 42.4182615,19.6973172 42.4182615,19.9757419 C42.4182615,20.2014472 42.3028291,20.3711381 42.0637192,20.4963468 L42.0637192,20.4963468 Z M30.7167176,21.1190957 L30.7167176,9.53563665 C30.7167176,9.24238452 30.8931642,9.05951381 31.1833942,9.05951381 L32.8423222,9.05951381 C33.0880282,9.05951381 33.2793161,9.26874426 33.2793161,9.53563665 L33.2793161,21.1190957 C33.2793161,21.3662183 33.1061676,21.5293192 32.8423222,21.5293192 L31.1833942,21.5293192 C30.8733758,21.5293192 30.7167176,21.3909306 30.7167176,21.1190957 L30.7167176,21.1190957 Z M27.5720101,21.5293192 L25.9114331,21.5293192 C25.6195541,21.5293192 25.4744391,21.3892831 25.4744391,21.1026209 L25.4744391,20.8439659 C25.4744391,20.786304 25.4628959,20.7698292 25.4612469,20.7698292 C25.4365113,20.7681817 25.4167229,20.7698292 25.3886894,20.7797141 L22.1928619,21.6215783 C22.004872,21.6742978 21.8069879,21.6742978 21.6321904,21.6742978 C20.4844628,21.6742978 19.5544078,20.7681817 19.5544078,19.6561301 L19.5544078,12.6460862 C19.5544078,12.2292728 19.8363925,12.1683159 20.004594,12.1683159 L21.6783633,12.1683159 C21.8976848,12.1683159 22.1153573,12.3165894 22.1153573,12.6460862 L22.1153573,19.4304248 C22.1153573,19.506209 22.1153573,19.5342163 22.2769626,19.5342163 L25.3144828,19.5342163 C25.4744391,19.5342163 25.4744391,19.4798493 25.4744391,19.4304248 L25.4744391,12.6460862 C25.4744391,12.2523375 25.7119,12.1683159 25.9114331,12.1683159 L27.5720101,12.1683159 C27.858942,12.1683159 28.0403357,12.3511866 28.0403357,12.6460862 L28.0403357,21.1190957 C28.0403357,21.2146498 28.005706,21.5293192 27.5720101,21.5293192 L27.5720101,21.5293192 Z M8.61306847,19.0449135 L8.61306847,12.9492232 C8.61306847,11.9788552 9.05006243,11.23584 9.91085807,10.7432423 L11.856718,9.69544258 C12.201366,9.4895071 12.636711,9.37088826 13.080301,9.37088826 L17.1946404,9.37088826 C17.4881684,9.37088826 17.662966,9.54222658 17.662966,9.83218374 L17.662966,11.0035448 C17.662966,11.2704372 17.4881684,11.4318906 17.1946404,11.4318906 L11.4362143,11.4318906 C11.3636569,11.4318906 11.32408,11.4318906 11.32408,11.5834591 L11.32408,19.3332232 C11.32408,19.4683169 11.3488156,19.4683169 11.4362143,19.4683169 L17.3595438,19.4683169 C17.6431776,19.4683169 17.8295184,19.6314178 17.8295184,19.8801879 C17.8295184,20.1273105 17.7058409,20.3250085 17.4733271,20.4485698 L16.0485619,21.2179448 C15.6692841,21.4271752 15.2570257,21.5293192 14.7903491,21.5293192 L11.2053496,21.5293192 C9.94878585,21.5293192 8.61306847,20.6594477 8.61306847,19.0449135 L8.61306847,19.0449135 Z" id="Fill-1"></path>
            </g>
        </g>
    </g>
</svg>