<?xml version="1.0" encoding="utf-8"?>
<!-- Generator: Adobe Illustrator 24.0.0, SVG Export Plug-In . SVG Version: 6.00 Build 0)  -->
<svg version="1.1" id="Layer_1" xmlns="http://www.w3.org/2000/svg" xmlns:xlink="http://www.w3.org/1999/xlink" x="0px" y="0px"
	 viewBox="0 0 118 60" style="enable-background:new 0 0 118 60;" xml:space="preserve">
<style type="text/css">
	.st0{fill-rule:evenodd;clip-rule:evenodd;fill:#FFFFFF;}
</style>
<title>logo/space/ML</title>
<desc>Created with Sketch.</desc>
<g id="logo_x2F_space_x2F_ML">
	<g id="logo_x2F_space_x2F_DL" transform="translate(16.000000, 13.000000)">
		<g id="Group">
			<g id="기본" transform="translate(0.000000, 19.264000)">
				<path id="Fill-13" class="st0" d="M3.2,15.5c-2.2,0-2.9-1.8-2.9-3l0-11.9c0-0.3,0.1-0.4,0.3-0.4l2.1,0c0.2,0,0.4,0.1,0.4,0.4
					l0,12.3c0,0.3,0.1,0.4,0.4,0.4l6.8,0c0.2,0,0.4,0.1,0.4,0.3c0,0.2-0.1,0.4-0.3,0.5l-1.7,1c-0.5,0.3-1,0.4-1.5,0.4L3.2,15.5z"/>
				<path id="Fill-16" class="st0" d="M14.5,15.2c0,0.3-0.1,0.3-0.4,0.3l-2.1,0c-0.2,0-0.3-0.1-0.3-0.3l0-14.6
					c0-0.2,0.1-0.4,0.3-0.4h2.2c0.2,0,0.4,0.1,0.4,0.4L14.5,15.2z"/>
				<path id="Fill-18" class="st0" d="M26.4,12.9l0-3.4c0-0.3-0.2-0.5-0.5-0.5l-5.5,0C20.2,9,20,9.2,20,9.5l0,3.5
					c0,0.3,0.1,0.4,0.4,0.4l5.5,0C26.2,13.3,26.4,13.2,26.4,12.9 M26.4,6.4V2.9c0-0.3-0.2-0.4-0.5-0.4l-5.5,0
					c-0.3,0-0.4,0.2-0.4,0.4v3.6c0,0.3,0.1,0.4,0.4,0.4l5.5,0C26.2,6.8,26.4,6.7,26.4,6.4 M29.3,2.6l0,2.1c0,0.9-0.3,1.7-1,2.3
					c-0.1,0.1-0.1,0.2-0.1,0.3c0,0.1,0.1,0.2,0.2,0.3C29,8.2,29.3,9,29.3,9.9v1.2c0,1.2-0.5,2.1-1.5,2.7l-2.3,1.4
					c-0.5,0.3-1,0.4-1.5,0.4l-6.4,0c-0.2,0-0.3-0.1-0.3-0.3l0-14.6c0-0.3,0.1-0.4,0.3-0.4h2.1c0.2,0,0.4,0.1,0.4,0.4v0.3
					c0,0.3,0.1,0.4,0.4,0.3l5.6-1.1c0.3,0,0.6-0.1,0.7-0.1C27.8,0,29.3,0.8,29.3,2.6"/>
				<path id="Fill-20" class="st0" d="M40.5,6.9l0-4c0-0.3-0.1-0.4-0.4-0.4l-5.3,0c-0.2,0-0.3,0.1-0.3,0.4l0,4
					c0,0.3,0.1,0.4,0.3,0.4l5.3,0C40.4,7.3,40.5,7.1,40.5,6.9 M43.4,2.6v2.5c0,1.2-0.5,2-1.5,2.6l-1.1,0.6c-0.2,0.1-0.3,0.3-0.1,0.5
					l3.6,6.3c0.1,0.2,0.1,0.3-0.2,0.3l-2.5,0c-0.2,0-0.4-0.1-0.5-0.3l-3-5.3c-0.1-0.2-0.3-0.4-0.6-0.4l-2.7,0
					c-0.2,0-0.3,0.1-0.3,0.4l0,5.2c0,0.3-0.2,0.4-0.4,0.4l-2.1,0c-0.2,0-0.3-0.1-0.3-0.3l0-14.6c0-0.3,0.1-0.4,0.3-0.4h2.1
					c0.2,0,0.4,0.1,0.4,0.4v0.3c0,0.3,0.1,0.4,0.4,0.3l5.4-1.1c0.3,0,0.5-0.1,0.7-0.1C41.9,0,43.4,0.8,43.4,2.6"/>
				<path id="Fill-22" class="st0" d="M53.4,9l-1.9-6.7c0-0.1-0.1-0.2-0.3-0.2c-0.1,0-0.2,0.1-0.3,0.2L49.1,9
					c-0.1,0.3,0,0.4,0.3,0.4l3.7,0C53.4,9.4,53.5,9.3,53.4,9L53.4,9z M58,15.2c0.1,0.2,0,0.3-0.3,0.3l-2.2,0c-0.2,0-0.4-0.1-0.5-0.4
					L54.3,12c-0.1-0.2-0.3-0.4-0.5-0.4l-5,0c-0.2,0-0.4,0.2-0.5,0.4l-0.9,3.1c-0.1,0.3-0.2,0.4-0.5,0.4l-2.2,0
					c-0.2,0-0.3-0.1-0.2-0.3l4.3-14.6c0.1-0.2,0.2-0.4,0.5-0.4l3.9,0c0.3,0,0.4,0.1,0.5,0.4L58,15.2z"/>
				<path id="Fill-24" class="st0" d="M68.1,6.9l0-4c0-0.3-0.1-0.4-0.4-0.4l-5.3,0c-0.2,0-0.3,0.1-0.3,0.4l0,4
					c0,0.3,0.1,0.4,0.3,0.4l5.3,0C68,7.3,68.1,7.1,68.1,6.9 M71,2.6l0,2.5c0,1.2-0.5,2-1.5,2.6l-1.1,0.6c-0.2,0.1-0.3,0.3-0.1,0.5
					l3.6,6.3c0.1,0.2,0.1,0.3-0.2,0.3l-2.5,0c-0.2,0-0.4-0.1-0.5-0.3l-3-5.3c-0.1-0.2-0.3-0.4-0.6-0.4l-2.7,0
					c-0.2,0-0.3,0.1-0.3,0.4l0,5.2c0,0.3-0.2,0.4-0.4,0.4h-2.1c-0.2,0-0.3-0.1-0.3-0.3l0-14.6c0-0.3,0.1-0.4,0.3-0.4l2.1,0
					c0.2,0,0.4,0.1,0.4,0.4v0.3c0,0.3,0.1,0.4,0.4,0.3l5.4-1.1C68.1,0,68.3,0,68.5,0C69.5,0,71,0.8,71,2.6"/>
				<path id="Fill-26" class="st0" d="M85.1,0.5L80,9.3c-0.1,0.2-0.2,0.4-0.2,0.7l0,5.2c0,0.3-0.1,0.4-0.3,0.4l-2.1,0
					c-0.2,0-0.3-0.1-0.3-0.4l0-5.2c0-0.3-0.1-0.5-0.2-0.7l-5.1-8.7c0-0.1,0-0.1,0-0.2c0-0.1,0.1-0.1,0.2-0.1h2.4
					c0.2,0,0.4,0.1,0.6,0.4l3.3,6.1c0.1,0.1,0.1,0.2,0.3,0.2c0.1,0,0.2-0.1,0.3-0.2l3.3-6.1c0.1-0.2,0.3-0.4,0.5-0.4l2.5,0
					c0.1,0,0.1,0,0.2,0.1C85.2,0.4,85.2,0.5,85.1,0.5"/>
			</g>
			<path id="Fill-9" class="st0" d="M18.1,15.2c0,0.2-0.1,0.3-0.3,0.3h-2c-0.2,0-0.3-0.1-0.3-0.4l0-12.7c0-0.2-0.1-0.3-0.3-0.3
				c-0.2,0-0.3,0.1-0.3,0.3l-3.1,12.8c0,0.2-0.2,0.3-0.4,0.3l-4,0c-0.2,0-0.4-0.1-0.4-0.3L3.6,2.4C3.5,2.3,3.4,2.2,3.3,2.2
				c-0.2,0-0.4,0.1-0.4,0.3l0,12.7c0,0.3-0.1,0.4-0.4,0.4h-2c-0.2,0-0.3-0.1-0.3-0.3l0-14.6c0-0.2,0.1-0.4,0.3-0.4l4.8,0
				c0.3,0,0.4,0.1,0.5,0.4l3,12.8c0,0.2,0.1,0.3,0.3,0.3c0.2,0,0.3-0.1,0.4-0.3l3-12.8c0-0.2,0.2-0.4,0.4-0.4h4.8
				c0.2,0,0.3,0.1,0.3,0.4L18.1,15.2z"/>
			<path id="Fill-11" class="st0" d="M23.2,15.7c-1.4,0-2.4-1.2-2.4-2.5l0-12.6c0-0.3,0.1-0.4,0.3-0.4l2.2,0c0.2,0,0.4,0.1,0.4,0.4
				l0,12.3c0,0.3,0.1,0.4,0.4,0.4l5.7,0c0.3,0,0.4-0.1,0.4-0.4l0-12.3c0-0.3,0.1-0.4,0.3-0.4h2.1c0.3,0,0.4,0.1,0.4,0.4l0,14.6
				c0,0.3-0.1,0.3-0.4,0.3h-2.1c-0.2,0-0.3-0.1-0.3-0.4l0-0.4c0-0.3-0.2-0.4-0.5-0.3l-5.7,1.2C23.6,15.7,23.3,15.7,23.2,15.7"/>
			<path id="Fill-13_1_" class="st0" d="M46.7,9.6v1.5c0,1.2-0.5,2.1-1.5,2.7l-2.4,1.4c-0.5,0.3-1,0.4-1.5,0.4l-5.4,0
				c-0.3,0-0.4-0.1-0.4-0.3v-1.5c0-0.2,0.1-0.4,0.4-0.4l7.5,0c0.2,0,0.4-0.1,0.4-0.4l0-3.5c0-0.3-0.2-0.4-0.4-0.4h-5.3
				c-1.8,0-3-1.4-3-3l0-1.3c0-1.1,0.4-2,1.4-2.6L39,0.6c0.4-0.3,1-0.4,1.4-0.4l5.3,0c0.3,0,0.4,0.1,0.4,0.4l0,1.5
				c0,0.2-0.1,0.3-0.4,0.3l-7.4,0c-0.3,0-0.3,0.1-0.3,0.4l0,3.3c0,0.3,0.1,0.4,0.4,0.4l5.3,0C45,6.5,46.7,7.6,46.7,9.6"/>
			<path id="Fill-15" class="st0" d="M51.4,15.2c0,0.2-0.1,0.3-0.4,0.3l-2.2,0c-0.2,0-0.3-0.1-0.3-0.3l0-14.6c0-0.2,0.1-0.4,0.3-0.4
				l2.2,0c0.2,0,0.4,0.1,0.4,0.4L51.4,15.2z"/>
			<path id="Fill-17" class="st0" d="M54.3,12.5l0-7.9c0-1.2,0.5-2.1,1.5-2.7l2.4-1.4c0.4-0.3,0.9-0.4,1.4-0.4l5,0
				c0.2,0,0.4,0.1,0.4,0.4v1.5c0,0.2-0.1,0.3-0.4,0.3l-7,0c-0.2,0-0.3,0.1-0.3,0.4l0,10c0,0.3,0.1,0.4,0.3,0.4l7.3,0
				c0.2,0,0.4,0.1,0.4,0.3c0,0.2-0.1,0.4-0.3,0.5l-1.7,1c-0.5,0.3-1,0.4-1.4,0.4l-4.4,0C55.8,15.5,54.3,14.4,54.3,12.5"/>
		</g>
	</g>
</g>
</svg>
