<?xml version="1.0" encoding="utf-8"?>
<!-- Generator: Adobe Illustrator 24.0.0, SVG Export Plug-In . SVG Version: 6.00 Build 0)  -->
<svg version="1.1" id="Layer_1" xmlns="http://www.w3.org/2000/svg" xmlns:xlink="http://www.w3.org/1999/xlink" x="0px" y="0px"
	 viewBox="0 0 118 60" style="enable-background:new 0 0 118 60;" xml:space="preserve">
<style type="text/css">
	.st0{fill-rule:evenodd;clip-rule:evenodd;fill:#FFFFFF;}
</style>
<title>logo/space/SC_black</title>
<desc>Created with Sketch.</desc>
<g id="logo_x2F_space_x2F_SC_x5F_black">
	<g id="logo_x2F_space_x2F_SC_x5F_B" transform="translate(19.000000, 5.000000)">
		<g id="Group-3">
			<path id="Fill-1" class="st0" d="M37.3,19.8c0,0.1,0,0.2-0.3,0.2h-3.1c-0.2,0-0.2-0.1-0.2-0.2v-5.4c0-0.2,0.1-0.3,0.2-0.3H37
				c0.2,0,0.3,0.1,0.3,0.3V19.8z M37.7,12c-0.1,0-0.3,0-0.4,0.1c0,0-0.1,0-0.2,0L33.9,13c0,0-0.1,0-0.1,0c0,0-0.1,0-0.1-0.1v-0.3
				c0-0.3-0.1-0.4-0.4-0.4h-1.7c-0.2,0-0.4,0.1-0.4,0.4v13.1c0,0.4,0.2,0.4,0.4,0.4h1.7c0.2,0,0.4-0.2,0.4-0.4v-3.4
				c0-0.2,0.1-0.3,0.2-0.3h1.5c0.5,0,0.9-0.1,1.2-0.3l1.8-1.1c0.8-0.5,1.2-1.2,1.2-2.1v-4.3C39.7,12.8,38.6,12,37.7,12L37.7,12z
				 M46.1,38.1h-4.5c-0.2,0-0.2-0.1-0.2-0.2v-5.3c0-0.2,0.1-0.3,0.2-0.3h4.5c0.2,0,0.3-0.1,0.3-0.3v-1.2c0-0.3-0.2-0.4-0.3-0.4h-2.9
				c-0.4,0-0.8,0.1-1.1,0.3l-1.8,1.1C39.4,32.3,39,33.1,39,34v3.6c0,1.2,0.9,2.4,2.3,2.4h2.4c0.5,0,0.8-0.1,1.2-0.3l1.3-0.8
				c0.2-0.1,0.3-0.2,0.3-0.5C46.4,38.3,46.3,38.1,46.1,38.1L46.1,38.1z M70.2,38.1H67c-0.2,0-0.2,0-0.2-0.2v-5.3
				c0-0.2,0.1-0.3,0.2-0.3h2.9c0.3,0,0.4-0.2,0.4-0.3v-1.2c0-0.3-0.1-0.4-0.4-0.4h-2.9c-0.1,0-0.1,0-0.1-0.2v-1.8
				c0-0.2-0.2-0.3-0.4-0.3l-1.7,0.4c-0.2,0.1-0.3,0.2-0.3,0.5v8.5c0,1.2,0.9,2.4,2.3,2.4h1.1c0.5,0,0.8-0.1,1.2-0.3l1.3-0.8
				c0.2-0.1,0.3-0.3,0.3-0.5C70.6,38.3,70.5,38.1,70.2,38.1L70.2,38.1z M63,30.4h-1c-0.4,0-0.8,0.1-1.2,0.3L60,31.3c0,0-0.1,0-0.1,0
				c-0.2,0-0.2-0.1-0.2-0.2v-0.3c0-0.2-0.1-0.4-0.4-0.4h-1.6c-0.3,0-0.3,0.2-0.3,0.4v8.8c0,0.2,0.1,0.3,0.3,0.3h1.6
				c0.2,0,0.4-0.1,0.4-0.4v-7.1c0-0.2,0.1-0.3,0.2-0.3H63c0.2,0,0.4-0.1,0.4-0.3v-1.3C63.4,30.5,63.3,30.4,63,30.4L63,30.4z
				 M24.8,38c0,0.1,0,0.2-0.2,0.2h-3c-0.2,0-0.2-0.1-0.2-0.2v-5.3c0-0.2,0.1-0.3,0.2-0.3h3c0.2,0,0.2,0.1,0.2,0.3V38z M24.8,30.5
				h-1.7c-0.4,0-0.8,0.1-1.2,0.3l-1.8,1.1C19.4,32.3,19,33,19,34v3.7c0,1.2,0.9,2.4,2.3,2.4h1.7c0.5,0,0.8-0.1,1.2-0.3l1.8-1.1
				c0.8-0.5,1.1-1.2,1.1-2.1v-3.6C27.2,31.2,25.8,30.5,24.8,30.5L24.8,30.5z M17,38.1h-5.8c-0.1,0-0.2,0-0.2-0.2v-8.1
				c0-0.2,0.1-0.3,0.2-0.3h5.6c0.2,0,0.4-0.1,0.4-0.4V28c0-0.2-0.1-0.4-0.4-0.4h-4c-0.4,0-0.8,0.1-1.2,0.3L9.8,29
				c-0.8,0.5-1.2,1.2-1.2,2.2v6.3c0,1.6,1.3,2.5,2.4,2.5h3.5c0.4,0,0.8-0.1,1.2-0.3l1.4-0.8c0.2-0.1,0.3-0.3,0.3-0.5
				C17.4,38.2,17.3,38.1,17,38.1L17,38.1z M53.4,34.2c0,0.1,0,0.2-0.3,0.2h-2.9c-0.2,0-0.2-0.1-0.2-0.2v-1.7c0-0.3,0.1-0.3,0.2-0.3
				h2.9c0.2,0,0.3,0.1,0.3,0.3V34.2z M53.3,30.4h-1.5c-0.4,0-0.8,0.1-1.2,0.3l-1.8,1.1c-0.8,0.4-1.2,1.1-1.2,2.1v3.7
				c0,1.3,1,2.4,2.3,2.4h2.8c0.5,0,0.9-0.1,1.2-0.3l1.3-0.8c0.2-0.1,0.3-0.3,0.3-0.5c0-0.2-0.1-0.4-0.4-0.4h-5
				C50,38.2,50,38.1,50,38v-1.6c0-0.2,0.1-0.2,0.2-0.2h3.9c0.5,0,1.5-0.4,1.5-1.6v-1.6C55.7,31.2,54.3,30.4,53.3,30.4L53.3,30.4z
				 M35.2,30.3c-0.1,0-0.2,0-0.4,0.1c0,0-0.1,0-0.1,0l-3.1,0.9c0,0-0.1,0-0.1,0c-0.1,0-0.1,0-0.1-0.1v-0.3c0-0.2-0.1-0.4-0.3-0.4
				h-1.6c-0.2,0-0.4,0.1-0.4,0.4v8.8c0,0.3,0.2,0.3,0.4,0.3h1.6c0.2,0,0.3-0.1,0.3-0.4v-7.1c0-0.2,0.1-0.3,0.2-0.3h3
				c0.2,0,0.2,0.1,0.2,0.3v7.1c0,0.2,0.1,0.4,0.3,0.4h1.6c0.3,0,0.4-0.2,0.4-0.3v-7.3C37.2,31.2,36.3,30.3,35.2,30.3L35.2,30.3z
				 M57.9,12h-1c-0.4,0-0.8,0.1-1.2,0.3l-1,0.6c0,0-0.1,0-0.1,0c-0.2,0-0.2-0.1-0.2-0.2v-0.3c0-0.2-0.2-0.4-0.4-0.4h-1.7
				c-0.3,0-0.4,0.2-0.4,0.4v9c0,0.2,0.1,0.3,0.4,0.3H54c0.2,0,0.4-0.1,0.4-0.4v-7.2c0-0.2,0.1-0.3,0.2-0.3h3.3
				c0.2,0,0.4-0.1,0.4-0.3v-1.3C58.3,12.2,58.1,12,57.9,12L57.9,12z M44.1,14.3c0-0.2,0.1-0.3,0.3-0.3h3c0.2,0,0.3,0.1,0.3,0.3V16
				c0,0.1,0,0.2-0.3,0.2h-3c-0.2,0-0.3-0.1-0.3-0.2V14.3z M49.9,20.3c0-0.2-0.1-0.4-0.4-0.4h-5.2c-0.2,0-0.2-0.1-0.2-0.2v-1.6
				c0-0.2,0.1-0.2,0.2-0.2h4.1c0.5,0,1.6-0.4,1.6-1.6v-1.7c0-1.7-1.5-2.5-2.5-2.5H46c-0.4,0-0.8,0.1-1.2,0.3l-1.8,1.1
				c-0.8,0.5-1.2,1.2-1.2,2.1v3.7c0,1.2,0.9,2.5,2.4,2.5H47c0.5,0,0.9-0.1,1.2-0.3l1.3-0.8C49.8,20.7,49.9,20.5,49.9,20.3L49.9,20.3
				z M15.8,14.4h-4.4c-0.2,0-0.2,0-0.2-0.3v-2.7c0-0.2,0.1-0.3,0.2-0.3h6.1c0.4,0,0.4-0.2,0.4-0.4V9.6c0-0.3-0.2-0.4-0.4-0.4h-4.4
				c-0.4,0-0.9,0.1-1.2,0.3l-2,1.1c-0.8,0.5-1.2,1.2-1.2,2.2v1.1c0,1.5,1.1,2.6,2.5,2.6h4.4c0.1,0,0.2,0.1,0.2,0.3v2.9
				c0,0.2-0.1,0.2-0.2,0.2H9.4C9.2,19.9,9,20,9,20.3v1.2c0,0.3,0.2,0.4,0.4,0.4h4.5c0.5,0,0.9-0.1,1.3-0.3l2-1.1
				c0.8-0.5,1.3-1.2,1.3-2.3V17C18.4,15.2,16.9,14.4,15.8,14.4L15.8,14.4z M28.5,12.1h-1.7c-0.3,0-0.4,0.2-0.4,0.4v7.2
				c0,0.1,0,0.2-0.3,0.2h-3.1c-0.2,0-0.3-0.1-0.3-0.2v-7.2c0-0.2-0.1-0.4-0.4-0.4h-1.7c-0.2,0-0.4,0.1-0.4,0.4V20c0,1.1,0.9,2,2,2
				c0.2,0,0.4,0,0.5-0.1l3.2-0.9c0.1,0,0.2,0,0.2,0.2v0.3c0,0.3,0.1,0.4,0.4,0.4h1.7c0.3,0,0.4-0.2,0.4-0.3v-9
				C28.9,12.3,28.7,12.1,28.5,12.1L28.5,12.1z M75.1,0c2.2,0,4,1.8,4,4v42.4c0,2.2-1.8,4-4,4H4c-2.2,0-4-1.8-4-4V4c0-2.2,1.8-4,4-4
				H75.1z"/>
		</g>
	</g>
</g>
</svg>
