<?xml version="1.0" encoding="utf-8"?>
<!-- Generator: Adobe Illustrator 24.0.0, SVG Export Plug-In . SVG Version: 6.00 Build 0)  -->
<svg version="1.1" id="Layer_1" xmlns="http://www.w3.org/2000/svg" xmlns:xlink="http://www.w3.org/1999/xlink" x="0px" y="0px"
	 viewBox="0 0 118 60" style="enable-background:new 0 0 118 60;" xml:space="preserve">
<style type="text/css">
	.st0{fill-rule:evenodd;clip-rule:evenodd;fill:#FFFFFF;}
</style>
<title>logo/space/CP</title>
<desc>Created with Sketch.</desc>
<g id="logo_x2F_space_x2F_CP">
	<g id="Group-3" transform="translate(17.000000, 5.000000)">
		<g>
			<path id="Fill-1" class="st0" d="M75.2,0c2.2,0,4,1.8,4,4v41.8c0,2.2-1.8,4-4,4H4c-2.2,0-4-1.8-4-4V4c0-2.2,1.8-4,4-4H75.2z
				 M75.2,2.7H4C3.3,2.7,2.7,3.3,2.7,4v41.8C2.7,46.4,3.3,47,4,47h71.2c0.7,0,1.3-0.6,1.3-1.3V4C76.5,3.3,75.9,2.7,75.2,2.7
				L75.2,2.7z M39.6,29.6v8.6c0,0.9-0.4,1.7-1.2,2.1l-1.8,1c-0.4,0.2-0.8,0.3-1.2,0.3h-1.3c-0.3,0-0.5-0.2-0.5-0.5v-1
				c0-0.3,0.2-0.5,0.5-0.5H37c0.1,0,0.1-0.1,0.1-0.1v-10c0-0.1,0-0.5,0.4-0.5h1.6C39.4,29.1,39.6,29.3,39.6,29.6L39.6,29.6z
				 M39.6,26.4v1.3c0,0.2-0.1,0.4-0.5,0.4h-1.6c-0.4,0-0.4-0.2-0.4-0.4v-1.3c0-0.4,0.3-0.5,0.4-0.5h1.6
				C39.4,25.9,39.6,26.1,39.6,26.4L39.6,26.4z M32.2,31.2c0-0.1,0-0.1-0.2-0.1h-3c-0.1,0-0.2,0-0.2,0.1v5c0,0.1,0,0.1,0.2,0.1h3
				c0.2,0,0.2,0,0.2-0.1V31.2z M33.5,36.9l-1.8,1c-0.3,0.2-0.7,0.3-1.2,0.3h-1.7c-1.5,0-2.4-1.2-2.4-2.3v-3.4c0-0.9,0.4-1.6,1.2-2
				l1.8-1c0.4-0.2,0.8-0.3,1.2-0.3h1.7c1.2,0,2.4,0.9,2.4,2.4v3.4C34.7,35.7,34.3,36.4,33.5,36.9L33.5,36.9z M66.8,36.7
				c0,0.2-0.1,0.4-0.3,0.5L65.2,38c-0.3,0.2-0.7,0.3-1.2,0.3h-1.1c-1.5,0-2.4-1.2-2.4-2.3V28c0-0.3,0.1-0.4,0.4-0.5l1.7-0.4
				c0,0,0.1,0,0.1,0c0.2,0,0.4,0.1,0.4,0.4v1.6c0,0,0,0,0,0c0,0,0,0,0,0H66c0.3,0,0.5,0.2,0.5,0.5v1.1c0,0.1,0,0.4-0.5,0.4h-2.9
				c-0.1,0-0.1,0-0.1,0.2v4.9c0,0.1,0,0.1,0,0.1s0,0,0.1,0h3.2C66.6,36.3,66.8,36.4,66.8,36.7L66.8,36.7z M59,36.7
				c0,0.2-0.1,0.4-0.3,0.5l-1.3,0.7c-0.3,0.2-0.7,0.3-1.2,0.3h-2.4c-1.5,0-2.4-1.2-2.4-2.4v-3.4c0-0.9,0.4-1.6,1.2-2l1.8-1
				c0.4-0.2,0.7-0.3,1.2-0.3h2.9c0.1,0,0.4,0,0.4,0.5v1.1c0,0.3-0.2,0.4-0.4,0.4h-4.4c-0.1,0-0.1,0-0.1,0.2v5c0,0.1,0,0.1,0.1,0.1
				h4.5C58.8,36.3,59,36.4,59,36.7L59,36.7z M47.4,31.2c0-0.1,0-0.2-0.2-0.2h-2.9c-0.1,0-0.2,0-0.2,0.2v1.5c0,0.1,0,0.1,0.2,0.1h2.9
				c0.2,0,0.2,0,0.2-0.1V31.2z M49.8,31.5V33c0,1.2-1.1,1.6-1.6,1.6h-3.9c-0.1,0-0.1,0-0.1,0.1v1.5c0,0.1,0,0.1,0.1,0.1h5
				c0.3,0,0.5,0.2,0.5,0.4c0,0.2-0.1,0.4-0.4,0.5l-1.3,0.7c-0.3,0.2-0.7,0.3-1.2,0.3h-2.8c-1.3,0-2.4-1.1-2.4-2.4v-3.4
				c0-0.9,0.4-1.6,1.2-2l1.8-1c0.4-0.2,0.8-0.3,1.2-0.3h1.5C48.4,29.1,49.8,29.8,49.8,31.5L49.8,31.5z M26,29.5v1.2
				c0,0.2-0.2,0.4-0.5,0.4h-3.2c-0.1,0-0.1,0-0.1,0.1v6.6c0,0.3-0.2,0.4-0.5,0.4h-1.6c-0.3,0-0.4-0.1-0.4-0.4v-8.2
				c0-0.4,0.2-0.5,0.4-0.5h1.6c0.3,0,0.5,0.2,0.5,0.5v0.3c0,0,0,0.1,0,0.1s0,0,0.1,0c0,0,0.1,0,0.1,0l0.9-0.6
				c0.4-0.2,0.8-0.3,1.2-0.3h0.9C25.9,29,26,29.2,26,29.5L26,29.5z M15.8,28.4c0-0.1,0-0.1-0.1-0.1h-4.3c-0.1,0-0.1,0-0.1,0.1v3.5
				c0,0.1,0,0.1,0.1,0.1h4.3c0.1,0,0.1,0,0.1-0.1V28.4z M18.5,28.2v2.3c0,1-0.4,1.7-1.3,2.2l-1.9,1.1C15,33.9,14.6,34,14.1,34h-2.7
				c-0.1,0-0.1,0-0.1,0.1v3.6c0,0.1,0,0.4-0.5,0.4H9.1c-0.3,0-0.4-0.1-0.4-0.4V26.7c0-0.4,0.3-0.5,0.4-0.5h1.7
				c0.3,0,0.5,0.2,0.5,0.5v0.3c0,0.1,0,0.1,0,0.1c0,0,0,0,0.1,0l4.4-0.9c0.3,0,0.5-0.1,0.6-0.1C17.2,26,18.5,26.7,18.5,28.2
				L18.5,28.2z M64.9,15.9h3c0.2,0,0.2-0.1,0.2-0.1v-1.6c0-0.1-0.1-0.2-0.2-0.2h-3c-0.1,0-0.2,0-0.2,0.2v1.6
				C64.7,15.9,64.7,15.9,64.9,15.9L64.9,15.9z M64.7,17.9v1.5c0,0.1,0,0.1,0.1,0.1H70c0.3,0,0.5,0.2,0.5,0.4c0,0.2-0.1,0.4-0.4,0.5
				l-1.3,0.7c-0.3,0.2-0.7,0.3-1.3,0.3h-2.9c-1.4,0-2.5-1.1-2.5-2.4v-3.5c0-0.9,0.4-1.6,1.3-2.1l1.8-1c0.4-0.2,0.8-0.3,1.2-0.3H68
				c1,0,2.5,0.8,2.5,2.5v1.6c0,1.2-1.1,1.6-1.6,1.6h-4.1C64.7,17.8,64.7,17.8,64.7,17.9L64.7,17.9z M55.4,21.1v-8.5
				c0-0.4,0.2-0.5,0.4-0.5h1.7c0.3,0,0.5,0.2,0.5,0.5v0.3c0,0.1,0,0.1,0.1,0.1c0,0,0.1,0,0.1,0l1-0.6c0.4-0.2,0.8-0.3,1.2-0.3h1
				c0.3,0,0.5,0.2,0.5,0.4v1.2c0,0.2-0.2,0.4-0.5,0.4h-3.3c-0.1,0-0.1,0-0.1,0.2v6.8c0,0.3-0.2,0.4-0.5,0.4h-1.7
				C55.5,21.5,55.4,21.4,55.4,21.1L55.4,21.1z M52.3,21.5h-1.7c-0.3,0-0.4-0.1-0.4-0.4v-0.3c0-0.1,0-0.1,0-0.1c0,0,0,0-0.1,0
				l-3.2,0.8c-0.2,0.1-0.4,0.1-0.6,0.1c-1.1,0-2.1-0.9-2.1-2v-7c0-0.4,0.3-0.5,0.5-0.5h1.7c0.3,0,0.4,0.2,0.4,0.5v6.8
				c0,0.1,0,0.1,0.2,0.1h3c0.2,0,0.2-0.1,0.2-0.1v-6.8c0-0.4,0.2-0.5,0.4-0.5h1.7c0.3,0,0.5,0.2,0.5,0.5v8.5
				C52.8,21.2,52.7,21.5,52.3,21.5L52.3,21.5z M42.1,20.5l-1.3,0.8c-0.4,0.2-0.8,0.3-1.2,0.3h-1.1c-1.5,0-2.5-1.2-2.5-2.4V11
				c0-0.3,0.1-0.4,0.4-0.5l1.7-0.4c0.3-0.1,0.5,0.1,0.5,0.4v1.7c0,0,0,0,0,0.1c0,0,0,0,0,0h3c0.3,0,0.5,0.2,0.5,0.5v1.1
				c0,0.1,0,0.4-0.5,0.4h-2.9c-0.1,0-0.1,0-0.1,0.2v5.1c0,0.1,0,0.1,0.1,0.1h3.3c0.3,0,0.5,0.2,0.5,0.4
				C42.4,20.2,42.3,20.4,42.1,20.5L42.1,20.5z M30.7,21.1V9.5c0-0.3,0.2-0.5,0.5-0.5h1.7c0.2,0,0.4,0.2,0.4,0.5v11.6
				c0,0.2-0.2,0.4-0.4,0.4h-1.7C30.9,21.5,30.7,21.4,30.7,21.1L30.7,21.1z M27.6,21.5h-1.7c-0.3,0-0.4-0.1-0.4-0.4v-0.3
				c0-0.1,0-0.1,0-0.1c0,0,0,0-0.1,0l-3.2,0.8c-0.2,0.1-0.4,0.1-0.6,0.1c-1.1,0-2.1-0.9-2.1-2v-7c0-0.4,0.3-0.5,0.5-0.5h1.7
				c0.2,0,0.4,0.1,0.4,0.5v6.8c0,0.1,0,0.1,0.2,0.1h3c0.2,0,0.2-0.1,0.2-0.1v-6.8c0-0.4,0.2-0.5,0.4-0.5h1.7c0.3,0,0.5,0.2,0.5,0.5
				v8.5C28,21.2,28,21.5,27.6,21.5L27.6,21.5z M8.6,19v-6.1c0-1,0.4-1.7,1.3-2.2l1.9-1c0.3-0.2,0.8-0.3,1.2-0.3h4.1
				c0.3,0,0.5,0.2,0.5,0.5V11c0,0.3-0.2,0.4-0.5,0.4h-5.8c-0.1,0-0.1,0-0.1,0.2v7.7c0,0.1,0,0.1,0.1,0.1h5.9c0.3,0,0.5,0.2,0.5,0.4
				c0,0.2-0.1,0.4-0.4,0.6L16,21.2c-0.4,0.2-0.8,0.3-1.3,0.3h-3.6C9.9,21.5,8.6,20.7,8.6,19L8.6,19z"/>
		</g>
	</g>
</g>
</svg>
