<svg id="Layer_1" data-name="Layer 1" xmlns="http://www.w3.org/2000/svg" viewBox="0 0 172.35 43.97"><defs><style>.cls-1{fill:#fff;}</style></defs><title>logo_wh</title><path class="cls-1" d="M55.17,14.76l-3.45,15c-1.82,8.11-6.16,14.51-24.38,14.51H1c-.19,0-.31-.12-.25-.31L10.7.57a.47.47,0,0,1,.44-.32H37.52c18.22,0,19.54,6.41,17.65,14.51M31.8,14.07H30.17L26.47,30.4H28a1.33,1.33,0,0,0,1.19-1.13l3.2-13.75c.13-.76.07-1.45-.63-1.45" transform="translate(-0.69 -0.25)"/><path class="cls-1" d="M50.4,43.91,60.39.57a.47.47,0,0,1,.44-.32h22c.19,0,.25.13.19.32L73,43.91a.38.38,0,0,1-.37.31h-22c-.19,0-.31-.12-.25-.31" transform="translate(-0.69 -0.25)"/><path class="cls-1" d="M80.68,43.91,83.94.57c0-.19.25-.32.44-.32h23.18c.19,0,.25.13.19.32l-4.15,21c-.56,3.07-.87,4.9-1.57,8.85h.63c1.13-4,1.76-5.9,2.52-8.85l5.46-21a.47.47,0,0,1,.44-.32H134.2c.18,0,.31.13.18.32L117.8,43.91c-.12.19-.19.31-.38.31H80.93c-.19,0-.25-.12-.25-.31" transform="translate(-0.69 -0.25)"/><path class="cls-1" d="M173,.57l-3,13.19a.39.39,0,0,1-.37.31H154.8l-.38,1.76h14.77a.24.24,0,0,1,.25.25l-2.77,12.06c0,.13-.19.25-.37.25H151.53l-.43,2h14.76c.18,0,.25.13.25.32L163,43.91a.39.39,0,0,1-.38.31H125.59c-.19,0-.31-.12-.25-.31l10-43.34a.47.47,0,0,1,.44-.32h37.06c.19,0,.25.13.19.32" transform="translate(-0.69 -0.25)"/></svg>