<?xml version="1.0" encoding="UTF-8"?>
<svg width="118px" height="60px" viewBox="0 0 118 60" version="1.1" xmlns="http://www.w3.org/2000/svg" xmlns:xlink="http://www.w3.org/1999/xlink">
    <!-- Generator: Sketch 55.1 (78136) - https://sketchapp.com -->
    <title>logo/space/TL</title>
    <desc>Created with Sketch.</desc>
    <g id="logo/space/TL" stroke="none" stroke-width="1" fill="none" fill-rule="evenodd">
        <g id="logo/space/DL" transform="translate(16.000000, 13.000000)" fill="#000000">
            <g id="Group">
                <path d="M11.9716856,2.6246211 C11.9716856,2.8443081 11.8297856,2.9466051 11.6094233,2.9466051 L7.71635506,2.9499591 C7.45425741,2.9499591 7.37412565,3.0891501 7.37412565,3.3289611 L7.38247271,15.2138601 C7.38247271,15.4754721 7.26227506,15.5559681 7.02354918,15.5559681 L4.90339624,15.5559681 C4.68303388,15.5559681 4.60624094,15.4754721 4.60624094,15.2155371 L4.59789388,3.3289611 C4.59789388,3.0891501 4.45766329,2.9516361 4.19890447,2.9516361 L0.320860941,2.9533131 C0.120531529,2.9533131 0.000333882353,2.8510161 0.000333882353,2.6313291 L0.000333882353,1.1455071 C0.000333882353,0.9241431 0.118862118,0.8033991 0.320860941,0.8033991 L11.6094233,0.7966911 C11.8297856,0.7966911 11.9700162,0.9174351 11.9700162,1.1371221 L11.9716856,2.6246211 Z" id="Fill-1"></path>
                <path d="M21.6692986,7.1952846 L21.6676292,3.3398616 C21.6659598,3.0816036 21.5257292,2.9407356 21.2870033,2.9407356 L16.0283562,2.9440896 C15.7896304,2.9457666 15.6911351,3.0849576 15.6911351,3.3432156 L15.6944739,7.2187626 C15.6944739,7.4803746 15.7929692,7.5994416 16.0300256,7.5994416 L21.2920115,7.5960876 C21.5273986,7.5960876 21.6692986,7.4568966 21.6692986,7.1952846 M24.5239927,3.0598026 L24.5273315,5.5082226 C24.5273315,6.6519366 24.0248386,7.4753436 23.0081668,8.0572626 L21.9697927,8.6811066 C21.7494304,8.8219746 21.6893315,8.9829666 21.8479256,9.2043306 L25.388748,15.2851326 C25.4905821,15.5048196 25.4688798,15.5450676 25.190088,15.5450676 L22.7110115,15.5450676 C22.4923186,15.5450676 22.2919892,15.4645716 22.1934939,15.2465616 L19.2336268,10.1082336 C19.1117598,9.8868696 18.9097609,9.7661256 18.6543409,9.7678026 L16.0350339,9.7678026 C15.7946386,9.7694796 15.6944739,9.9103476 15.6944739,10.1518356 L15.6961433,15.2096676 C15.6961433,15.4696026 15.5375492,15.5484216 15.2971539,15.5484216 L13.2204056,15.5517756 C12.9800104,15.5517756 12.8998786,15.4696026 12.8998786,15.2297916 L12.8915315,1.1597616 C12.8915315,0.9165966 12.9716633,0.7958526 13.2103892,0.7958526 L15.2888068,0.7958526 C15.5308715,0.7958526 15.6911351,0.9165966 15.6911351,1.1564076 L15.6911351,1.4783916 C15.6911351,1.7584506 15.8079939,1.8590706 16.0700915,1.7785746 L21.3654656,0.6717546 C21.6258939,0.6298296 21.8646198,0.5912586 22.0449162,0.5912586 C23.004828,0.5912586 24.5223233,1.3324926 24.5239927,3.0598026" id="Fill-3"></path>
                <path d="M34.3825369,9.2764416 L32.5428452,2.8317306 C32.5011099,2.7109866 32.4009452,2.6304906 32.2406816,2.6304906 C32.1021205,2.6321676 32.0203193,2.7126636 31.9635593,2.8334076 L30.1472393,9.2797956 C30.0671075,9.5598546 30.1656028,9.6420276 30.4059981,9.6420276 L34.0636793,9.6386736 C34.3641734,9.6386736 34.4626687,9.5565006 34.3825369,9.2764416 L34.3825369,9.2764416 Z M38.9216675,15.2163756 C39.0017993,15.4561866 38.9216675,15.5366826 38.6612393,15.5366826 L36.5227228,15.5383596 C36.2839969,15.5383596 36.1237334,15.4578636 36.0669734,15.1979286 L35.2038875,12.1659126 C35.1053922,11.9680266 34.9434593,11.8070346 34.703064,11.8070346 L29.8083487,11.8087116 C29.5679534,11.8087116 29.3893264,11.9697036 29.3492605,12.1709436 L28.4711499,15.2029596 C28.4110511,15.4628946 28.2925228,15.5433906 28.0103922,15.5433906 L25.8334793,15.5450676 C25.6131169,15.5450676 25.5530181,15.4628946 25.6131169,15.2230836 L29.8818028,1.1278986 C29.9419016,0.9065346 30.1021652,0.7874676 30.3392216,0.7874676 L34.1388028,0.7857906 C34.4175946,0.7857906 34.5761887,0.9048576 34.6579899,1.1262216 L38.9216675,15.2163756 Z" id="Fill-5"></path>
                <path d="M51.407532,1.0955325 L47.1388461,15.1907175 C47.0587144,15.4523295 46.9001202,15.5328255 46.6196591,15.5328255 L42.8234167,15.5361795 C42.5830214,15.5361795 42.4427908,15.4540065 42.3843614,15.1940715 L38.0989814,1.1039175 C38.0188496,0.9026775 38.0989814,0.7836105 38.3160049,0.7836105 L40.4778932,0.7802565 C40.736652,0.7802565 40.8752132,0.9010005 40.9369814,1.1223645 L44.4811426,13.4650845 C44.4811426,13.6277535 44.5796379,13.6881255 44.7198685,13.6881255 C44.9001649,13.6864485 45.0003296,13.6277535 45.0370567,13.4650845 L48.5111026,1.1156565 C48.5895649,0.8959695 48.7314649,0.7752255 48.9902238,0.7752255 L51.1287402,0.7752255 C51.3874991,0.7752255 51.4492673,0.8959695 51.407532,1.0955325" id="Fill-7"></path>
                <path d="M55.5546847,15.5286344 C53.6749271,15.53031 52.61652,14.024364 52.6148506,12.640839 L52.6115118,5.030613 C52.6115118,3.905346 53.0889635,3.041691 54.0689082,2.459772 L56.4077541,1.155066 C56.84514,0.893454 57.3259306,0.771033 57.8033824,0.771033 L62.9601953,0.769356 C63.1805576,0.769356 63.3207882,0.888423 63.3207882,1.129911 L63.3207882,2.593932 C63.3207882,2.816973 63.1805576,2.917593 62.9601953,2.917593 L55.8284682,2.920947 C55.5847341,2.920947 55.4879082,3.063492 55.4879082,3.32175 L55.4912471,6.555006 C55.4912471,6.836742 55.5897424,6.913884 55.8301376,6.913884 L62.4860824,6.912207 C62.7448412,6.912207 62.8867412,7.051398 62.8867412,7.292886 L62.8867412,8.758584 C62.8867412,9.000072 62.7465106,9.100692 62.4860824,9.100692 L55.8301376,9.102369 C55.5914118,9.102369 55.4912471,9.244914 55.4912471,9.524973 L55.4929165,12.99804 C55.4945859,13.261329 55.5930812,13.378719 55.8318071,13.378719 L63.1688718,13.375365 C63.4259612,13.375365 63.5678612,13.474308 63.5678612,13.675548 C63.5678612,13.896912 63.4476635,14.079705 63.2273012,14.200449 L61.5328482,15.163047 C61.0704212,15.422982 60.5896306,15.525279 60.0721129,15.526956 L55.5546847,15.5286344 Z" id="Fill-9"></path>
                <path d="M68.5472156,15.5204169 C66.4270627,15.5220927 65.6474474,13.7562117 65.6474474,12.6309447 L65.6424392,1.1284017 C65.6424392,0.8869137 65.7442733,0.7661697 65.9813298,0.7661697 L68.0814498,0.7661697 C68.3201756,0.7661697 68.4604062,0.8835597 68.4604062,1.1284017 L68.4670839,12.9914997 C68.4670839,13.2514347 68.5655792,13.3705017 68.8260074,13.3705017 L75.5604145,13.3654707 C75.8008098,13.3654707 75.9610733,13.4677677 75.9610733,13.6690077 C75.9610733,13.8886947 75.8225121,14.0714877 75.6221827,14.1922317 L73.9227215,15.1565067 C73.4452698,15.4181187 72.9611404,15.5187387 72.4436227,15.5187387 L68.5472156,15.5204169 Z" id="Fill-11"></path>
                <g id="기본" transform="translate(0.774000, 19.350000)">
                    <path d="M3.16931753,14.9927331 C1.04916459,14.9960823 0.271218706,13.2302013 0.269549294,12.1049343 L0.262871647,0.6023913 C0.262871647,0.3609033 0.363036353,0.2401593 0.603431647,0.2401593 L2.70021282,0.2384823 C2.94060812,0.2384823 3.08083871,0.3575493 3.08083871,0.5990373 L3.08918576,12.4638123 C3.08918576,12.7237473 3.18768106,12.8444913 3.44643988,12.8444913 L10.1825164,12.8394603 C10.4212422,12.8394603 10.5815058,12.9400803 10.5815058,13.1413203 C10.5815058,13.3643613 10.4412752,13.5438003 10.2442846,13.6628673 L8.54649282,14.6288193 C8.06403282,14.8904313 7.58491165,14.9910513 7.06572459,14.9910513 L3.16931753,14.9927331 Z" id="Fill-13"></path>
                    <path d="M14.321322,14.6655456 C14.321322,14.9070336 14.1810914,14.9875296 13.9406961,14.9875296 L11.823882,14.9892066 C11.6235526,14.9892066 11.5434208,14.9087106 11.5434208,14.6688996 L11.5384126,0.5737146 C11.5384126,0.3540276 11.6152055,0.233266363 11.8155349,0.233266363 L13.9373573,0.233266363 C14.1760832,0.2316066 14.3146444,0.3523506 14.3146444,0.5720376 L14.321322,14.6655456 Z" id="Fill-16"></path>
                    <path d="M25.9931813,12.4514025 L25.9915119,9.1594515 C25.9915119,8.8978395 25.8112154,8.7184005 25.5307542,8.7184005 L20.1352154,8.7200775 C19.8731178,8.7200775 19.7545895,8.8810695 19.7545895,9.1410045 L19.7579284,12.4748805 C19.7579284,12.7163685 19.878126,12.8186655 20.1385542,12.8186655 L25.5357625,12.8153115 C25.8128848,12.8153115 25.9931813,12.6945675 25.9931813,12.4514025 M25.9865497,6.1861305 L25.9865497,2.7734355 C25.9865497,2.5151775 25.8062072,2.3541855 25.5290848,2.3541855 L20.1118436,2.3575395 C19.8530848,2.3575395 19.7529201,2.5185315 19.7529201,2.7767895 L19.7529201,6.2112855 C19.7545895,6.4544505 19.8731178,6.5718405 20.1352154,6.5718405 L25.5307542,6.5701635 C25.8112154,6.5701635 25.9898425,6.4494195 25.9865497,6.1861305 M28.8645695,2.4933765 L28.8662389,4.4806215 C28.8662389,5.3644005 28.5273484,6.1458825 27.8478978,6.7093545 C27.767766,6.7915275 27.7076672,6.8703465 27.7076672,7.0112145 C27.7076672,7.1487285 27.767766,7.2292245 27.8679307,7.2912735 C28.5490507,7.8715155 28.9096602,8.6345505 28.9096602,9.5820555 L28.9096602,10.7056455 C28.9129825,11.8275585 28.4104895,12.6912135 27.4121813,13.2731325 L25.1167401,14.6214405 C24.6559825,14.8830525 24.1768613,14.9836725 23.6142695,14.9836725 L17.3022236,14.9853495 C17.0801919,14.9853495 17.0000601,14.9065305 17.0000601,14.6650425 L16.9933825,0.5933355 C16.9933825,0.3518475 17.0718448,0.2311035 17.2938766,0.2311035 L19.3706248,0.2311035 C19.6110201,0.2294265 19.7512507,0.3501705 19.7512507,0.5899815 L19.7512507,0.9119655 C19.7512507,1.1719005 19.8714484,1.2708435 20.1719425,1.2121485 L25.7060425,0.1053285 C26.0265695,0.0634035 26.2669648,0.024829742 26.3854931,0.024829742 C27.4038342,0.0231555 28.8645695,0.7861905 28.8645695,2.4933765" id="Fill-18"></path>
                    <path d="M39.9407827,6.6221505 L39.9391133,2.7650505 C39.9391133,2.5067925 39.8005521,2.3659245 39.5584874,2.3659245 L34.3048486,2.3676015 C34.0644533,2.3676015 33.965958,2.5118235 33.965958,2.7700815 L33.9676274,6.6456285 C33.9676274,6.9055635 34.0677921,7.0263075 34.3081874,7.0263075 L39.5601568,7.0229535 C39.8038909,7.0229535 39.9407827,6.8837625 39.9407827,6.6221505 M42.7988156,2.4849915 L42.7988156,4.9334115 C42.8004851,6.0754485 42.3013309,6.9022095 41.2813204,7.4824515 L40.2429462,8.1062955 C40.0225839,8.2488405 39.9641545,8.4064785 40.1210792,8.6278425 L43.6635709,14.7086445 C43.7637356,14.9316855 43.7437027,14.9702565 43.4632415,14.9702565 L40.9858345,14.9736105 C40.7638027,14.9736105 40.5668121,14.8931145 40.4666474,14.6717505 L37.5067804,9.5350995 C37.3832439,9.3137355 37.1845839,9.1929915 36.9274945,9.1929915 L34.3081874,9.1946685 C34.0677921,9.1946685 33.9676274,9.3355365 33.9676274,9.5770245 L33.9743051,14.6348565 C33.9743051,14.8964685 33.8123721,14.9769645 33.5703074,14.9769645 L31.4935592,14.9786415 C31.2531639,14.9786415 31.1730321,14.8981455 31.1730321,14.6566575 L31.1646851,0.5849505 C31.1646851,0.3434625 31.2448168,0.2210415 31.4835427,0.2210415 L33.5619604,0.2210415 C33.8023556,0.2210415 33.965958,0.3401085 33.965958,0.5815965 L33.965958,0.9035805 C33.965958,1.1836395 34.0828168,1.2859365 34.3432451,1.2054405 L39.6369498,0.0969435 C39.8990474,0.0566955 40.1377733,0.0164475 40.3164004,0.0164475 C41.2779815,0.0164475 42.7954768,0.7576815 42.7988156,2.4849915" id="Fill-20"></path>
                    <path d="M52.6560244,8.7011274 L50.8129938,2.2580934 C50.7745973,2.1390264 50.6710938,2.0602074 50.5158385,2.0602074 C50.3722691,2.0602074 50.2954761,2.1390264 50.2337079,2.2597704 L48.4207267,8.7028044 C48.3405949,8.9862174 48.4390902,9.0667134 48.6794855,9.0667134 L52.3371667,9.0650364 C52.6376608,9.0650364 52.7361561,8.9845404 52.6560244,8.7011274 L52.6560244,8.7011274 Z M57.1951549,14.6427384 C57.2752867,14.8825494 57.1951549,14.9630454 56.9347267,14.9630454 L54.7962102,14.9663994 C54.5574844,14.9663994 54.3988902,14.8859034 54.3387914,14.6242914 L53.4773749,11.5922754 C53.3772102,11.3927124 53.2186161,11.2317204 52.9765514,11.2317204 L48.0801667,11.2333974 C47.8397714,11.2333974 47.6594749,11.3943894 47.6210785,11.5956294 L46.7446373,14.6276454 C46.6828691,14.8892574 46.5626714,14.9697534 46.2838796,14.9697534 L44.1052973,14.9714304 C43.8866044,14.9714304 43.8281749,14.8909344 43.8866044,14.6511234 L48.1552902,0.5542614 C48.2153891,0.3328974 48.3756526,0.2121534 48.6127091,0.2121534 L52.4122902,0.2104764 C52.6894126,0.2104764 52.8530149,0.3312204 52.9298079,0.5525844 L57.1951549,14.6427384 Z" id="Fill-22"></path>
                    <path d="M67.1071204,6.6055482 L67.1021121,2.7501252 C67.1021121,2.4918672 66.9635509,2.3509992 66.7248251,2.3509992 L61.4678474,2.3543532 C61.2307909,2.3543532 61.1289568,2.4968982 61.1289568,2.7534792 L61.1306262,6.6307032 C61.1306262,6.8906382 61.2324604,7.0113822 61.4711862,7.0113822 L66.7264945,7.0063512 C66.9652204,7.0063512 67.1071204,6.8705142 67.1071204,6.6055482 M69.9601451,2.4700662 L69.9618145,4.9201632 C69.9618145,6.0622002 69.4659992,6.8872842 68.4459886,7.4675262 L67.4076145,8.0913702 C67.1855827,8.2305612 67.1271533,8.3915532 67.2874168,8.6129172 L70.8299086,14.6953962 C70.9300733,14.9150832 70.9100404,14.9553312 70.6295792,14.9553312 L68.1505027,14.9586852 C67.9301404,14.9586852 67.7298109,14.8765122 67.6313156,14.6568252 L64.6714486,9.5184972 C64.5495815,9.2988102 64.3509215,9.1780662 64.0888239,9.1780662 L61.4728556,9.1814202 C61.2324604,9.1814202 61.1339651,9.3206112 61.1339651,9.5620992 L61.1356345,14.6199312 C61.1356345,14.8832202 60.9753709,14.9620392 60.7366451,14.9620392 L58.6582274,14.9620392 C58.4178321,14.9620392 58.3377004,14.8832202 58.3377004,14.6417322 L58.3293533,0.5683482 C58.3293533,0.3268602 58.4094851,0.2077932 58.6482109,0.2077932 L60.728298,0.2061162 C60.9670239,0.2061162 61.1289568,0.3268602 61.1289568,0.5666712 L61.1289568,0.8886552 C61.1289568,1.1687142 61.2491545,1.2710112 61.5062439,1.1905152 L66.8032874,0.0820182 C67.0620462,0.0417702 67.3024415,0.0015222 67.482738,0.0015222 C68.4426498,0.0015222 69.9601451,0.7427562 69.9601451,2.4700662" id="Fill-24"></path>
                    <path d="M83.8731896,0.5141811 L78.8015167,8.9276901 C78.6796496,9.1289301 78.5995179,9.3502941 78.5995179,9.5917821 L78.6045261,14.6110431 C78.6045261,14.8709781 78.4826591,14.9514741 78.2656355,14.9514741 L76.1688544,14.9531511 C75.948492,14.9531511 75.8266249,14.8726551 75.8266249,14.6127201 L75.8232861,9.5951361 C75.8232861,9.3502941 75.7448238,9.1306071 75.6229567,8.9293671 L70.5830026,0.5208891 C70.5412673,0.4420701 70.5412673,0.3816981 70.5830026,0.3012021 C70.6213991,0.2391531 70.6831673,0.1989051 70.783332,0.1989051 L73.1422108,0.1989051 C73.3625732,0.1989051 73.5612332,0.3196491 73.7014638,0.5410131 L76.941792,6.4406991 C77.0018908,6.5614431 77.0803532,6.6201381 77.2222532,6.6201381 C77.3224179,6.6201381 77.4025496,6.5614431 77.4826814,6.4406991 L80.7363649,0.5359821 C80.8765955,0.3162951 81.0134873,0.1955511 81.2338496,0.1955511 L83.6928932,0.1938741 C83.7513226,0.1938741 83.8347932,0.2341221 83.8731896,0.2928171 C83.9115861,0.3733131 83.9115861,0.4353621 83.8731896,0.5141811" id="Fill-26"></path>
                </g>
            </g>
        </g>
    </g>
</svg>