<?xml version="1.0" encoding="UTF-8"?>
<svg width="118px" height="60px" viewBox="0 0 118 60" version="1.1" xmlns="http://www.w3.org/2000/svg" xmlns:xlink="http://www.w3.org/1999/xlink">
    <!-- Generator: Sketch 55.1 (78136) - https://sketchapp.com -->
    <title>logo/space/ML</title>
    <desc>Created with Sketch.</desc>
    <g id="logo/space/ML" stroke="none" stroke-width="1" fill="none" fill-rule="evenodd">
        <g id="logo/space/DL" transform="translate(16.000000, 13.000000)" fill="#000000">
            <g id="Group">
                <g id="기본" transform="translate(0.000000, 19.264000)">
                    <path d="M3.21662078,15.5480195 C1.06482376,15.5514928 0.275266746,13.7202088 0.273572418,12.5532652 L0.266795104,0.624702089 C0.266795104,0.374270089 0.368454806,0.249054089 0.61243809,0.249054089 L2.74051451,0.247314978 C2.98449779,0.247314978 3.12682137,0.370791867 3.12682137,0.621223867 L3.13529301,12.925435 C3.13529301,13.1949972 3.23525839,13.3202132 3.49787928,13.3202132 L10.3344942,13.3149959 C10.5767832,13.3149959 10.7394387,13.4193425 10.7394387,13.6280359 C10.7394387,13.8593376 10.5971151,14.0454225 10.3971844,14.1688994 L8.67405242,15.1706274 C8.18439152,15.4419288 7.69811928,15.5462754 7.17118316,15.5462754 L3.21662078,15.5480195 Z" id="Fill-13"></path>
                    <path d="M14.5350731,15.208714 C14.5350731,15.459146 14.3927495,15.5426233 14.1487662,15.5426233 L12.0003579,15.5443624 C11.7970384,15.5443624 11.7157107,15.4608851 11.7157107,15.2121922 L11.7106277,0.594963289 C11.7106277,0.367139733 11.7885668,0.241905858 11.9918862,0.241905858 L14.1453776,0.241905858 C14.3876665,0.240184622 14.5282958,0.365400622 14.5282958,0.593224178 L14.5350731,15.208714 Z" id="Fill-16"></path>
                    <path d="M26.3811392,12.9125656 L26.3794449,9.49869044 C26.3794449,9.22738911 26.1964574,9.04130422 25.9118103,9.04130422 L20.435741,9.04304333 C20.1697315,9.04304333 20.0494341,9.209998 20.0494341,9.47956022 L20.0528228,12.9369131 C20.0528228,13.1873451 20.1748144,13.2934309 20.4391297,13.2934309 L25.9168933,13.2899527 C26.1981518,13.2899527 26.3811392,13.1647367 26.3811392,12.9125656 M26.3744086,6.41524644 L26.3744086,2.87615533 C26.3744086,2.60833222 26.1913744,2.44137756 25.9101159,2.44137756 L20.4120204,2.44485578 C20.1493995,2.44485578 20.0477398,2.61181044 20.0477398,2.87963356 L20.0477398,6.44133311 C20.0494341,6.69350422 20.1697315,6.815242 20.435741,6.815242 L25.9118103,6.81350289 C26.1964574,6.81350289 26.3777506,6.68828689 26.3744086,6.41524644 M29.295384,2.58572378 L29.2970783,4.64657044 C29.2970783,5.563082 28.9531297,6.37350778 28.263538,6.95784911 C28.1822103,7.04306556 28.1212144,7.12480378 28.1212144,7.27088911 C28.1212144,7.41349622 28.1822103,7.49697356 28.28387,7.56132067 C28.9751559,8.16305311 29.3411476,8.95434867 29.3411476,9.93694644 L29.3411476,11.1021509 C29.3445195,12.2656162 28.8345267,13.1612584 27.8213183,13.76473 L25.4916168,15.1629753 C25.0239822,15.4342767 24.53771,15.5386233 23.9667213,15.5386233 L17.5604658,15.5403624 C17.3351201,15.5403624 17.2537924,15.4586242 17.2537924,15.2081922 L17.247015,0.615310889 C17.247015,0.364878889 17.3266485,0.239662889 17.5519941,0.239662889 L19.6597386,0.239662889 C19.9037219,0.237923778 20.0460455,0.363139778 20.0460455,0.611832667 L20.0460455,0.945742 C20.0460455,1.21530422 20.1680371,1.31791178 20.4730162,1.25704289 L26.0897147,0.109229556 C26.4150258,0.0657517778 26.6590091,0.0257493621 26.7793064,0.0257493621 C27.8128467,0.0240131111 29.295384,0.815308667 29.295384,2.58572378" id="Fill-18"></path>
                    <path d="M40.5369138,6.86741533 L40.5352195,2.86745978 C40.5352195,2.59963667 40.3945902,2.45355133 40.1489126,2.45355133 L34.8168613,2.45529044 C34.572878,2.45529044 34.4729126,2.604854 34.4729126,2.87267711 L34.4746069,6.89176289 C34.4746069,7.16132511 34.5762666,7.28654111 34.8202499,7.28654111 L40.1506069,7.28306289 C40.3979789,7.28306289 40.5369138,7.13871667 40.5369138,6.86741533 M43.4376039,2.57702822 L43.4376039,5.11613044 C43.4392983,6.30046511 42.9326941,7.15784689 41.8974595,7.75957933 L40.8435872,8.40652867 C40.6199359,8.55435311 40.5606344,8.71782956 40.7199013,8.94739222 L44.315266,15.2534091 C44.4169257,15.4847109 44.3965938,15.5247104 44.1119466,15.5247104 L41.5975633,15.5281887 C41.3722177,15.5281887 41.1722869,15.4447113 41.0706272,15.2151487 L38.066583,9.88825133 C37.9412027,9.65868867 37.7395777,9.53347267 37.4786511,9.53347267 L34.8202499,9.53521178 C34.5762666,9.53521178 34.4746069,9.68129711 34.4746069,9.93172911 L34.4813842,15.1768882 C34.4813842,15.4481896 34.3170344,15.5316669 34.0713568,15.5316669 L31.9636123,15.533406 C31.719629,15.533406 31.6383013,15.4499287 31.6383013,15.1994967 L31.6298296,0.606615333 C31.6298296,0.356183333 31.7111574,0.229228222 31.9534463,0.229228222 L34.0628851,0.229228222 C34.3068684,0.229228222 34.4729126,0.352705111 34.4729126,0.603137111 L34.4729126,0.937046444 C34.4729126,1.227478 34.5915156,1.33356378 34.8558308,1.25008644 L40.228546,0.100534 C40.4945556,0.0587953333 40.7368445,0.0170566667 40.9181377,0.0170566667 C41.8940708,0.0170566667 43.4342153,0.785743778 43.4376039,2.57702822" id="Fill-20"></path>
                    <path d="M53.4419352,9.02339138 L51.5713967,2.34172649 C51.5324271,2.2182496 51.4273787,2.13651138 51.2698062,2.13651138 C51.124094,2.13651138 51.0461549,2.2182496 50.9834647,2.3434656 L49.1434241,9.02513049 C49.0620964,9.31904027 49.1620617,9.4025176 49.406045,9.4025176 L53.1183184,9.40077849 C53.4232976,9.40077849 53.5232629,9.31730116 53.4419352,9.02339138 L53.4419352,9.02339138 Z M58.048814,15.185062 C58.1301417,15.4337549 58.048814,15.5172323 57.7844987,15.5172323 L55.6140641,15.5207105 C55.3717752,15.5207105 55.210814,15.4372332 55.1498181,15.1659318 L54.2755447,12.0216189 C54.173885,11.8146647 54.0129238,11.64771 53.7672462,11.64771 L48.7977811,11.6494492 C48.5537979,11.6494492 48.3708104,11.8164038 48.3318408,12.0250972 L47.4423184,15.16941 C47.3796283,15.4407114 47.2576367,15.5241887 46.9746838,15.5241887 L44.7635853,15.5259278 C44.5416283,15.5259278 44.4823268,15.4424505 44.5416283,15.1937576 L48.8740259,0.5747896 C48.9350217,0.345226933 49.0976773,0.220010933 49.3382719,0.220010933 L53.1945632,0.218271822 C53.4758217,0.218271822 53.6418659,0.343487822 53.719805,0.573050489 L58.048814,15.185062 Z" id="Fill-22"></path>
                    <path d="M68.1087192,6.85019813 L68.1036362,2.85198169 C68.1036362,2.58415858 67.9630069,2.43807324 67.720718,2.43807324 L62.385278,2.44155147 C62.1446833,2.44155147 62.0413293,2.58937591 62.0413293,2.85545991 L62.0430236,6.8762848 C62.0430236,7.14584702 62.1463777,7.27106302 62.3886666,7.27106302 L67.7224123,7.26584569 C67.9647013,7.26584569 68.1087192,7.12497769 68.1087192,6.85019813 M71.0043263,2.56155013 L71.0060207,5.10239147 C71.0060207,6.28672613 70.5028051,7.1423688 69.4675705,7.74410124 L68.4136983,8.39105058 C68.1883526,8.5353968 68.1290511,8.70235147 68.2917066,8.93191413 L71.8870714,15.2396701 C71.9887311,15.4674937 71.9683992,15.5092324 71.683752,15.5092324 L69.1676744,15.5127106 C68.944023,15.5127106 68.7407036,15.4274941 68.6407383,15.1996706 L65.6366941,9.87103413 C65.5130081,9.64321058 65.311383,9.51799458 65.0453735,9.51799458 L62.390361,9.5214728 C62.1463777,9.5214728 62.0464123,9.66581902 62.0464123,9.91625102 L62.0481066,15.1614101 C62.0481066,15.4344506 61.8854511,15.5161888 61.6431621,15.5161888 L59.5337233,15.5161888 C59.2897401,15.5161888 59.2084123,15.4344506 59.2084123,15.1840186 L59.1999407,0.589398133 C59.1999407,0.338966133 59.2812684,0.215489244 59.5235574,0.215489244 L61.6346905,0.213750133 C61.8769795,0.213750133 62.0413293,0.338966133 62.0413293,0.587659022 L62.0413293,0.921568356 C62.0413293,1.21199991 62.163321,1.31808569 62.4242475,1.23460836 L67.8003514,0.0850559111 C68.0629723,0.0433172444 68.3069556,0.00157857778 68.489943,0.00157857778 C69.4641819,0.00157857778 71.0043263,0.770265689 71.0043263,2.56155013" id="Fill-24"></path>
                    <path d="M85.1250283,0.533224844 L79.9776587,9.25834529 C79.8539728,9.46703862 79.772645,9.69660129 79.772645,9.94703329 L79.777728,15.1521928 C79.777728,15.4217551 79.654042,15.5052324 79.4337793,15.5052324 L77.3057029,15.5069715 C77.0820516,15.5069715 76.9583656,15.4234942 76.9583656,15.153932 L76.954977,9.95051151 C76.954977,9.69660129 76.8753435,9.46877773 76.7516576,9.2600844 L71.6364802,0.540181289 C71.594122,0.458443067 71.594122,0.395835067 71.6364802,0.312357733 C71.6754498,0.248010622 71.7381399,0.206271956 71.8397996,0.206271956 L74.2338856,0.206271956 C74.457537,0.206271956 74.659162,0.331487956 74.8014856,0.561050622 L78.090177,6.67924351 C78.1511728,6.80445951 78.2308062,6.8653284 78.3748241,6.8653284 C78.4764838,6.8653284 78.5578116,6.80445951 78.6391393,6.67924351 L81.9413853,0.555833289 C82.0837089,0.328009733 82.2226438,0.202793733 82.4462952,0.202793733 L84.9420408,0.201054622 C85.0013423,0.201054622 85.0860587,0.242793289 85.1250283,0.303662178 C85.1639979,0.387139511 85.1639979,0.451486622 85.1250283,0.533224844" id="Fill-26"></path>
                </g>
                <path d="M18.0734006,15.1885804 C18.0734006,15.4372733 17.9734352,15.5242288 17.7277576,15.5242288 L15.6962579,15.5242288 C15.453969,15.5242288 15.3506149,15.4407515 15.3506149,15.1711893 L15.3455319,2.48089551 C15.3455319,2.27220218 15.2235403,2.14698618 14.999889,2.14698618 C14.7982639,2.14698618 14.6982985,2.25133284 14.654246,2.43741773 L11.5756513,15.1937977 C11.5315988,15.4424906 11.3706376,15.525968 11.1266543,15.525968 L7.1280394,15.5294462 C6.90269373,15.5294462 6.74173254,15.4459688 6.69768,15.1955368 L3.60722507,2.44611329 C3.54622925,2.25655018 3.4411809,2.15742084 3.28191403,2.15742084 C3.05826269,2.15742084 2.91255045,2.28089773 2.91255045,2.49133018 L2.92102209,15.1781457 C2.92102209,15.4494471 2.79903045,15.5329244 2.53640955,15.5329244 L0.506604179,15.5329244 C0.304979104,15.5329244 0.223651343,15.4494471 0.223651343,15.1990151 L0.211791045,0.576568844 C0.211791045,0.347006178 0.293118806,0.221790178 0.498132537,0.221790178 L5.33035701,0.218311956 C5.59636657,0.218311956 5.73699582,0.343527956 5.81832358,0.573090622 L8.81050746,13.3416444 C8.8308394,13.5242511 8.93588776,13.6112066 9.1171809,13.6112066 C9.31880597,13.6112066 9.44079761,13.5242511 9.47976716,13.3416444 L12.4804227,0.567873289 C12.5210866,0.338310622 12.6447725,0.213094622 12.8853672,0.213094622 L17.7226746,0.213094622 C17.9632693,0.213094622 18.064929,0.336571511 18.064929,0.567873289 L18.0734006,15.1885804 Z" id="Fill-9"></path>
                <path d="M23.1748539,15.7266614 C21.77195,15.7266614 20.735021,14.5614569 20.735021,13.2084285 L20.7265494,0.585960044 C20.7265494,0.335528044 20.8078771,0.212051156 21.0332228,0.212051156 L23.1867141,0.208572933 C23.4290031,0.208572933 23.5713267,0.333788933 23.5713267,0.584220933 L23.5797983,12.8936494 C23.5797983,13.1649507 23.6797637,13.2901667 23.9440789,13.2901667 L29.6522712,13.2849494 C29.9572503,13.2849494 30.0978795,13.1597334 30.0978795,12.888432 L30.0927965,0.580742711 C30.0927965,0.330310711 30.1927619,0.205076842 30.4147189,0.205076842 L32.5292407,0.205076842 C32.7918616,0.2033556 32.9341852,0.3285716 32.9341852,0.577264489 L32.9443512,15.1805805 C32.9443512,15.4310125 32.8020276,15.5144898 32.536018,15.5162289 L30.4265792,15.5162289 C30.2029279,15.5162289 30.1029625,15.4327516 30.1029625,15.1614503 L30.1012682,14.8066716 C30.1012682,14.5562396 29.9165864,14.4292845 29.609913,14.4936316 L23.8644455,15.6449232 C23.5611607,15.7266614 23.335815,15.7266614 23.1748539,15.7266614" id="Fill-11"></path>
                <path d="M46.6519759,9.62916391 L46.6519759,11.1074084 C46.6519759,12.2952212 46.1657036,13.1926026 45.1897705,13.7752048 L42.7956845,15.1334506 C42.3297442,15.4047519 41.8197514,15.5090986 41.3334792,15.5090986 L35.9082398,15.5143159 C35.6456189,15.5143159 35.5439592,15.4308386 35.5439592,15.1804066 L35.5439592,13.6586844 C35.5439592,13.4291217 35.6439245,13.2812972 35.9268774,13.2812972 L43.4039484,13.2760799 C43.6055735,13.2760799 43.768229,13.1508639 43.768229,12.8813017 L43.7665347,9.33699324 C43.7665347,9.06569191 43.6038792,8.91786747 43.4022541,8.92134569 L38.1210326,8.92134569 C36.3114899,8.92134569 35.1542636,7.48657902 35.1542636,5.8865968 L35.1525693,4.59617636 C35.1525693,3.45184124 35.5964833,2.55619902 36.5927484,1.94924924 L38.990223,0.5962208 C39.4358314,0.324919467 39.9424356,0.201442578 40.4287078,0.197964356 L45.7539819,0.196225244 C46.0166027,0.196225244 46.157232,0.321441244 46.157232,0.570134133 L46.1606207,2.09185636 C46.1606207,2.31967991 46.0182971,2.42228747 45.7539819,2.42228747 L38.3819592,2.4275048 C38.1142553,2.4275048 38.0346219,2.57532924 38.0346219,2.84315236 L38.0380105,6.11094213 C38.0380105,6.42398213 38.1379759,6.53006791 38.4022911,6.53006791 L43.6631807,6.52658969 C44.9610362,6.52658969 46.6502816,7.58570836 46.6519759,9.62916391" id="Fill-13"></path>
                <path d="M51.4491278,15.1703197 C51.4491278,15.4190126 51.3051099,15.50249 51.0611266,15.50249 L48.9076352,15.5042291 C48.7060101,15.5042291 48.6246824,15.4224908 48.6246824,15.1720588 L48.6179051,0.547873511 C48.6179051,0.320049956 48.6992328,0.193094844 48.9008579,0.193094844 L51.0543493,0.191355733 C51.2983325,0.191355733 51.4389618,0.318310844 51.4389618,0.5461344 L51.4491278,15.1703197 Z" id="Fill-15"></path>
                <path d="M54.270015,12.5016537 L54.2683207,4.60435018 C54.2683207,3.44088484 54.7512043,2.5417644 55.7474694,1.93829284 L58.1229177,0.5852644 C58.5481941,0.312223956 59.0564927,0.187007956 59.5241273,0.187007956 L64.5613655,0.185268844 C64.8036544,0.185268844 64.9273404,0.310484844 64.9273404,0.562655956 L64.9273404,2.08089996 C64.9273404,2.30872351 64.8070431,2.41133107 64.5630598,2.41133107 L57.5146539,2.41480929 C57.2723649,2.41480929 57.1707052,2.56263373 57.1707052,2.83393507 L57.1757882,12.8755626 C57.1757882,13.1451248 57.2757536,13.2703408 57.5197368,13.2703408 L64.7714622,13.2651235 C64.9934192,13.2651235 65.1374371,13.3712093 65.1374371,13.5799026 C65.1374371,13.8077262 65.0357774,13.9972893 64.8121261,14.1190271 L63.0652736,15.1207551 C62.5993333,15.3937955 62.113061,15.4981422 61.6250944,15.4981422 L57.236784,15.4998813 C55.7966049,15.4998813 54.2717094,14.4390235 54.270015,12.5016537" id="Fill-17"></path>
            </g>
        </g>
    </g>
</svg>