<?xml version="1.0" encoding="utf-8"?>
<!-- Generator: Adobe Illustrator 24.0.0, SVG Export Plug-In . SVG Version: 6.00 Build 0)  -->
<svg version="1.1" id="Layer_1" xmlns="http://www.w3.org/2000/svg" xmlns:xlink="http://www.w3.org/1999/xlink" x="0px" y="0px"
	 viewBox="0 0 118 60" style="enable-background:new 0 0 118 60;" xml:space="preserve">
<style type="text/css">
	.st0{filter:url(#Adobe_OpacityMaskFilter);}
	.st1{fill-rule:evenodd;clip-rule:evenodd;fill:#FFFFFF;}
	.st2{mask:url(#mask-2_1_);fill-rule:evenodd;clip-rule:evenodd;fill:#FFFFFF;}
</style>
<title>logo/space/DM</title>
<desc>Created with Sketch.</desc>
<g id="logo_x2F_space_x2F_DM">
	<g id="Group-3" transform="translate(26.000000, 0.000000)">
		<g id="Clip-2">
		</g>
		<defs>
			<filter id="Adobe_OpacityMaskFilter" filterUnits="userSpaceOnUse" x="0" y="0" width="66" height="60">
				<feColorMatrix  type="matrix" values="1 0 0 0 0  0 1 0 0 0  0 0 1 0 0  0 0 0 1 0"/>
			</filter>
		</defs>
		<mask maskUnits="userSpaceOnUse" x="0" y="0" width="66" height="60" id="mask-2_1_">
			<g class="st0">
				<polygon id="path-1_1_" class="st1" points="0,0 66,0 66,70 0,70 				"/>
			</g>
		</mask>
		<path id="Fill-1" class="st2" d="M22.3,43c0.1,0,0.2,0,0.3,0.1c0.1,0.1,0.2,0.2,0.2,0.4c0,0,0,0.1,0,0.1c0,0.3-0.2,0.6-0.5,0.6
			c-0.1,0-0.1,0-0.2,0c-0.1-0.1-0.3-0.2-0.3-0.3c0-0.1,0-0.1,0-0.2C21.8,43.3,21.9,43,22.3,43L22.3,43z M21.8,44.4L21.8,44.4
			c0.1,0.1,0.2,0.2,0.4,0.2c0.1,0,0.2,0.1,0.3,0.1c0.6,0,1-0.5,1-1.1c0,0,0-0.1,0-0.1c0-0.2-0.1-0.3-0.1-0.5
			c-0.1-0.1-0.2-0.2-0.3-0.3c-0.2-0.1-0.4-0.2-0.6-0.2c-0.3,0-0.6,0.2-0.7,0.3h0v-0.3h-0.7v3.2h0.7V44.4z M37.5,43.3h1.2v1.3h0.7v-3
			h-0.7v1.2h-1.2v-1.2h-0.7v3h0.7V43.3z M41.1,43c0.3,0,0.5,0.3,0.5,0.5c0,0.3-0.2,0.6-0.5,0.6c-0.3,0-0.5-0.3-0.5-0.6
			C40.6,43.3,40.8,43,41.1,43L41.1,43z M41.1,44.7c0.6,0,1.2-0.4,1.2-1.1c0-0.7-0.5-1.1-1.2-1.1c-0.6,0-1.2,0.4-1.2,1.1
			C39.9,44.2,40.4,44.7,41.1,44.7L41.1,44.7z M19,42.1c0.5,0,0.9,0.4,0.9,0.9c0,0.6-0.4,0.9-0.9,0.9s-0.9-0.4-0.9-0.9
			C18.1,42.5,18.5,42.1,19,42.1L19,42.1z M19,44.7c1,0,1.7-0.7,1.7-1.6c0-1-0.7-1.6-1.7-1.6c-0.9,0-1.6,0.6-1.6,1.6
			C17.3,44,18,44.7,19,44.7L19,44.7z M30.7,43.4l0.6-0.9l0.2-0.3h0v1.1H30.7z M31.4,44.6h0.7V44h0.4v-0.6h-0.4v-1.9h-0.9L30,43.4V44
			h1.4V44.6z M24.9,42.9c0.3,0,0.4,0.2,0.4,0.4h-0.9C24.5,43.1,24.7,42.9,24.9,42.9L24.9,42.9z M25,44.7c0.4,0,0.8-0.2,1-0.5
			l-0.5-0.3c-0.1,0.1-0.2,0.2-0.5,0.2c-0.3,0-0.5-0.2-0.5-0.4H26c0-0.1,0-0.1,0-0.2c0-0.7-0.4-1.2-1.1-1.2c-0.2,0-0.4,0.1-0.6,0.1
			c-0.2,0.1-0.3,0.2-0.4,0.4c-0.1,0.2-0.2,0.4-0.2,0.6C23.8,44.3,24.3,44.7,25,44.7L25,44.7z M34,43.3c0.2,0,0.4,0.2,0.4,0.4
			c0,0.2-0.2,0.4-0.4,0.4c-0.2,0-0.4-0.2-0.4-0.4C33.6,43.5,33.8,43.3,34,43.3L34,43.3z M34,42c0.1,0,0.1,0,0.2,0.1
			c0.1,0.1,0.2,0.2,0.2,0.3c0,0.2-0.2,0.4-0.4,0.4c-0.1,0-0.2,0-0.2-0.1c-0.1-0.1-0.1-0.2-0.1-0.3C33.7,42.2,33.8,42,34,42L34,42z
			 M32.9,43.7c0,0,0,0.1,0,0.1c0.1,0.6,0.6,0.8,1.1,0.8c0.3,0,0.6-0.1,0.8-0.2c0.2-0.2,0.4-0.4,0.4-0.7c0-0.3-0.2-0.5-0.4-0.7
			c-0.1,0-0.1-0.1-0.2-0.1v0c0.1,0,0.1,0,0.2-0.1c0.2-0.1,0.3-0.3,0.3-0.6c0-0.3-0.1-0.5-0.3-0.6c-0.1,0-0.1-0.1-0.2-0.1
			c-0.1-0.1-0.3-0.1-0.5-0.1c0,0-0.1,0-0.1,0c-0.2,0-0.4,0-0.5,0.1C33.2,41.7,33,42,33,42.3c0,0,0,0,0,0.1c0,0.2,0.1,0.3,0.2,0.5
			c0.1,0.1,0.2,0.2,0.3,0.2v0C33.1,43.1,32.9,43.4,32.9,43.7L32.9,43.7z M27.1,43.5c0-0.2,0.1-0.5,0.4-0.5c0.3,0,0.3,0.2,0.3,0.5
			v1.2h0.7v-1.3c0-0.4-0.2-0.9-0.8-0.9c-0.3,0-0.5,0.2-0.6,0.4h0v-0.3h-0.7v2.1h0.7V43.5z M21.5,32.9c0,0.3-0.3,0.6-0.6,0.6H19
			c-0.3,0-0.6-0.3-0.6-0.6v-7c0-0.3,0.3-0.6,0.6-0.6h1.9c0.3,0,0.6,0.3,0.6,0.6V32.9z M21.7,23.1h-3.5c-1,0-1.9,0.8-1.9,1.9v8.7
			c0,1,0.8,1.9,1.9,1.9h3.5c1,0,1.9-0.8,1.9-1.9V25C23.6,24,22.8,23.1,21.7,23.1L21.7,23.1z M65.1,33.9c0,0.1-0.1,0.2-0.2,0.2H53.2
			c-0.1,0-0.2-0.1-0.2-0.2V19.3c0-0.1,0.1-0.2,0.2-0.2h11.8c0.1,0,0.2,0.1,0.2,0.2V33.9z M52.1,36.7c0,0.1-0.1,0.2-0.2,0.2H40.1
			c-0.1,0-0.2-0.1-0.2-0.2V22c0-0.1,0.1-0.2,0.2-0.2h11.8c0.1,0,0.2,0.1,0.2,0.2V36.7z M39.1,33.9c0,0.1-0.1,0.2-0.2,0.2H27.1
			c-0.1,0-0.2-0.1-0.2-0.2V19.3c0-0.1,0.1-0.2,0.2-0.2h11.8c0.1,0,0.2,0.1,0.2,0.2V33.9z M51,39.8c0.1,0,0.2,0.1,0.2,0.2v6.2
			c0,0.1-0.1,0.2-0.2,0.2H15c-0.1,0-0.2-0.1-0.2-0.2V40c0-0.1,0.1-0.2,0.2-0.2H51z M30.4,4.7c-1,0-1.5,0.8-1.5,1.5c0,0.5,0.3,1,1,1
			c0.3,0,1,0,1,0.7c0,0.5-0.3,0.9-1.4,0.9c-1,0-2.2-0.7-2.2-2.3c0-2,1.8-3.3,3.4-3.3C32,3.2,33.1,4,33.1,6l0.1,4.2
			c1.2-2.2,2.7-4.4,2.7-6c0-0.7,0.4-1.1,0.8-1.1c0.4,0,0.8,0.4,0.8,1.3c0,1.9-2.4,5.3-3.6,7.8c-0.3,0.6-0.7,0.9-1.2,0.9
			c-0.7,0-1-0.4-1-1.2l-0.1-5.4C31.5,5.3,31,4.7,30.4,4.7L30.4,4.7z M28.5,9.6c-0.1,0.3-0.2,0.6-0.4,0.9c-0.7,1.6-1.5,2.3-2.9,2.3
			c-0.7,0-1.2-0.3-1.5-0.7c-0.5,0.5-1,0.7-1.6,0.7c-1.1,0-1.6-0.8-1.6-1.9c0-2,1.6-4.8,3.6-4.8c0.5,0,0.9,0.2,1.1,0.6
			c0.2-0.3,0.5-0.5,0.8-0.5c0.4,0,0.7,0.3,0.7,0.8c0,0.1,0,0.3-0.1,0.5l-0.1,0.3L26,9.3c-0.3,0.8-0.5,1.2-0.6,1.4
			c-0.2,0.5,0,0.9,0.4,0.9c0.4,0,0.9-0.4,1.3-1.3c0.1-0.2,0.2-0.5,0.4-1.1c0.1-0.3,0.4-0.5,0.7-0.4C28.6,9,28.7,9.2,28.5,9.6
			L28.5,9.6z M15.8,13.1c-0.8,0-1.4-0.3-1.9-0.7c-0.6,0.5-1.2,0.7-2.1,0.7c-1.5,0-2.2-0.8-2.2-1.7c0-0.9,0.8-1.8,2.2-1.8
			c0.7,0,1.2,0.3,1.7,0.6c0.1-0.1,0.1-0.3,0.2-0.5l1.6-3.9c0.2-0.6,0.6-0.8,1-0.8C16.7,5,17,5.3,17,5.7c0,0.1,0,0.3-0.1,0.5
			l-0.1,0.3l-1.6,3.8c-0.1,0.4-0.3,0.7-0.4,0.9c0.3,0.2,0.7,0.4,1,0.4c2.2,0,3.4-2.2,3.4-4.1c0-1.7-1-3.4-2.9-3.4
			c-1.4,0-2.7,0.8-2.7,1.9c0,0.6,0.3,0.7,0.4,0.9c0,0.1,0,0.1,0,0.2c0,0.3-0.3,0.6-0.6,0.6c-0.7,0-1.3-0.9-1.3-1.7
			c0-2,2.1-3.3,4.3-3.3c3,0,4.4,2.3,4.4,4.7C20.7,10.2,19,13.1,15.8,13.1L15.8,13.1z M38.9,6.2c0.4,0,0.7,0.3,0.7,0.8
			c0,0.1,0,0.3-0.1,0.5l-0.1,0.3l-0.7,1.7c-0.3,0.8-0.5,1.2-0.6,1.4c-0.2,0.5,0,0.9,0.4,0.9c0.4,0,0.8-0.4,1.2-1.1L41.2,7
			c0.2-0.6,0.6-0.8,1-0.8c0.3,0,0.6,0.2,0.7,0.5c0.5-0.4,1-0.6,1.5-0.6c0.8,0,1.4,0.5,1.4,1.3c0,0.4-0.3,1.2-0.6,2
			c-0.3,0.8-0.5,1.2-0.6,1.4c-0.2,0.5,0,0.9,0.4,0.9c0.4,0,0.9-0.4,1.3-1.3c0.1-0.1,0.2-0.4,0.4-0.9C47,7.7,48.4,6.1,50,6.1
			c1.2,0,1.8,0.7,1.8,1.6c0,0.8-0.7,1.5-1.4,1.5c-0.6,0-0.9-0.4-0.9-0.8c0-0.4,0.3-0.8,0.8-0.8c0.1,0,0.3,0,0.4,0.1
			c0.1,0.1,0.2,0,0.2-0.1c-0.1-0.2-0.3-0.3-0.6-0.3c-1,0-2,1.7-2,3c0,0.8,0.3,1.4,1.2,1.4c1,0,1.8-0.5,2.3-1.4
			c0.1-0.3,0.2-0.6,0.4-0.9L52.9,7c0.2-0.6,0.6-0.8,1-0.8c0.4,0,0.7,0.3,0.7,0.8c0,0.1,0,0.3-0.1,0.5l-0.1,0.3l-0.7,1.7
			c-0.3,0.8-0.5,1.2-0.6,1.4c-0.2,0.5,0,0.9,0.4,0.9c0.4,0,0.9-0.4,1.3-1.3c0.1-0.2,0.2-0.5,0.4-1.1c0.1-0.3,0.4-0.5,0.7-0.4
			c0.3,0.1,0.4,0.4,0.3,0.7c-0.1,0.3-0.2,0.6-0.4,0.9c-0.7,1.6-1.5,2.3-2.9,2.3c-0.7,0-1.2-0.3-1.5-0.8c-0.7,0.6-1.5,0.8-2.5,0.8
			c-1.2,0-2.1-0.5-2.5-1.3c-0.6,0.8-1.3,1.2-2.2,1.2c-1,0-1.7-0.6-1.7-1.4c0-0.4,0.2-0.8,0.7-2.1c0.3-0.6,0.5-1.2,0.5-1.4
			c0-0.2-0.1-0.4-0.4-0.4c-0.3,0-0.6,0.2-0.9,0.6L41.3,11l-0.4,1.1c-0.2,0.5-0.6,0.7-0.9,0.7c-0.2,0-0.5-0.1-0.6-0.3
			c-0.4,0.2-0.8,0.3-1.3,0.3c-1,0-1.7-0.6-1.7-1.4c0-0.4,0.2-0.8,0.7-2.1L37.9,7C38.2,6.4,38.6,6.2,38.9,6.2L38.9,6.2z M39.7,3.8
			c0.5,0,0.9,0.4,0.9,0.9c0,0.5-0.4,0.9-0.9,0.9c-0.5,0-0.9-0.4-0.9-0.9C38.8,4.2,39.2,3.8,39.7,3.8L39.7,3.8z M54.7,3.8
			c0.5,0,0.9,0.4,0.9,0.9c0,0.5-0.4,0.9-0.9,0.9c-0.5,0-0.9-0.4-0.9-0.9C53.8,4.2,54.2,3.8,54.7,3.8L54.7,3.8z M26,36.7
			c0,0.1-0.1,0.2-0.2,0.2H14.1c-0.1,0-0.2-0.1-0.2-0.2V22c0-0.1,0.1-0.2,0.2-0.2h11.8c0.1,0,0.2,0.1,0.2,0.2V36.7z M13,33.9
			c0,0.1-0.1,0.2-0.2,0.2H1.1c-0.1,0-0.2-0.1-0.2-0.2V19.3c0-0.1,0.1-0.2,0.2-0.2h11.8c0.1,0,0.2,0.1,0.2,0.2V33.9z M34.8,59.9v-0.6
			V47.3H51c0.6,0,1.1-0.5,1.1-1.1V40c0-0.6-0.5-1.1-1.1-1.1H34.8l0-3.7l4.3,0l0.1,1.5c0,0.6,0.5,1.1,1.1,1.1h11.8
			c0.6,0,1.1-0.5,1.1-1.1V35c0.1,0,0.1,0,0.2,0h11.8c0.6,0,1.1-0.5,1.1-1.1V19.3c0-0.6-0.5-1.1-1.1-1.1H53.2c-0.6,0-1.1,0.5-1.1,1.1
			V21c-0.1,0-0.1,0-0.2,0H40.1c-0.1,0-0.1,0-0.2,0v-1.7c0-0.6-0.5-1.1-1.1-1.1h-4.1v-2.3h24.4c0.3,0,0.5-0.2,0.6-0.5l4-14.6
			C63.9,0.4,63.7,0,63.2,0H2.8C2.3,0,2.1,0.4,2.2,0.8l4,14.6c0.1,0.3,0.3,0.5,0.6,0.5h24.4v2.3h-4.1c-0.6,0-1.1,0.5-1.1,1.1V21
			c-0.1,0-0.1,0-0.2,0H14.1c-0.1,0-0.1,0-0.2,0v-1.7c0-0.6-0.5-1.1-1.1-1.1H1.1c-0.6,0-1.1,0.5-1.1,1.1v14.7C0,34.5,0.5,35,1.1,35
			h11.8c0.1,0,0.1,0,0.2,0v1.7c0,0.6,0.5,1.1,1.1,1.1h11.8c0.6,0,1.1-0.5,1.1-1.1v-1.5c0.1,0,0.1,0,0.2,0l4,0l0,3.7H15
			c-0.6,0-1.1,0.5-1.1,1.1v6.2c0,0.6,0.5,1.1,1.1,1.1h3h13.2L31.2,60L34.8,59.9z M62.2,30.7h-4.3V20.4c0,0,0-0.1-0.1-0.1h-1.9
			c0,0-0.1,0-0.1,0.1v12.3c0,0,0,0.1,0.1,0.1h6.3c0,0,0.1,0,0.1-0.1L62.2,30.7C62.3,30.8,62.2,30.7,62.2,30.7L62.2,30.7z M43.5,44.7
			c0.3,0,0.5-0.2,0.6-0.4h0v0.3h0.7v-2.1h-0.7v1.2c0,0.2-0.1,0.5-0.4,0.5c-0.3,0-0.3-0.2-0.3-0.5v-1.2h-0.7v1.3
			C42.7,44.2,42.9,44.7,43.5,44.7L43.5,44.7z M11.5,20.4H9.5c0,0,0,0,0,0c0,0,0,0,0,0c0,0,0,0,0,0c0,0,0,0,0,0L7,25l-2.5-4.6
			c0,0,0,0,0,0c0,0,0,0,0,0c0,0,0,0,0,0c0,0,0,0,0,0H2.4c0,0-0.1,0-0.1,0.1v12.3c0,0,0,0.1,0.1,0.1h1.9c0,0,0.1,0,0.1-0.1v-8
			l1.3,2.5L7,29.3l1.2-2.2l1.3-2.5v8c0,0,0,0.1,0.1,0.1h1.9c0,0,0.1,0,0.1-0.1L11.5,20.4C11.5,20.4,11.5,20.4,11.5,20.4L11.5,20.4z
			 M36.6,20.4h-7.1c0,0-0.1,0-0.1,0.1v1.9c0,0,0,0.1,0.1,0.1H32v10.3c0,0,0,0.1,0.1,0.1H34c0,0,0.1,0,0.1-0.1V22.4h2.5
			c0,0,0.1,0,0.1-0.1L36.6,20.4C36.6,20.4,36.6,20.4,36.6,20.4L36.6,20.4z M46,43.5c0-0.2,0.1-0.5,0.5-0.5c0.1,0,0.1,0,0.2,0l0-0.6
			c0,0-0.1,0-0.1,0c-0.3,0-0.5,0.2-0.6,0.4h0v-0.3h-0.7v2.1H46V43.5z M11.1,11.3c0,0.2,0.3,0.5,0.8,0.5c0.4,0,0.7-0.1,1-0.4
			c-0.4-0.3-0.7-0.5-1.2-0.5C11.3,10.9,11.1,11.1,11.1,11.3L11.1,11.3z M47.7,44.2c-0.2,0-0.4-0.1-0.5-0.2l-0.4,0.4
			c0.2,0.2,0.6,0.3,0.9,0.3c0.4,0,0.9-0.2,0.9-0.7c0-0.4-0.4-0.6-0.7-0.7c-0.3-0.1-0.4-0.1-0.4-0.2c0-0.1,0.1-0.2,0.3-0.2
			c0.2,0,0.3,0.1,0.4,0.2l0.4-0.4c-0.2-0.2-0.5-0.3-0.9-0.3c-0.4,0-0.9,0.2-0.9,0.7c0,0.4,0.3,0.6,0.6,0.6c0.3,0.1,0.4,0.1,0.4,0.2
			C48,44.1,47.8,44.2,47.7,44.2L47.7,44.2z M24.5,7.5c-1,0-2.1,2.2-2.1,3.3c0,0.4,0.1,0.7,0.4,0.7c0.3,0,0.8-0.3,1.1-1.2l0.3-0.9
			l0.6-1.5C24.8,7.6,24.7,7.5,24.5,7.5L24.5,7.5z M49.2,23.1h-6.3c0,0-0.1,0-0.1,0.1v12.3c0,0,0,0.1,0.1,0.1h6.3c0,0,0.1,0,0.1-0.1
			v-1.9c0,0,0-0.1-0.1-0.1h-4.3v-3.1h3.6c0,0,0.1,0,0.1-0.1v-1.9c0,0,0-0.1-0.1-0.1h-3.6v-3.1h4.3c0,0,0.1,0,0.1-0.1L49.2,23.1
			C49.2,23.2,49.2,23.1,49.2,23.1L49.2,23.1z"/>
	</g>
</g>
</svg>
