<?xml version="1.0" encoding="UTF-8"?>
<svg width="118px" height="60px" viewBox="0 0 118 60" version="1.1" xmlns="http://www.w3.org/2000/svg" xmlns:xlink="http://www.w3.org/1999/xlink">
    <!-- Generator: Sketch 55.1 (78136) - https://sketchapp.com -->
    <title>logo/space/CL</title>
    <desc>Created with Sketch.</desc>
    <g id="logo/space/CL" stroke="none" stroke-width="1" fill="none" fill-rule="evenodd">
        <g id="logo/space/DL" transform="translate(17.000000, 13.000000)" fill="#000000">
            <g id="Group">
                <g id="기본" transform="translate(0.000000, 19.264000)">
                    <path d="M3.0787656,15.5480195 C1.01918846,15.5514928 0.2634696,13.7202088 0.261847886,12.5532652 L0.255361029,0.624702089 C0.255361029,0.374270089 0.352663886,0.249054089 0.586190743,0.249054089 L2.62306389,0.247314978 C2.85659074,0.247314978 2.99281474,0.370791867 2.99281474,0.621223867 L3.00092331,12.925435 C3.00092331,13.1949972 3.09660446,13.3202132 3.34797017,13.3202132 L9.89158731,13.3149959 C10.1234925,13.3149959 10.279177,13.4193425 10.279177,13.6280359 C10.279177,13.8593376 10.142953,14.0454225 9.95159074,14.1688994 L8.30230731,15.1706274 C7.83363189,15.4419288 7.36819989,15.5462754 6.86384674,15.5462754 L3.0787656,15.5480195 Z" id="Fill-13"></path>
                    <path d="M13.9121414,15.208714 C13.9121414,15.459146 13.7759174,15.5426233 13.5423905,15.5426233 L11.4860568,15.5443624 C11.2914511,15.5443624 11.2136088,15.4608851 11.2136088,15.2121922 L11.2087437,0.594963289 C11.2087437,0.367139733 11.2833425,0.241905858 11.4779482,0.241905858 L13.5391471,0.241905858 C13.7710522,0.240184622 13.9056545,0.365400622 13.9056545,0.593224178 L13.9121414,15.208714 Z" id="Fill-16"></path>
                    <path d="M25.250519,12.9125656 L25.2488973,9.49869044 C25.2488973,9.22738911 25.0737521,9.04130422 24.8013041,9.04130422 L19.5599235,9.04304333 C19.3053144,9.04304333 19.1901727,9.209998 19.1901727,9.47956022 L19.1934161,12.9369131 C19.1934161,13.1873451 19.3101795,13.2934309 19.563167,13.2934309 L24.8061693,13.2899527 C25.0753738,13.2899527 25.250519,13.1647367 25.250519,12.9125656 M25.2440768,6.41524644 L25.2440768,2.87615533 C25.2440768,2.60833222 25.068887,2.44137756 24.7996824,2.44137756 L19.5372195,2.44485578 C19.2858538,2.44485578 19.188551,2.61181044 19.188551,2.87963356 L19.188551,6.44133311 C19.1901727,6.69350422 19.3053144,6.815242 19.5599235,6.815242 L24.8013041,6.81350289 C25.0737521,6.81350289 25.2472755,6.68828689 25.2440768,6.41524644 M28.0398675,2.58572378 L28.0414893,4.64657044 C28.0414893,5.563082 27.7122813,6.37350778 27.0522435,6.95784911 C26.9744013,7.04306556 26.9160195,7.12480378 26.9160195,7.27088911 C26.9160195,7.41349622 26.9744013,7.49697356 27.0717041,7.56132067 C27.7333635,8.16305311 28.0836699,8.95434867 28.0836699,9.93694644 L28.0836699,11.1021509 C28.0868973,12.2656162 27.5987613,13.1612584 26.6289761,13.76473 L24.399119,15.1629753 C23.9515258,15.4342767 23.4860938,15.5386233 22.9395761,15.5386233 L16.8078744,15.5403624 C16.5921864,15.5403624 16.5143441,15.4586242 16.5143441,15.2081922 L16.5078573,0.615310889 C16.5078573,0.364878889 16.5840778,0.239662889 16.7997658,0.239662889 L18.8171784,0.239662889 C19.0507053,0.237923778 19.1869293,0.363139778 19.1869293,0.611832667 L19.1869293,0.945742 C19.1869293,1.21530422 19.3036927,1.31791178 19.5956013,1.25704289 L24.9715841,0.109229556 C25.2829533,0.0657517778 25.5164801,0.0257493621 25.6316218,0.0257493621 C26.6208675,0.0240131111 28.0398675,0.815308667 28.0398675,2.58572378" id="Fill-18"></path>
                    <path d="M38.7996175,6.86741533 L38.7979958,2.86745978 C38.7979958,2.59963667 38.6633935,2.45355133 38.4282449,2.45355133 L33.3247101,2.45529044 C33.0911832,2.45529044 32.9955021,2.604854 32.9955021,2.87267711 L32.9971238,6.89176289 C32.9971238,7.16132511 33.0944266,7.28654111 33.3279535,7.28654111 L38.4298666,7.28306289 C38.6666369,7.28306289 38.7996175,7.13871667 38.7996175,6.86741533 M41.5759923,2.57702822 L41.5759923,5.11613044 C41.5776141,6.30046511 41.0927215,7.15784689 40.1018541,7.75957933 L39.0931478,8.40652867 C38.8790815,8.55435311 38.8223215,8.71782956 38.9747626,8.94739222 L42.4160403,15.2534091 C42.5133432,15.4847109 42.4938826,15.5247104 42.2214346,15.5247104 L39.8148106,15.5281887 C39.5991226,15.5281887 39.4077603,15.4447113 39.3104575,15.2151487 L36.4351581,9.88825133 C36.3151512,9.65868867 36.1221672,9.53347267 35.8724232,9.53347267 L33.3279535,9.53521178 C33.0944266,9.53521178 32.9971238,9.68129711 32.9971238,9.93172911 L33.0036106,15.1768882 C33.0036106,15.4481896 32.8463043,15.5316669 32.6111558,15.5316669 L30.5937432,15.533406 C30.3602163,15.533406 30.2823741,15.4499287 30.2823741,15.1994967 L30.2742655,0.606615333 C30.2742655,0.356183333 30.3521078,0.229228222 30.5840129,0.229228222 L32.6030472,0.229228222 C32.8365741,0.229228222 32.9955021,0.352705111 32.9955021,0.603137111 L32.9955021,0.937046444 C32.9955021,1.227478 33.1090221,1.33356378 33.3620095,1.25008644 L38.5044655,0.100534 C38.7590746,0.0587953333 38.9909798,0.0170566667 39.1645032,0.0170566667 C40.0986106,0.0170566667 41.5727489,0.785743778 41.5759923,2.57702822" id="Fill-20"></path>
                    <path d="M51.1515665,9.02339138 L49.3611939,2.34172649 C49.3238945,2.2182496 49.2233482,2.13651138 49.0725288,2.13651138 C48.9330614,2.13651138 48.8584625,2.2182496 48.7984591,2.3434656 L47.0372774,9.02513049 C46.9594351,9.31904027 47.0551162,9.4025176 47.2886431,9.4025176 L50.8418191,9.40077849 C51.1337277,9.40077849 51.2294088,9.31730116 51.1515665,9.02339138 L51.1515665,9.02339138 Z M55.5610077,15.185062 C55.6388499,15.4337549 55.5610077,15.5172323 55.3080202,15.5172323 L53.2306042,15.5207105 C52.9986991,15.5207105 52.8446362,15.4372332 52.7862545,15.1659318 L51.9494499,12.0216189 C51.8521471,11.8146647 51.6980842,11.64771 51.4629357,11.64771 L46.7064477,11.6494492 C46.4729208,11.6494492 46.2977757,11.8164038 46.2604762,12.0250972 L45.4090762,15.16941 C45.3490728,15.4407114 45.2323094,15.5241887 44.9614831,15.5241887 L42.8451459,15.5259278 C42.6327014,15.5259278 42.5759414,15.4424505 42.6327014,15.1937576 L46.7794248,0.5747896 C46.8378065,0.345226933 46.9934911,0.220010933 47.2237745,0.220010933 L50.9147962,0.218271822 C51.1840008,0.218271822 51.3429288,0.343487822 51.4175277,0.573050489 L55.5610077,15.185062 Z" id="Fill-22"></path>
                    <path d="M65.1897741,6.85019813 L65.1849089,2.85198169 C65.1849089,2.58415858 65.0503066,2.43807324 64.8184015,2.43807324 L59.7116232,2.44155147 C59.4813398,2.44155147 59.3824152,2.58937591 59.3824152,2.85545991 L59.3840369,6.8762848 C59.3840369,7.14584702 59.4829615,7.27106302 59.7148666,7.27106302 L64.8200232,7.26584569 C65.0519283,7.26584569 65.1897741,7.12497769 65.1897741,6.85019813 M67.9612838,2.56155013 L67.9629055,5.10239147 C67.9629055,6.28672613 67.4812563,7.1423688 66.4903889,7.74410124 L65.4816826,8.39105058 C65.2659946,8.5353968 65.2092346,8.70235147 65.3649192,8.93191413 L68.8061969,15.2396701 C68.9034998,15.4674937 68.8840392,15.5092324 68.6115912,15.5092324 L66.2033455,15.5127106 C65.9892792,15.5127106 65.7946735,15.4274941 65.6989923,15.1996706 L62.8236929,9.87103413 C62.7053078,9.64321058 62.5123238,9.51799458 62.2577146,9.51799458 L59.7164883,9.5214728 C59.4829615,9.5214728 59.3872803,9.66581902 59.3872803,9.91625102 L59.3889021,15.1614101 C59.3889021,15.4344506 59.2332175,15.5161888 59.0013123,15.5161888 L56.9822781,15.5161888 C56.7487512,15.5161888 56.6709089,15.4344506 56.6709089,15.1840186 L56.6628003,0.589398133 C56.6628003,0.338966133 56.7406426,0.215489244 56.9725478,0.215489244 L58.9932038,0.213750133 C59.2251089,0.213750133 59.3824152,0.338966133 59.3824152,0.587659022 L59.3824152,0.921568356 C59.3824152,1.21199991 59.4991786,1.31808569 59.7489226,1.23460836 L64.8946221,0.0850559111 C65.1459878,0.0433172444 65.3795146,0.00157857778 65.5546598,0.00157857778 C66.4871455,0.00157857778 67.9612838,0.770265689 67.9612838,2.56155013" id="Fill-24"></path>
                    <path d="M81.4768128,0.533224844 L76.5500448,9.25834529 C76.4316597,9.46703862 76.3538174,9.69660129 76.3538174,9.94703329 L76.3586825,15.1521928 C76.3586825,15.4217551 76.2402974,15.5052324 76.0294745,15.5052324 L73.9926014,15.5069715 C73.7785351,15.5069715 73.6601499,15.4234942 73.6601499,15.153932 L73.6569065,9.95051151 C73.6569065,9.69660129 73.5806859,9.46877773 73.4623008,9.2600844 L68.5663454,0.540181289 C68.5258025,0.458443067 68.5258025,0.395835067 68.5663454,0.312357733 C68.6036448,0.248010622 68.6636482,0.206271956 68.7609511,0.206271956 L71.0524334,0.206271956 C71.2664997,0.206271956 71.4594837,0.331487956 71.5957077,0.561050622 L74.7434551,6.67924351 C74.8018368,6.80445951 74.8780574,6.8653284 75.0159031,6.8653284 C75.1132059,6.8653284 75.1910482,6.80445951 75.2688905,6.67924351 L78.4296117,0.555833289 C78.5658357,0.328009733 78.6988162,0.202793733 78.9128825,0.202793733 L81.3016677,0.201054622 C81.3584277,0.201054622 81.4395134,0.242793289 81.4768128,0.303662178 C81.5141122,0.387139511 81.5141122,0.451486622 81.4768128,0.533224844" id="Fill-26"></path>
                </g>
                <path d="M0.437800353,12.2742014 L0.436197276,4.46792763 C0.436197276,3.31691455 0.893074246,2.43389855 1.8340805,1.83262307 L4.08480073,0.49607356 C4.48717308,0.228076486 4.96649313,0.104385529 5.40894241,0.102667599 L10.1764937,0.100949669 C10.4073368,0.100949669 10.5211552,0.222922696 10.5211552,0.470304611 L10.5243614,1.97521126 C10.5243614,2.20026008 10.4073368,2.30505381 10.1764937,2.30505381 L3.50929606,2.30677174 C3.27845295,2.30677174 3.18226833,2.44935992 3.18226833,2.71907493 L3.18707756,12.6452742 C3.18707756,12.9132713 3.28486526,13.0352443 3.51250221,13.0352443 L10.3752752,13.0335264 C10.5868814,13.0335264 10.7215399,13.1348843 10.7215399,13.3444717 C10.7215399,13.5712385 10.6237522,13.755057 10.4137491,13.8787479 L8.76257968,14.8648397 C8.31852732,15.1345547 7.8584442,15.2376305 7.396758,15.2376305 L3.24639141,15.2393485 C1.88217281,15.2393485 0.437800353,14.1914112 0.437800353,12.2742014" id="Fill-10"></path>
                <path d="M21.8241312,2.71100066 C21.8241312,2.44128565 21.6509989,2.29697954 21.362445,2.29697954 L15.8270198,2.3004154 C15.5769398,2.30213333 15.4807551,2.44643944 15.4807551,2.71443652 L15.4855644,12.6406358 C15.4855644,12.9086329 15.5833521,13.0323239 15.8334321,13.0289576 L21.3656511,13.0271701 C21.654205,13.0271701 21.8257343,12.9034791 21.8257343,12.635482 L21.8241312,2.71100066 Z M15.5448782,15.2759404 C13.6821026,15.2759404 12.7202564,13.6490607 12.7202564,12.267845 L12.7170461,4.46328922 C12.7154472,3.33117337 13.1771334,2.44643944 14.1149335,1.82798466 L16.3640506,0.426153811 C16.788866,0.154720877 17.2297122,0.0344657798 17.7266661,0.0344657798 L21.6878696,0.0327397583 C22.9350636,0.0293119899 24.5124915,1.12019751 24.5124915,3.09925283 L24.5189038,10.8814755 C24.5189038,12.0342065 24.0379806,12.9223763 23.0969744,13.5150622 L20.9071711,14.9014316 C20.427851,15.1659929 19.9854018,15.2707866 19.4644017,15.2707866 L15.5448782,15.2759404 Z" id="Fill-12"></path>
                <path d="M35.9849126,2.70138025 C35.9849126,2.43166525 35.8133834,2.28907706 35.5232264,2.28907706 L29.9910074,2.29079499 C29.7425305,2.29079499 29.6447428,2.43338318 29.6447428,2.70481611 L29.6511551,12.6275796 C29.6511551,12.8955766 29.7473397,13.0192676 29.9958166,13.0192676 L35.5296388,13.0175497 C35.8197957,13.0175497 35.991325,12.8938587 35.991325,12.6275796 L35.9849126,2.70138025 Z M29.7104689,15.2646075 C27.8444872,15.2680379 26.8810379,13.6394403 26.8810379,12.2599425 L26.8794348,4.45366881 C26.8794348,3.32155296 27.3395179,2.43681904 28.2805242,1.82008218 L30.5296413,0.418251333 C30.9528537,0.145100469 31.3904937,0.024845372 31.8922568,0.024845372 L35.8486511,0.023127442 C37.0990512,0.023127442 38.674876,1.11229504 38.6780822,3.09135035 L38.6812923,10.875291 C38.6828914,12.0297399 38.2019683,12.9144739 37.260962,13.5071597 L35.0711587,14.8918112 C34.5902356,15.1580904 34.1477863,15.2628841 33.6299924,15.2628841 L29.7104689,15.2646075 Z" id="Fill-14"></path>
                <path d="M52.3294057,14.9629335 C52.4239873,15.1708031 52.4239873,15.2120334 52.1931442,15.2120334 L49.7131839,15.2137513 C49.464707,15.2137513 49.2547039,15.1501879 49.1200454,14.9457542 L44.1376818,8.04998339 C44.0623372,7.98641998 43.9661525,7.90567727 43.8491279,7.90567727 C43.5990479,7.90567727 43.5044663,8.06888061 43.5044663,8.33687769 L43.5076725,14.8650115 C43.5076725,15.1330086 43.3537771,15.2137513 43.122934,15.2171872 L41.1254999,15.2171872 C40.9138938,15.2171872 40.8369461,15.1347265 40.8369461,14.8873446 L40.8289307,0.451579174 C40.8289307,0.20591519 40.9042753,0.0822242327 41.1174846,0.0822242327 L43.1165217,0.0822242327 C43.3457617,0.0805063027 43.4996571,0.20247933 43.4996571,0.449861244 L43.5044663,6.5656919 C43.5044663,6.83368897 43.5990479,6.9384827 43.8491279,6.9384827 C43.9661525,6.9384827 44.0607341,6.89725238 44.1376818,6.81135588 L49.1505039,0.365682676 C49.3043993,0.18014624 49.4951654,0.0787883727 49.7452455,0.0787883727 L52.1097842,0.0753525128 C52.3213903,0.0753525128 52.356658,0.157813151 52.2252057,0.343349587 L46.866119,7.01750748 C46.7138267,7.22365907 46.7138267,7.47104099 46.866119,7.6325264 L52.3294057,14.9629335 Z" id="Fill-16"></path>
                <path d="M56.0002919,14.8804729 C56.0002919,15.1261369 55.8656335,15.2085975 55.6379965,15.2085975 L53.5972794,15.2120334 C53.4065132,15.2120334 53.3295655,15.1295727 53.3295655,14.8821908 L53.3215501,0.424092295 C53.3215501,0.19904347 53.3984978,0.0753525128 53.589264,0.0753525128 L55.626775,0.0719166529 C55.856015,0.0719166529 55.9922766,0.19560761 55.9922766,0.422374365 L56.0002919,14.8804729 Z" id="Fill-18"></path>
                <path d="M71.2025926,14.868791 C71.2025926,15.1161729 71.085568,15.1986335 70.8723587,15.2003515 L66.7829091,15.2020694 C66.5488598,15.2020694 66.3981706,15.1196088 66.3180167,14.8962779 L61.4318377,2.334774 C61.3933639,2.25231336 61.3356531,2.19046788 61.2394685,2.19046788 C61.10481,2.19046788 61.0278623,2.29354368 61.0278623,2.41723463 L61.0342746,14.8550475 C61.0342746,15.1230446 60.8996161,15.2037873 60.6511392,15.2037873 L58.7498898,15.2072232 C58.5559174,15.2072232 58.4805728,15.1247625 58.4805728,14.8790986 L58.4725574,0.421000021 C58.4725574,0.194233266 58.546299,0.0705423089 58.7418744,0.0705423089 L62.8906379,0.068824379 C63.100641,0.068824379 63.2593456,0.171900177 63.3346902,0.398666931 L68.2208692,12.9361198 C68.27858,13.0185804 68.3362908,13.0598107 68.3940015,13.0598107 C68.5270569,13.0598107 68.6424785,12.9962473 68.6424785,12.8725564 L68.6376693,0.412410371 C68.6376693,0.187361546 68.7530908,0.0636705891 68.9839339,0.0636705891 L70.8675495,0.0636705891 C71.0791557,0.0636705891 71.1929741,0.187361546 71.1929741,0.412410371 L71.2025926,14.868791 Z" id="Fill-20"></path>
                <path d="M75.8914328,15.4047851 C74.7772942,15.4047851 73.5862079,14.4960002 73.5830018,12.9120688 L73.5797956,4.42549476 C73.5797956,3.27448168 74.0190387,2.39146568 74.9424111,1.7901902 L77.1899252,0.45535862 C77.6131376,0.185643616 78.0732207,0.0602347292 78.5541438,0.0602347292 L84.3204121,0.0567988693 C84.5304152,0.0567988693 84.6474398,0.180489826 84.6474398,0.426153811 L84.6474398,1.93277839 C84.6474398,2.15782721 84.5304152,2.26090301 84.3204121,2.26090301 L76.6336575,2.26433887 C76.4044174,2.26433887 76.2873928,2.40864498 76.2873928,2.67664206 L76.2938051,12.6045593 C76.2938051,12.8708384 76.4076236,12.9945294 76.6384667,12.9945294 L81.7699165,12.9910935 C81.9831257,12.9910935 82.133815,12.8674026 82.133815,12.5994055 L82.133815,9.73561626 C82.133815,9.46761919 81.9831257,9.325031 81.7875503,9.325031 L79.6346178,9.32674893 C79.3861408,9.32674893 79.2883531,9.22367313 79.2883531,8.99690638 L79.2883531,7.51261489 C79.2883531,7.24633575 79.3829347,7.14154202 79.6137778,7.14154202 L84.4759106,7.13982409 C84.7083568,7.13810616 84.8237783,7.26351505 84.8253814,7.52807626 L84.8269845,14.8619193 C84.8269845,15.1093012 84.7099598,15.1917618 84.4791167,15.1951977 L82.4832858,15.1951977 C82.2524427,15.1951977 82.1386242,15.1110191 82.1386242,14.8413041 L82.133815,14.4925643 C82.133815,14.2280031 81.9654919,14.1266452 81.7346488,14.1867728 L76.5839621,15.3188886 C76.2938051,15.4047851 76.0645651,15.4047851 75.8914328,15.4047851" id="Fill-22"></path>
            </g>
        </g>
    </g>
</svg>