<?xml version="1.0" encoding="utf-8"?>
<!-- Generator: Adobe Illustrator 24.0.0, SVG Export Plug-In . SVG Version: 6.00 Build 0)  -->
<svg version="1.1" id="Layer_1" xmlns="http://www.w3.org/2000/svg" xmlns:xlink="http://www.w3.org/1999/xlink" x="0px" y="0px"
	 viewBox="0 0 118 60" style="enable-background:new 0 0 118 60;" xml:space="preserve">
<style type="text/css">
	.st0{fill-rule:evenodd;clip-rule:evenodd;fill:#FFFFFF;}
</style>
<title>logo/space/CL</title>
<desc>Created with Sketch.</desc>
<g id="logo_x2F_space_x2F_CL">
	<g id="logo_x2F_space_x2F_DL" transform="translate(17.000000, 13.000000)">
		<g id="Group">
			<g id="기본" transform="translate(0.000000, 19.264000)">
				<path id="Fill-13" class="st0" d="M3.1,15.5c-2.1,0-2.8-1.8-2.8-3l0-11.9c0-0.3,0.1-0.4,0.3-0.4l2,0C2.9,0.2,3,0.4,3,0.6l0,12.3
					c0,0.3,0.1,0.4,0.3,0.4l6.5,0c0.2,0,0.4,0.1,0.4,0.3c0,0.2-0.1,0.4-0.3,0.5l-1.6,1c-0.5,0.3-0.9,0.4-1.4,0.4L3.1,15.5z"/>
				<path id="Fill-16" class="st0" d="M13.9,15.2c0,0.3-0.1,0.3-0.4,0.3l-2.1,0c-0.2,0-0.3-0.1-0.3-0.3l0-14.6
					c0-0.2,0.1-0.4,0.3-0.4h2.1c0.2,0,0.4,0.1,0.4,0.4L13.9,15.2z"/>
				<path id="Fill-18" class="st0" d="M25.3,12.9l0-3.4c0-0.3-0.2-0.5-0.4-0.5l-5.2,0c-0.3,0-0.4,0.2-0.4,0.4l0,3.5
					c0,0.3,0.1,0.4,0.4,0.4l5.2,0C25.1,13.3,25.3,13.2,25.3,12.9 M25.2,6.4V2.9c0-0.3-0.2-0.4-0.4-0.4l-5.3,0
					c-0.3,0-0.3,0.2-0.3,0.4v3.6c0,0.3,0.1,0.4,0.4,0.4l5.2,0C25.1,6.8,25.2,6.7,25.2,6.4 M28,2.6l0,2.1c0,0.9-0.3,1.7-1,2.3
					C27,7,26.9,7.1,26.9,7.3c0,0.1,0.1,0.2,0.2,0.3c0.7,0.6,1,1.4,1,2.4v1.2c0,1.2-0.5,2.1-1.5,2.7l-2.2,1.4
					c-0.4,0.3-0.9,0.4-1.5,0.4l-6.1,0c-0.2,0-0.3-0.1-0.3-0.3l0-14.6c0-0.3,0.1-0.4,0.3-0.4h2c0.2,0,0.4,0.1,0.4,0.4v0.3
					c0,0.3,0.1,0.4,0.4,0.3L25,0.1c0.3,0,0.5-0.1,0.7-0.1C26.6,0,28,0.8,28,2.6"/>
				<path id="Fill-20" class="st0" d="M38.8,6.9l0-4c0-0.3-0.1-0.4-0.4-0.4l-5.1,0c-0.2,0-0.3,0.1-0.3,0.4l0,4
					c0,0.3,0.1,0.4,0.3,0.4l5.1,0C38.7,7.3,38.8,7.1,38.8,6.9 M41.6,2.6v2.5c0,1.2-0.5,2-1.5,2.6l-1,0.6c-0.2,0.1-0.3,0.3-0.1,0.5
					l3.4,6.3c0.1,0.2,0.1,0.3-0.2,0.3l-2.4,0c-0.2,0-0.4-0.1-0.5-0.3l-2.9-5.3c-0.1-0.2-0.3-0.4-0.6-0.4l-2.5,0
					c-0.2,0-0.3,0.1-0.3,0.4l0,5.2c0,0.3-0.2,0.4-0.4,0.4l-2,0c-0.2,0-0.3-0.1-0.3-0.3l0-14.6c0-0.3,0.1-0.4,0.3-0.4h2
					c0.2,0,0.4,0.1,0.4,0.4v0.3c0,0.3,0.1,0.4,0.4,0.3l5.1-1.1C38.8,0.1,39,0,39.2,0C40.1,0,41.6,0.8,41.6,2.6"/>
				<path id="Fill-22" class="st0" d="M51.2,9l-1.8-6.7c0-0.1-0.1-0.2-0.3-0.2c-0.1,0-0.2,0.1-0.3,0.2L47,9c-0.1,0.3,0,0.4,0.3,0.4
					l3.6,0C51.1,9.4,51.2,9.3,51.2,9L51.2,9z M55.6,15.2c0.1,0.2,0,0.3-0.3,0.3l-2.1,0c-0.2,0-0.4-0.1-0.4-0.4L51.9,12
					c-0.1-0.2-0.3-0.4-0.5-0.4l-4.8,0c-0.2,0-0.4,0.2-0.4,0.4l-0.9,3.1c-0.1,0.3-0.2,0.4-0.4,0.4l-2.1,0c-0.2,0-0.3-0.1-0.2-0.3
					l4.1-14.6c0.1-0.2,0.2-0.4,0.4-0.4l3.7,0c0.3,0,0.4,0.1,0.5,0.4L55.6,15.2z"/>
				<path id="Fill-24" class="st0" d="M65.2,6.9l0-4c0-0.3-0.1-0.4-0.4-0.4l-5.1,0c-0.2,0-0.3,0.1-0.3,0.4l0,4
					c0,0.3,0.1,0.4,0.3,0.4l5.1,0C65.1,7.3,65.2,7.1,65.2,6.9 M68,2.6l0,2.5c0,1.2-0.5,2-1.5,2.6l-1,0.6c-0.2,0.1-0.3,0.3-0.1,0.5
					l3.4,6.3c0.1,0.2,0.1,0.3-0.2,0.3l-2.4,0c-0.2,0-0.4-0.1-0.5-0.3l-2.9-5.3c-0.1-0.2-0.3-0.4-0.6-0.4l-2.5,0
					c-0.2,0-0.3,0.1-0.3,0.4l0,5.2c0,0.3-0.2,0.4-0.4,0.4h-2c-0.2,0-0.3-0.1-0.3-0.3l0-14.6c0-0.3,0.1-0.4,0.3-0.4l2,0
					c0.2,0,0.4,0.1,0.4,0.4v0.3c0,0.3,0.1,0.4,0.4,0.3l5.1-1.1C65.1,0,65.4,0,65.6,0C66.5,0,68,0.8,68,2.6"/>
				<path id="Fill-26" class="st0" d="M81.5,0.5l-4.9,8.7c-0.1,0.2-0.2,0.4-0.2,0.7l0,5.2c0,0.3-0.1,0.4-0.3,0.4l-2,0
					c-0.2,0-0.3-0.1-0.3-0.4l0-5.2c0-0.3-0.1-0.5-0.2-0.7l-4.9-8.7c0-0.1,0-0.1,0-0.2c0-0.1,0.1-0.1,0.2-0.1h2.3
					c0.2,0,0.4,0.1,0.5,0.4l3.1,6.1c0.1,0.1,0.1,0.2,0.3,0.2c0.1,0,0.2-0.1,0.3-0.2l3.2-6.1c0.1-0.2,0.3-0.4,0.5-0.4l2.4,0
					c0.1,0,0.1,0,0.2,0.1C81.5,0.4,81.5,0.5,81.5,0.5"/>
			</g>
			<path id="Fill-10" class="st0" d="M0.4,12.3l0-7.8c0-1.2,0.5-2,1.4-2.6l2.3-1.3C4.5,0.2,5,0.1,5.4,0.1l4.8,0
				c0.2,0,0.3,0.1,0.3,0.4l0,1.5c0,0.2-0.1,0.3-0.3,0.3l-6.7,0c-0.2,0-0.3,0.1-0.3,0.4l0,9.9c0,0.3,0.1,0.4,0.3,0.4l6.9,0
				c0.2,0,0.3,0.1,0.3,0.3c0,0.2-0.1,0.4-0.3,0.5l-1.7,1c-0.4,0.3-0.9,0.4-1.4,0.4l-4.2,0C1.9,15.2,0.4,14.2,0.4,12.3"/>
			<path id="Fill-12" class="st0" d="M21.8,2.7c0-0.3-0.2-0.4-0.5-0.4l-5.5,0c-0.3,0-0.3,0.1-0.3,0.4l0,9.9c0,0.3,0.1,0.4,0.3,0.4
				l5.5,0c0.3,0,0.5-0.1,0.5-0.4L21.8,2.7z M15.5,15.3c-1.9,0-2.8-1.6-2.8-3l0-7.8c0-1.1,0.5-2,1.4-2.6l2.2-1.4
				C16.8,0.2,17.2,0,17.7,0l4,0c1.2,0,2.8,1.1,2.8,3.1l0,7.8c0,1.2-0.5,2-1.4,2.6l-2.2,1.4c-0.5,0.3-0.9,0.4-1.4,0.4L15.5,15.3z"/>
			<path id="Fill-14" class="st0" d="M36,2.7c0-0.3-0.2-0.4-0.5-0.4l-5.5,0c-0.2,0-0.3,0.1-0.3,0.4l0,9.9c0,0.3,0.1,0.4,0.3,0.4
				l5.5,0c0.3,0,0.5-0.1,0.5-0.4L36,2.7z M29.7,15.3c-1.9,0-2.8-1.6-2.8-3l0-7.8c0-1.1,0.5-2,1.4-2.6l2.2-1.4C31,0.1,31.4,0,31.9,0
				l4,0c1.3,0,2.8,1.1,2.8,3.1l0,7.8c0,1.2-0.5,2-1.4,2.6l-2.2,1.4c-0.5,0.3-0.9,0.4-1.4,0.4L29.7,15.3z"/>
			<path id="Fill-16_1_" class="st0" d="M52.3,15c0.1,0.2,0.1,0.2-0.1,0.2l-2.5,0c-0.2,0-0.5-0.1-0.6-0.3l-5-6.9
				C44.1,8,44,7.9,43.8,7.9c-0.3,0-0.3,0.2-0.3,0.4l0,6.5c0,0.3-0.2,0.3-0.4,0.4h-2c-0.2,0-0.3-0.1-0.3-0.3l0-14.4
				c0-0.2,0.1-0.4,0.3-0.4h2c0.2,0,0.4,0.1,0.4,0.4l0,6.1c0,0.3,0.1,0.4,0.3,0.4c0.1,0,0.2,0,0.3-0.1l5-6.4c0.2-0.2,0.3-0.3,0.6-0.3
				l2.4,0c0.2,0,0.2,0.1,0.1,0.3L46.9,7c-0.2,0.2-0.2,0.5,0,0.6L52.3,15z"/>
			<path id="Fill-18_1_" class="st0" d="M56,14.9c0,0.2-0.1,0.3-0.4,0.3l-2,0c-0.2,0-0.3-0.1-0.3-0.3l0-14.5c0-0.2,0.1-0.3,0.3-0.3
				l2,0c0.2,0,0.4,0.1,0.4,0.4L56,14.9z"/>
			<path id="Fill-20_1_" class="st0" d="M71.2,14.9c0,0.2-0.1,0.3-0.3,0.3l-4.1,0c-0.2,0-0.4-0.1-0.5-0.3L61.4,2.3
				c0-0.1-0.1-0.1-0.2-0.1c-0.1,0-0.2,0.1-0.2,0.2l0,12.4c0,0.3-0.1,0.3-0.4,0.3l-1.9,0c-0.2,0-0.3-0.1-0.3-0.3l0-14.5
				c0-0.2,0.1-0.4,0.3-0.4l4.1,0c0.2,0,0.4,0.1,0.4,0.3l4.9,12.5c0.1,0.1,0.1,0.1,0.2,0.1c0.1,0,0.2-0.1,0.2-0.2l0-12.5
				c0-0.2,0.1-0.3,0.3-0.3h1.9c0.2,0,0.3,0.1,0.3,0.3L71.2,14.9z"/>
			<path id="Fill-22_1_" class="st0" d="M75.9,15.4c-1.1,0-2.3-0.9-2.3-2.5l0-8.5c0-1.2,0.4-2,1.4-2.6l2.2-1.3
				c0.4-0.3,0.9-0.4,1.4-0.4l5.8,0c0.2,0,0.3,0.1,0.3,0.4v1.5c0,0.2-0.1,0.3-0.3,0.3l-7.7,0c-0.2,0-0.3,0.1-0.3,0.4l0,9.9
				c0,0.3,0.1,0.4,0.3,0.4l5.1,0c0.2,0,0.4-0.1,0.4-0.4V9.7c0-0.3-0.2-0.4-0.3-0.4l-2.2,0c-0.2,0-0.3-0.1-0.3-0.3V7.5
				c0-0.3,0.1-0.4,0.3-0.4l4.9,0c0.2,0,0.3,0.1,0.3,0.4l0,7.3c0,0.2-0.1,0.3-0.3,0.3h-2c-0.2,0-0.3-0.1-0.3-0.4l0-0.3
				c0-0.3-0.2-0.4-0.4-0.3l-5.2,1.1C76.3,15.4,76.1,15.4,75.9,15.4"/>
		</g>
	</g>
</g>
</svg>
